<svg width="854" height="621" viewBox="0 0 854 621" fill="none" xmlns="http://www.w3.org/2000/svg">
<path d="M-273.669 398.289L-188.646 135.179C-162.077 53.7404 -85.7836 -1.1216 -0.380951 0.0174057L96.4086 1.34624C227.739 3.05475 319.974 131.572 279.55 256.483L256.776 327.101C230.396 408.54 154.103 463.212 68.7003 462.263L-230.399 458.467C-261.333 457.897 -283.158 427.713 -273.669 398.289Z" fill="#25417E"/>
<path d="M172.798 700.505L275.661 382.153C307.545 283.629 399.779 217.377 503.211 218.706L620.308 220.225C779.157 222.313 890.749 377.597 841.785 528.895L814.077 614.32C782.193 712.844 689.958 779.096 586.526 777.767L224.799 773.021C187.601 772.642 161.221 736.004 172.798 700.505Z" fill="#DADADA"/>
<path d="M166.25 533.831L117.855 683.8C102.862 730.119 59.4014 761.442 10.627 760.683L-44.4102 759.923C-119.185 758.974 -171.755 685.698 -148.791 614.51L-135.696 574.266C-120.703 527.946 -77.2427 496.624 -28.4684 497.383L141.957 499.661C159.417 499.851 171.753 517.126 166.25 533.831Z" fill="#25417E"/>
</svg>
