<svg width="949" height="389" viewBox="0 0 949 389" fill="none" xmlns="http://www.w3.org/2000/svg">
<path d="M77.3307 9.28922L162.354 -253.821C188.923 -335.26 265.216 -390.122 350.619 -388.983L447.409 -387.654C578.739 -385.945 670.974 -257.428 630.55 -132.517L607.776 -61.8986C581.396 19.5402 505.103 74.2124 419.7 73.2632L120.601 69.4666C89.6666 68.8971 67.8415 38.7135 77.3307 9.28922Z" fill="#DADADA"/>
<path d="M523.798 311.505L626.661 -6.84677C658.545 -105.371 750.779 -171.623 854.211 -170.294L971.308 -168.775C1130.16 -166.687 1241.75 -11.4027 1192.79 139.895L1165.08 225.32C1133.19 323.844 1040.96 390.096 937.526 388.767L575.799 384.021C538.601 383.642 512.221 347.004 523.798 311.505Z" fill="#DADADA"/>
<path d="M517.25 144.831L468.855 294.8C453.862 341.119 410.401 372.442 361.627 371.683L306.59 370.923C231.815 369.974 179.245 296.698 202.209 225.51L215.304 185.266C230.297 138.946 273.757 107.624 322.532 108.383L492.957 110.661C510.417 110.851 522.753 128.126 517.25 144.831Z" fill="#25417E"/>
</svg>
