<svg width="304" height="104" viewBox="0 0 304 104" fill="none" xmlns="http://www.w3.org/2000/svg">
<path d="M51.161 69.4585H16.6829L0 34.5415L16.6829 0H51.161L34.4781 34.5415L51.161 69.4585Z" fill="white"/>
<path d="M55.2392 69.4585H51.1612L34.4783 34.5415L51.1612 0H55.2392L38.5563 34.917L55.2392 69.4585Z" fill="white"/>
<path d="M46.7119 34.5415L63.3948 0H67.4728L50.7899 34.5415H46.7119ZM44.4875 34.5415L61.1704 0H57.0924L40.4094 34.5415H44.4875Z" fill="white"/>
<path d="M40.4094 104H74.8875L91.5704 69.4584L74.8875 34.5414H40.4094L57.0924 69.4584L40.4094 104Z" fill="white"/>
<path d="M87.4929 104H91.2002L107.883 69.4584L91.2002 34.5414H87.4929L103.805 69.4584L87.4929 104Z" fill="white"/>
<path d="M81.1899 104H85.268L101.951 69.4584L85.268 34.5414H81.1899L97.8729 69.4584L81.1899 104Z" fill="white"/>
<path d="M74.8877 104H78.9657L95.6487 69.4584L78.9657 34.5414H74.8877L91.5706 69.4584L74.8877 104Z" fill="white"/>
<path d="M120.488 51.8121V34.9168H122.712V47.3067C123.083 46.5558 123.824 45.4295 124.566 44.3031C125.307 43.1768 126.049 42.0504 126.79 40.9241C127.532 39.7977 128.644 38.6713 129.385 37.545C130.127 36.4186 130.868 35.6677 131.98 34.5414H133.834V51.4367H131.61V38.2959C131.239 38.6713 130.498 39.4222 130.127 40.1732C129.756 40.9241 129.015 41.675 128.644 42.4259C127.902 43.1768 127.532 43.9277 126.79 44.6786C126.049 45.4295 125.678 46.1804 125.307 47.3067C124.937 48.0576 124.195 48.8085 123.824 49.5594C123.454 50.3103 123.083 51.0612 122.712 51.4367H120.488V51.8121ZM148.663 34.9168H150.888V51.8121H148.663V43.9277H140.507V51.8121H138.283V34.9168H140.507V42.0504H148.663V34.9168ZM166.088 34.9168V36.7941H160.898V51.4367H158.673V37.1695H153.483V34.9168H166.088ZM168.683 51.8121V34.9168H178.693V36.7941H170.907V41.675H177.951V43.5522H170.907V49.5594H179.434V51.4367H168.683V51.8121ZM186.478 34.9168C188.702 34.9168 190.556 35.2923 192.039 36.4186C193.151 37.1695 193.893 38.6713 193.893 40.5486C193.893 41.675 193.893 42.4259 193.522 43.1768C193.151 43.9277 192.78 44.3031 192.039 44.6786C191.298 45.054 190.556 45.4295 189.815 45.4295C188.702 45.8049 187.961 45.8049 186.849 45.8049H184.995V52.1876H182.771V35.2923C183.512 35.2923 184.254 34.9168 184.995 34.9168C185.366 34.9168 186.107 34.9168 186.478 34.9168ZM186.849 36.7941C185.737 36.7941 184.995 36.7941 184.624 36.7941V43.5522H186.478C187.219 43.5522 187.961 43.5522 188.702 43.5522C189.444 43.5522 189.815 43.1768 190.185 43.1768C190.556 42.8013 190.927 42.4259 191.298 42.0504C191.668 41.675 191.668 40.9241 191.668 40.5486C191.668 39.7977 191.668 39.4222 191.298 39.0468C190.927 38.6713 190.556 38.2959 190.185 37.9204C189.815 37.545 189.073 37.1695 188.702 37.1695C187.961 37.1695 187.59 36.7941 186.849 36.7941ZM209.093 34.9168C208.722 35.2923 207.98 36.0432 207.239 36.7941C206.498 37.545 206.127 38.2959 205.385 39.0468C204.644 39.7977 203.902 40.5486 203.532 41.2995C202.79 42.0504 202.049 42.4259 201.678 43.1768C202.419 43.5522 203.161 44.3031 203.902 45.054C204.644 45.8049 205.385 46.5558 206.127 47.3067C206.868 48.0576 207.61 48.8085 208.351 49.9349C209.093 50.6858 209.463 51.4367 209.834 52.1876H207.239C206.868 51.4367 206.127 50.6858 205.756 49.9349C205.015 49.184 204.644 48.4331 203.902 47.6822C203.161 46.9313 202.419 46.1804 201.678 45.8049C200.937 45.054 200.195 44.6786 199.454 44.3031V52.1876H197.229V34.9168H199.454V42.4259C200.195 42.0504 200.566 41.2995 201.307 40.5486C202.049 39.7977 202.79 39.0468 203.161 38.6713C203.902 37.9204 204.273 37.1695 205.015 36.7941C205.756 36.0432 206.127 35.6677 206.498 35.2923H209.093V34.9168ZM210.576 43.5522C210.576 42.0504 210.946 40.9241 211.317 39.7977C211.688 38.6713 212.429 37.9204 213.171 37.1695C213.912 36.4186 214.654 36.0432 215.766 35.6677C216.878 35.2923 217.619 35.2923 218.732 35.2923C219.844 35.2923 220.956 35.2923 221.698 35.6677C222.81 36.0432 223.551 36.4186 224.293 37.1695C225.034 37.9204 225.405 38.6713 226.146 39.7977C226.517 40.9241 226.888 42.0504 226.888 43.5522C226.888 45.054 226.517 46.1804 226.146 47.3067C225.776 48.4331 225.034 49.184 224.293 49.9349C223.551 50.6858 222.81 51.0612 221.698 51.4367C220.585 51.8121 219.844 51.8121 218.732 51.8121C217.619 51.8121 216.507 51.8121 215.766 51.4367C214.654 51.0612 213.912 50.6858 213.171 49.9349C212.429 49.184 211.688 48.4331 211.317 47.3067C210.576 46.1804 210.576 45.054 210.576 43.5522ZM212.8 43.5522C212.8 44.6786 212.8 45.4295 213.171 46.1804C213.541 46.9313 213.912 47.6822 214.283 48.4331C214.654 49.184 215.395 49.5594 216.137 49.9349C216.878 50.3103 217.619 50.3103 218.361 50.3103C219.102 50.3103 219.844 50.3103 220.585 49.9349C221.327 49.5594 221.698 49.184 222.439 48.4331C222.81 47.6822 223.18 47.3067 223.551 46.1804C223.922 45.4295 223.922 44.3031 223.922 43.5522C223.922 42.4259 223.922 41.675 223.551 40.9241C223.18 40.1732 222.81 39.4222 222.439 38.6713C222.068 37.9204 221.327 37.545 220.585 37.1695C219.844 36.7941 219.102 36.7941 218.361 36.7941C217.619 36.7941 216.878 36.7941 216.137 37.1695C215.395 37.545 215.024 37.9204 214.283 38.6713C213.912 39.4222 213.541 39.7977 213.171 40.9241C213.171 41.675 212.8 42.4259 212.8 43.5522ZM240.234 34.9168H242.459V51.8121H240.234V43.9277H232.078V51.8121H229.854V34.9168H232.078V42.0504H240.234V34.9168ZM257.288 34.9168H259.512V51.8121H257.288V43.9277H249.132V51.8121H246.907V34.9168H249.132V42.0504H257.288V34.9168ZM263.59 51.8121V34.9168H273.6V36.7941H265.815V41.675H272.859V43.5522H265.815V49.5594H274.341V51.4367H263.59V51.8121ZM289.541 34.9168C289.171 35.2923 288.429 36.0432 287.688 36.7941C286.946 37.545 286.576 38.2959 285.834 39.0468C285.093 39.7977 284.351 40.5486 283.98 41.2995C283.239 42.0504 282.498 42.4259 282.127 43.1768C282.868 43.5522 283.61 44.3031 284.351 45.054C285.093 45.8049 285.834 46.5558 286.576 47.3067C287.317 48.0576 288.059 48.8085 288.8 49.9349C289.541 50.6858 289.912 51.4367 290.283 52.1876H287.688C287.317 51.4367 286.576 50.6858 286.205 49.9349C285.463 49.184 285.093 48.4331 284.351 47.6822C283.61 46.9313 282.868 46.1804 282.127 45.8049C281.385 45.054 280.644 44.6786 279.902 44.3031V52.1876H277.678V34.9168H279.902V42.4259C280.644 42.0504 281.015 41.2995 281.756 40.5486C282.498 39.7977 283.239 39.0468 283.61 38.6713C284.351 37.9204 284.722 37.1695 285.463 36.7941C286.205 36.0432 286.576 35.6677 286.946 35.2923H289.541V34.9168ZM304 37.1695H298.81V51.8121H296.585V37.1695H291.395V34.9168H304V37.1695Z" fill="white"/>
<path d="M128.644 74.3392C128.644 73.9638 128.273 73.5883 127.902 72.8374C127.532 72.0865 127.532 71.7111 127.161 70.9602C126.79 70.2093 126.42 69.4584 126.049 68.7075C125.678 67.9566 125.307 67.2057 124.937 66.4548C124.566 65.7039 124.195 65.3284 124.195 64.5775C123.824 64.2021 123.824 63.8266 123.454 63.4512C123.454 65.3284 123.083 67.5811 123.083 69.8338C123.083 72.0865 122.712 74.3392 122.712 76.5919H120.488C120.488 75.0901 120.488 73.5883 120.859 72.0865C120.859 70.5847 120.859 69.0829 121.229 67.5811C121.229 66.0793 121.6 64.5775 121.6 63.4512C121.6 61.9493 121.971 60.823 121.971 59.6966H124.195C124.566 60.4475 124.937 61.1984 125.678 62.3248C126.049 63.4512 126.79 64.2021 127.161 65.3284C127.532 66.4548 128.273 67.5811 128.644 68.332C129.015 69.4584 129.385 70.2093 129.756 71.3356C130.127 70.5847 130.498 69.4584 130.868 68.332C131.239 67.2057 131.98 66.0793 132.351 65.3284C132.722 64.2021 133.463 63.0757 133.834 62.3248C134.205 61.1984 134.946 60.4475 135.317 59.6966H137.541C137.912 64.953 138.654 70.5847 138.654 76.5919H136.429C136.429 74.3392 136.429 72.0865 136.059 69.8338C136.059 67.5811 135.688 65.7039 135.688 63.4512C135.688 63.8266 135.317 64.2021 134.946 64.5775C134.576 64.953 134.576 65.7039 134.205 66.4548C133.834 67.2057 133.463 67.9566 133.093 68.7075C132.722 69.4584 132.351 70.2093 131.98 70.9602C131.61 71.7111 131.239 72.462 131.239 72.8374C130.868 73.5883 130.868 73.9638 130.498 74.3392H128.644ZM142.361 76.5919V59.6966H152.371V61.5739H144.585V66.4548H151.629V68.332H144.585V74.3392H153.112V76.2165H142.361V76.5919ZM166.459 59.6966H168.683V76.5919H166.459V68.7075H158.302V76.5919H156.078V59.6966H158.302V66.8302H166.459V59.6966ZM172.761 76.5919V59.6966H182.771V61.5739H174.985V66.4548H182.029V68.332H174.985V74.3392H183.512V76.2165H172.761V76.5919ZM187.22 76.5919V81.0974H184.995V74.7147H186.849C187.59 73.5883 188.332 72.8374 188.702 71.7111C189.073 70.5847 189.444 69.4584 189.815 67.9566C190.185 66.8302 190.185 65.3284 190.185 63.8266C190.185 62.3248 190.185 61.1984 190.185 59.6966H199.454V74.7147H201.678V81.0974H199.454V76.5919H187.22ZM192.41 61.9494C192.41 63.0757 192.41 64.2021 192.41 65.3284C192.41 66.4548 192.41 67.5811 192.039 68.7075C192.039 69.8338 191.668 70.9602 191.298 72.0865C190.927 73.2129 190.556 73.9638 189.815 75.0901H197.6V62.3248H192.41V61.9494ZM209.834 67.5811C209.463 66.8302 208.722 66.4548 208.351 65.7039C207.61 64.953 207.239 64.2021 206.498 63.4512C205.756 62.7003 205.385 61.9493 204.644 61.1984C204.273 60.4475 203.532 60.0721 203.161 59.3212H205.756C206.127 59.6966 206.498 60.4475 206.868 60.823C207.239 61.5739 207.98 61.9494 208.351 62.7003C208.722 63.4512 209.463 64.2021 210.205 64.5775C210.946 65.3284 211.317 66.0793 211.688 66.4548V58.9457H213.912V66.4548C214.283 65.7039 215.024 65.3284 215.395 64.5775C216.137 63.8266 216.507 63.0757 217.249 62.7003C217.62 61.9494 218.361 61.1985 218.732 60.823C219.102 60.0721 219.473 59.6966 219.844 59.3212H222.439C222.068 59.6966 221.698 60.4475 220.956 61.1984C220.585 61.9493 219.844 62.7003 219.102 63.4512C218.361 64.2021 217.99 64.953 217.249 65.7039C216.507 66.4548 216.137 66.8302 215.766 67.5811C216.507 68.332 216.878 68.7075 217.62 69.4584C218.361 70.2093 218.732 70.9602 219.473 71.7111C220.215 72.462 220.585 73.2129 221.327 73.9638C221.698 74.7147 222.439 75.4656 222.81 76.2165H220.215C219.844 75.4656 219.473 74.7147 218.732 73.9638C218.361 73.2129 217.62 72.462 216.878 71.7111C216.137 70.9602 215.766 70.2093 215.024 69.8338C214.283 69.0829 213.912 68.7075 213.171 68.332V76.2165H210.946V68.332C210.576 68.7075 209.834 69.4584 209.093 69.8338C208.351 70.5847 207.98 70.9602 207.239 71.7111C206.498 72.462 206.127 73.2129 205.385 73.9638C205.015 74.7147 204.273 75.4656 203.902 76.2165H201.307C201.678 75.4656 202.049 74.7147 202.79 73.9638C203.161 73.2129 203.902 72.462 204.644 71.7111C205.385 70.9602 205.756 70.2093 206.498 69.4584C208.351 69.0829 209.093 68.332 209.834 67.5811ZM233.561 74.3392C233.561 73.9638 233.19 73.5883 232.82 72.8374C232.449 72.0865 232.449 71.7111 232.078 70.9602C231.707 70.2093 231.337 69.4584 230.966 68.7075C230.595 67.9566 230.224 67.2057 229.854 66.4548C229.483 65.7039 229.112 65.3284 229.112 64.5775C228.741 64.2021 228.741 63.8266 228.371 63.4512C228.371 65.3284 228 67.5811 228 69.8338C228 72.0865 227.629 74.3392 227.629 76.5919H225.405C225.405 75.0901 225.405 73.5883 225.776 72.0865C225.776 70.5847 225.776 69.0829 226.146 67.5811C226.146 66.0793 226.517 64.5775 226.517 63.4512C226.517 61.9493 226.888 60.823 226.888 59.6966H229.112C229.483 60.4475 229.854 61.1984 230.595 62.3248C230.966 63.4512 231.707 64.2021 232.078 65.3284C232.449 66.4548 233.19 67.5811 233.561 68.332C233.932 69.4584 234.302 70.2093 234.673 71.3356C235.044 70.5847 235.415 69.4584 235.785 68.332C236.156 67.2057 236.898 66.0793 237.268 65.3284C237.639 64.2021 238.381 63.0757 238.751 62.3248C239.122 61.1984 239.863 60.4475 240.234 59.6966H242.459C242.829 64.953 243.571 70.5847 243.571 76.5919H240.976C240.976 74.3392 240.976 72.0865 240.605 69.8338C240.605 67.5811 240.234 65.7039 240.234 63.4512C240.234 63.8266 239.863 64.2021 239.493 64.5775C239.122 64.953 239.122 65.7039 238.751 66.4548C238.381 67.2057 238.01 67.9566 237.639 68.7075C237.268 69.4584 236.898 70.2093 236.527 70.9602C236.156 71.7111 235.785 72.462 235.785 72.8374C235.415 73.5883 235.415 73.9638 235.044 74.3392H233.561ZM246.907 76.5919V59.6966H256.917V61.5739H249.132V66.4548H256.176V68.332H249.132V74.3392H257.659V76.2165H246.907V76.5919ZM271.376 59.6966H273.6V76.5919H271.376V68.7075H263.22V76.5919H260.995V59.6966H263.22V66.8302H271.376V59.6966ZM288.8 59.6966V61.5739H283.61V76.2165H281.385V61.5739H276.195V59.6966H288.8ZM133.093 86.3537C132.722 86.7291 131.98 87.48 131.239 88.2309C130.498 88.9818 130.127 89.7327 129.385 90.4836C128.644 91.2345 127.902 91.9855 127.532 92.7364C126.79 93.4873 126.049 93.8627 125.678 94.6136C126.42 94.9891 127.161 95.74 127.902 96.4909C128.644 97.2418 129.385 97.9927 130.127 98.7436C130.868 99.4945 131.61 100.245 132.351 101.372C133.093 102.123 133.463 102.874 133.834 103.624H131.239C130.868 102.874 130.127 102.123 129.756 101.372C129.015 100.621 128.644 99.8699 127.902 99.119C127.161 98.3681 126.42 97.6172 125.678 97.2418C124.937 96.4909 124.195 96.1154 123.454 95.74V103.624H121.229V86.3537H123.454V93.8627C124.195 93.4873 124.566 92.7364 125.307 91.9854C126.049 91.2345 126.79 90.4836 127.161 90.1082C127.902 89.3573 128.273 88.6064 129.015 88.2309C129.756 87.48 130.127 87.1046 130.498 86.7291H133.093V86.3537ZM134.576 94.6136C134.576 93.1118 134.946 91.9855 135.317 90.8591C135.688 89.7327 136.429 88.9818 137.171 88.2309C137.912 87.48 138.654 87.1046 139.766 86.7291C140.878 86.3537 141.62 86.3537 142.732 86.3537C143.844 86.3537 144.956 86.3537 145.698 86.7291C146.81 87.1046 147.551 87.48 148.293 88.2309C149.034 88.9818 149.405 89.7327 150.146 90.8591C150.517 91.9855 150.888 93.1118 150.888 94.6136C150.888 96.1154 150.517 97.2418 150.146 98.3681C149.776 99.4945 149.034 100.245 148.293 100.996C147.551 101.747 146.81 102.123 145.698 102.498C144.585 102.874 143.844 102.874 142.732 102.874C141.62 102.874 140.507 102.874 139.766 102.498C138.654 102.123 137.912 101.747 137.171 100.996C136.429 100.245 135.688 99.4945 135.317 98.3681C134.576 97.2418 134.576 96.1154 134.576 94.6136ZM136.8 94.6136C136.8 95.74 136.8 96.4909 137.171 97.2418C137.541 97.9927 137.912 98.7436 138.283 99.4945C138.654 100.245 139.395 100.621 140.137 100.996C140.878 101.372 141.62 101.372 142.361 101.372C143.102 101.372 143.844 101.372 144.585 100.996C145.327 100.621 145.698 100.245 146.439 99.4945C146.81 98.7436 147.18 98.3681 147.551 97.2418C147.922 96.4909 147.922 95.3645 147.922 94.6136C147.922 93.4873 147.922 92.7364 147.551 91.9854C147.18 91.2345 146.81 90.4836 146.439 89.7327C146.068 88.9818 145.327 88.6064 144.585 88.2309C143.844 87.8555 143.102 87.8555 142.361 87.8555C141.62 87.8555 140.878 87.8555 140.137 88.2309C139.395 88.6064 139.024 88.9818 138.283 89.7327C137.912 90.4836 137.541 90.8591 137.171 91.9854C137.171 92.7364 136.8 93.4873 136.8 94.6136ZM158.302 85.9782C160.527 85.9782 162.38 86.3537 163.863 87.48C164.976 88.2309 165.717 89.7327 165.717 91.61C165.717 92.7364 165.717 93.4873 165.346 94.2382C164.976 94.9891 164.605 95.3645 163.863 95.74C163.122 96.1154 162.38 96.4909 161.639 96.4909C160.527 96.8663 159.785 96.8663 158.673 96.8663H156.82V103.249H154.595V86.3537C155.337 86.3537 156.078 85.9782 156.82 85.9782C156.82 85.9782 157.561 85.9782 158.302 85.9782ZM158.302 88.2309C157.19 88.2309 156.449 88.2309 156.078 88.2309V94.9891H157.932C158.673 94.9891 159.415 94.9891 160.156 94.9891C160.898 94.9891 161.268 94.6136 161.639 94.6136C162.01 94.2382 162.38 93.8627 162.751 93.4873C163.122 93.1118 163.122 92.3609 163.122 91.9854C163.122 91.2345 163.122 90.8591 162.751 90.4836C162.38 90.1082 162.01 89.7327 161.639 89.3573C161.268 88.9818 160.898 88.9818 160.156 88.9818C159.785 88.2309 159.044 88.2309 158.302 88.2309ZM180.917 86.3537V103.249H178.693V88.2309H170.537V103.249H168.312V86.3537H180.917ZM184.624 94.6136C184.624 93.1118 184.995 91.9855 185.366 90.8591C185.737 89.7327 186.478 88.9818 187.22 88.2309C187.961 87.48 188.702 87.1046 189.815 86.7291C190.927 86.3537 191.668 86.3537 192.78 86.3537C193.893 86.3537 195.005 86.3537 195.746 86.7291C196.859 87.1046 197.6 87.48 198.341 88.2309C199.083 88.9818 199.454 89.7327 200.195 90.8591C200.566 91.9855 200.937 93.1118 200.937 94.6136C200.937 96.1154 200.566 97.2418 200.195 98.3681C199.824 99.4945 199.083 100.245 198.341 100.996C197.6 101.747 196.859 102.123 195.746 102.498C194.634 102.874 193.893 102.874 192.78 102.874C191.668 102.874 190.556 102.874 189.815 102.498C188.702 102.123 187.961 101.747 187.22 100.996C186.478 100.245 185.737 99.4945 185.366 98.3681C184.624 97.2418 184.624 96.1154 184.624 94.6136ZM186.849 94.6136C186.849 95.74 186.849 96.4909 187.22 97.2418C187.59 97.9927 187.961 98.7436 188.332 99.4945C188.702 100.245 189.444 100.621 190.185 100.996C190.927 101.372 191.668 101.372 192.41 101.372C193.151 101.372 193.893 101.372 194.634 100.996C195.376 100.621 195.746 100.245 196.488 99.4945C196.859 98.7436 197.229 98.3681 197.6 97.2418C197.971 96.4909 197.971 95.3645 197.971 94.6136C197.971 93.4873 197.971 92.7364 197.6 91.9854C197.229 91.2345 196.859 90.4836 196.488 89.7327C196.117 88.9818 195.376 88.6064 194.634 88.2309C193.893 87.8555 193.151 87.8555 192.41 87.8555C191.668 87.8555 190.927 87.8555 190.185 88.2309C189.444 88.6064 189.073 88.9818 188.332 89.7327C187.961 90.4836 187.59 90.8591 187.22 91.9854C187.22 92.7364 186.849 93.4873 186.849 94.6136ZM208.351 85.9782C210.576 85.9782 212.429 86.3537 213.912 87.48C215.024 88.2309 215.766 89.7327 215.766 91.61C215.766 92.7364 215.766 93.4873 215.395 94.2382C215.024 94.9891 214.654 95.3645 213.912 95.74C213.171 96.1154 212.429 96.4909 211.688 96.4909C210.576 96.8663 209.834 96.8663 208.722 96.8663H206.868V103.249H203.902V86.3537C204.644 86.3537 205.385 85.9782 206.127 85.9782C206.868 85.9782 207.61 85.9782 208.351 85.9782ZM208.351 88.2309C207.239 88.2309 206.498 88.2309 206.127 88.2309V94.9891H207.98C208.722 94.9891 209.463 94.9891 210.205 94.9891C210.946 94.9891 211.317 94.6136 211.688 94.6136C212.059 94.2382 212.429 93.8627 212.8 93.4873C213.171 93.1118 213.171 92.3609 213.171 91.9854C213.171 91.2345 213.171 90.8591 212.8 90.4836C212.429 90.1082 212.059 89.7327 211.688 89.3573C211.317 88.9818 210.946 88.9818 210.205 88.9818C209.834 88.2309 209.093 88.2309 208.351 88.2309ZM218.361 102.874V86.3537H228.371V88.2309H220.585V93.1118H227.629V94.9891H220.585V100.996H229.112V102.874H218.361ZM232.078 102.874V86.3537H234.302V98.7436C234.673 97.9927 235.415 96.8663 236.156 95.74C236.898 94.6136 237.639 93.4873 238.381 92.3609C239.122 91.2345 240.234 90.1082 240.976 88.9818C241.717 87.8555 242.459 87.1046 243.571 85.9782H245.424V102.874H243.2V89.7327C242.829 90.1082 242.088 90.8591 241.717 91.61C241.346 92.3609 240.605 93.1118 240.234 93.8627C239.493 94.6136 239.122 95.3645 238.381 96.1154C237.639 96.8663 237.268 97.6172 236.898 98.7436C236.527 99.4945 235.785 100.245 235.415 100.996C235.044 101.747 234.673 102.498 234.302 102.874H232.078ZM238.751 84.4764C237.639 84.4764 236.898 84.101 236.156 83.7255C235.415 83.3501 235.044 82.5992 235.044 81.4728L236.898 81.0974C236.898 81.4728 237.268 82.2237 237.639 82.2237C238.01 82.5992 238.381 82.5992 238.751 82.5992C239.122 82.5992 239.863 82.5992 239.863 82.2237C240.234 81.8483 240.234 81.4728 240.605 81.0974L242.459 81.4728C242.459 82.2237 242.088 82.9746 241.346 83.7255C240.605 84.4764 239.863 84.4764 238.751 84.4764ZM249.873 102.874V86.3537H252.098V101.372H258.4V86.3537H260.624V101.372H266.927V86.3537H269.151V103.249H249.873V102.874ZM283.61 86.3537H285.834V103.249H283.61V95.3645H275.454V103.249H273.229V86.3537H275.454V93.4873H283.61V86.3537Z" fill="white"/>
</svg>
