<svg width="401" height="58" viewBox="0 0 401 58" fill="none" xmlns="http://www.w3.org/2000/svg">
<path d="M36.6865 46.6406H18.3672L15.168 57H0.885742L21.2236 1.54688H33.792L54.2822 57H39.9238L36.6865 46.6406ZM21.5664 36.3193H33.4873L27.5078 17.0859L21.5664 36.3193ZM102.918 50.1445C100.861 52.4297 97.8525 54.2705 93.8916 55.667C89.9307 57.0635 85.5889 57.7617 80.8662 57.7617C73.6045 57.7617 67.8027 55.54 63.4609 51.0967C59.1191 46.6533 56.7959 40.4707 56.4912 32.5488L56.4531 27.75C56.4531 22.291 57.418 17.5303 59.3477 13.4678C61.2773 9.37988 64.0322 6.24414 67.6123 4.06055C71.2178 1.85156 75.3818 0.74707 80.1045 0.74707C87.0107 0.74707 92.3682 2.33398 96.1768 5.50781C100.011 8.65625 102.245 13.3662 102.88 19.6377H90.0068C89.5498 16.54 88.5596 14.3311 87.0361 13.0107C85.5127 11.6904 83.3545 11.0303 80.5615 11.0303C77.21 11.0303 74.6201 12.4521 72.792 15.2959C70.9639 18.1396 70.0371 22.2021 70.0117 27.4834V30.835C70.0117 36.3701 70.9512 40.5342 72.8301 43.3271C74.7344 46.0947 77.7178 47.4785 81.7803 47.4785C85.2588 47.4785 87.8486 46.7041 89.5498 45.1553V36.5479H80.2568V27.3691H102.918V50.1445ZM131.292 37.4238H124.056V57H110.688V1.54688H132.511C139.087 1.54688 144.229 3.00684 147.936 5.92676C151.643 8.84668 153.496 12.9727 153.496 18.3047C153.496 22.1641 152.709 25.3633 151.135 27.9023C149.586 30.4414 147.148 32.498 143.822 34.0723L155.4 56.4287V57H141.08L131.292 37.4238ZM124.056 27.1025H132.511C135.05 27.1025 136.954 26.4424 138.224 25.1221C139.519 23.7764 140.166 21.9102 140.166 19.5234C140.166 17.1367 139.519 15.2705 138.224 13.9248C136.929 12.5537 135.024 11.8682 132.511 11.8682H124.056V27.1025ZM208.53 30.416C208.53 35.8242 207.527 40.6104 205.521 44.7744C203.516 48.9385 200.659 52.1504 196.952 54.4102C193.271 56.6445 189.068 57.7617 184.346 57.7617C179.623 57.7617 175.434 56.6826 171.777 54.5244C168.121 52.3408 165.265 49.2305 163.208 45.1934C161.177 41.1562 160.11 36.5225 160.009 31.292V28.1689C160.009 22.7354 160.999 17.9492 162.979 13.8105C164.985 9.64648 167.842 6.43457 171.549 4.1748C175.281 1.91504 179.521 0.785156 184.27 0.785156C188.967 0.785156 193.156 1.90234 196.838 4.13672C200.52 6.37109 203.376 9.55762 205.407 13.6963C207.464 17.8096 208.505 22.5322 208.53 27.8643V30.416ZM194.934 28.0928C194.934 22.583 194.007 18.4062 192.153 15.5625C190.325 12.6934 187.697 11.2588 184.27 11.2588C177.566 11.2588 174.024 16.2861 173.644 26.3408L173.605 30.416C173.605 35.8496 174.507 40.0264 176.31 42.9463C178.112 45.8662 180.791 47.3262 184.346 47.3262C187.723 47.3262 190.325 45.8916 192.153 43.0225C193.981 40.1533 194.908 36.0273 194.934 30.6445V28.0928ZM239.913 38.0713H217.023V28.1309H239.913V38.0713ZM296.89 57H283.598V33.8438H263.907V57H250.539V1.54688H263.907V23.5605H283.598V1.54688H296.89V57ZM348.877 1.54688V37.8428C348.877 41.9561 348.001 45.5234 346.249 48.5449C344.497 51.541 341.983 53.8262 338.708 55.4004C335.433 56.9746 331.561 57.7617 327.092 57.7617C320.338 57.7617 315.019 56.0098 311.134 52.5059C307.249 49.002 305.269 44.2031 305.192 38.1094V1.54688H318.637V38.376C318.789 44.4443 321.607 47.4785 327.092 47.4785C329.859 47.4785 331.954 46.7168 333.376 45.1934C334.798 43.6699 335.509 41.1943 335.509 37.7666V1.54688H348.877ZM357.256 57V1.54688H377.175C384.31 1.54688 389.73 2.85449 393.438 5.46973C397.17 8.08496 399.036 11.8809 399.036 16.8574C399.036 19.7266 398.376 22.1768 397.056 24.208C395.735 26.2393 393.793 27.7373 391.229 28.7021C394.123 29.4639 396.345 30.8857 397.894 32.9678C399.442 35.0498 400.217 37.5889 400.217 40.585C400.217 46.0186 398.49 50.1064 395.037 52.8486C391.609 55.5654 386.519 56.9492 379.765 57H357.256ZM370.624 33.4248V46.7168H379.384C381.796 46.7168 383.649 46.1709 384.944 45.0791C386.239 43.9619 386.887 42.4004 386.887 40.3945C386.887 35.7734 384.589 33.4502 379.993 33.4248H370.624ZM370.624 24.665H377.594C380.514 24.6396 382.596 24.1064 383.84 23.0654C385.084 22.0244 385.706 20.4883 385.706 18.457C385.706 16.1211 385.033 14.4453 383.688 13.4297C382.342 12.3887 380.171 11.8682 377.175 11.8682H370.624V24.665Z" fill="#E0E1E1"/>
</svg>
