<svg width="799" height="534" viewBox="0 0 799 534" fill="none" xmlns="http://www.w3.org/2000/svg">
<path d="M118.539 28.5916L100.633 84.3756C95.1135 101.654 78.9855 113.255 61.0178 113.008L40.5972 112.761C12.9405 112.391 -6.49894 85.1778 2.02497 58.6434L6.80818 43.6483C12.3273 26.3701 28.4552 14.769 46.4229 15.0158L109.402 15.818C115.963 15.9414 120.501 22.3591 118.539 28.5916Z" fill="#FCBE32"/>
<path d="M53.063 273.3L111.404 92.7578C129.636 36.8758 181.987 -0.769623 240.589 0.0119435L307.004 0.923771C397.121 2.09612 460.411 90.2828 432.673 175.995L417.046 224.452C398.944 280.334 346.593 317.849 287.991 317.197L82.7546 314.592C61.5277 314.201 46.5517 293.49 53.063 273.3Z" fill="#092156"/>
<path d="M331.878 480.154L402.46 261.706C424.338 194.101 487.628 148.64 558.602 149.552L638.951 150.594C747.951 152.027 824.524 258.58 790.925 362.398L771.912 421.016C750.034 488.621 686.744 534.082 615.771 533.17L367.56 529.914C342.035 529.653 323.934 504.513 331.878 480.154Z" fill="#092156"/>
<path d="M354.928 366.306L321.721 469.212C311.433 500.996 281.611 522.489 248.143 521.968L210.377 521.447C159.068 520.795 122.995 470.515 138.753 421.667L147.738 394.051C158.026 362.268 187.848 340.775 221.316 341.296L338.259 342.859C350.24 342.989 358.705 354.843 354.928 366.306Z" fill="#FC0D0D"/>
</svg>
