<svg width="202" height="66" viewBox="0 0 202 66" fill="none" xmlns="http://www.w3.org/2000/svg">
<path d="M99.6402 25.6667C99.6402 27.8098 97.9638 29.5779 95.7637 29.5779H94.0873V33.1677H91.5205V21.809H95.7113C97.9114 21.809 99.6402 23.5235 99.6402 25.6667ZM97.0733 25.6667C97.0733 24.863 96.4971 24.22 95.7113 24.22H94.035V27.1669H95.7113C96.4971 27.1669 97.0733 26.5239 97.0733 25.6667Z" fill="#092156"/>
<path d="M100.373 27.4884C100.373 24.1665 102.94 21.5947 106.136 21.5947C109.331 21.5947 111.898 24.1665 111.898 27.4884C111.898 30.8103 109.331 33.3821 106.136 33.3821C102.94 33.3821 100.373 30.8103 100.373 27.4884ZM109.384 27.4884C109.384 25.4524 107.969 24.1129 106.136 24.1129C104.302 24.1129 102.888 25.4524 102.888 27.4884C102.888 29.5244 104.302 30.8639 106.136 30.8639C107.969 30.8639 109.384 29.5244 109.384 27.4884Z" fill="#092156"/>
<path d="M112.841 27.4884C112.841 24.1665 115.251 21.5947 118.603 21.5947C120.646 21.5947 122.375 22.6127 123.37 24.22L121.17 25.5059C120.699 24.6487 119.703 24.1129 118.603 24.1129C116.613 24.1129 115.355 25.4524 115.355 27.4884C115.355 29.5244 116.613 30.8639 118.603 30.8639C119.756 30.8639 120.699 30.3281 121.17 29.4708L123.37 30.7567C122.427 32.3641 120.646 33.3821 118.603 33.3821C115.303 33.3821 112.841 30.8103 112.841 27.4884Z" fill="#092156"/>
<path d="M123.947 27.4884C123.947 24.1665 126.356 21.5947 129.709 21.5947C131.752 21.5947 133.481 22.6127 134.476 24.22L132.276 25.5059C131.804 24.6487 130.809 24.1129 129.709 24.1129C127.718 24.1129 126.461 25.4524 126.461 27.4884C126.461 29.5244 127.718 30.8639 129.709 30.8639C130.862 30.8639 131.804 30.3281 132.276 29.4708L134.476 30.7567C133.533 32.3641 131.752 33.3821 129.709 33.3821C126.409 33.3821 123.947 30.8103 123.947 27.4884Z" fill="#092156"/>
<path d="M141.915 27.0061L137.619 33.1677H135.733V21.809H138.3V27.9706L142.596 21.809H144.481V33.1677H141.915V27.0061Z" fill="#092156"/>
<path d="M152.549 27.0062L148.253 33.1678H146.367V21.809H148.934V27.9706L153.23 21.809H155.116V33.1678H152.549V27.0062ZM148.358 18.7014H153.125V20.791H148.358V18.7014Z" fill="#092156"/>
<path d="M156.53 27.4884C156.53 24.1665 158.94 21.5947 162.292 21.5947C164.335 21.5947 166.064 22.6127 167.059 24.22L164.859 25.5059C164.388 24.6487 163.393 24.1129 162.292 24.1129C160.302 24.1129 159.045 25.4524 159.045 27.4884C159.045 29.5244 160.302 30.8639 162.292 30.8639C163.445 30.8639 164.388 30.3281 164.859 29.4708L167.059 30.7567C166.117 32.3641 164.335 33.3821 162.292 33.3821C158.94 33.3821 156.53 30.8103 156.53 27.4884Z" fill="#092156"/>
<path d="M174.341 33.1677L170.779 27.917V33.1677H168.212V21.809H170.779V26.7382L174.184 21.809H177.065L173.346 27.3276L177.275 33.1677H174.341Z" fill="#092156"/>
<path d="M176.751 27.4884C176.751 24.1665 179.318 21.5947 182.513 21.5947C185.708 21.5947 188.275 24.1665 188.275 27.4884C188.275 30.8103 185.708 33.3821 182.513 33.3821C179.37 33.3821 176.751 30.8103 176.751 27.4884ZM185.813 27.4884C185.813 25.4524 184.399 24.1129 182.565 24.1129C180.732 24.1129 179.318 25.4524 179.318 27.4884C179.318 29.5244 180.732 30.8639 182.565 30.8639C184.346 30.8639 185.813 29.5244 185.813 27.4884Z" fill="#092156"/>
<path d="M189.794 27.1133H195.819V29.4708H189.794V27.1133Z" fill="#092156"/>
<path d="M102.678 48.92H100.112V42.2762L97.2305 47.0984H96.9685L94.0874 42.2762V48.8665H91.5205V37.5077H94.0874L97.1257 42.5441L100.164 37.5077H102.731V48.92H102.678Z" fill="#092156"/>
<path d="M104.092 43.1871C104.092 39.8652 106.659 37.2934 109.855 37.2934C113.05 37.2934 115.617 39.8652 115.617 43.1871C115.617 46.509 113.05 49.0808 109.855 49.0808C106.659 49.0808 104.092 46.5626 104.092 43.1871ZM113.103 43.1871C113.103 41.1511 111.688 39.8116 109.855 39.8116C108.021 39.8116 106.607 41.1511 106.607 43.1871C106.607 45.2231 108.021 46.5626 109.855 46.5626C111.688 46.6162 113.103 45.2231 113.103 43.1871Z" fill="#092156"/>
<path d="M115.67 46.4554C116.822 46.6161 117.503 46.2947 117.503 44.3658V37.5077H125.204V48.8665H122.637V40.0259H120.018V44.2587C120.018 48.3307 117.66 49.0808 115.617 48.8665V46.4554H115.67Z" fill="#092156"/>
<path d="M136.99 46.4018V51.0632H134.423V48.8665H128.871V51.0632H126.304V46.4018H127.456C127.98 45.6517 128.347 44.5801 128.347 42.6513V37.5077H135.785V46.4018H136.99ZM133.271 46.4018V39.9723H130.914V42.6513C130.914 44.5266 130.599 45.6517 130.18 46.4018H133.271Z" fill="#092156"/>
<path d="M144.953 47.0984H140.814L140.238 48.8665H137.462L141.234 37.5077H144.481L148.253 48.8665H145.477L144.953 47.0984ZM144.219 44.6873L142.91 40.5081L141.6 44.6873H144.219Z" fill="#092156"/>
<path d="M157.525 45.5446C157.525 47.5806 155.901 48.8665 153.911 48.8665H149.248V37.5077H153.596C155.535 37.5077 157.106 38.7936 157.106 40.776C157.106 41.7404 156.739 42.4906 156.111 43.0263C156.949 43.5086 157.525 44.4194 157.525 45.5446ZM151.763 39.9723V42.0083H153.596C154.173 42.0083 154.592 41.5797 154.592 40.9903C154.592 40.401 154.225 39.9723 153.596 39.9723H151.763ZM154.958 45.3838C154.958 44.7409 154.539 44.3122 153.911 44.3122H151.763V46.509H153.911C154.539 46.4554 154.958 46.0268 154.958 45.3838Z" fill="#092156"/>
<path d="M158.311 43.1871C158.311 39.8652 160.721 37.2934 164.073 37.2934C166.116 37.2934 167.845 38.3114 168.84 39.9188L166.64 41.2047C166.169 40.3474 165.174 39.8116 164.073 39.8116C162.083 39.8116 160.826 41.1511 160.826 43.1871C160.826 45.2231 162.083 46.5626 164.073 46.5626C165.226 46.5626 166.169 46.0268 166.64 45.1695L168.84 46.4554C167.898 48.0628 166.116 49.0808 164.073 49.0808C160.721 49.1344 158.311 46.5626 158.311 43.1871Z" fill="#092156"/>
<path d="M176.122 48.92L172.56 43.6693V48.92H169.993V37.5077H172.56V42.437L175.965 37.5077H178.846L175.074 43.0263L179.003 48.8665H176.122V48.92Z" fill="#092156"/>
<path d="M186.18 42.7049L181.884 48.8665H179.999V37.5077H182.565V43.6693L186.861 37.5077H188.747V48.8665H186.18V42.7049Z" fill="#092156"/>
<path d="M196.814 42.7049L192.518 48.8665H190.633V37.5077H193.199V43.6693L197.495 37.5077H199.381V48.8665H196.814V42.7049ZM192.623 34.4537H197.39V36.5433H192.623V34.4537Z" fill="#092156"/>
<path d="M98.3827 63.6007V64.9402H95.8682V63.6007C92.8299 63.2257 90.8916 61.5111 90.8916 58.9393C90.8916 56.3675 92.8823 54.653 95.8682 54.278V52.9385H98.3303V54.278C101.369 54.653 103.307 56.3675 103.307 58.9393C103.359 61.5111 101.369 63.2257 98.3827 63.6007ZM95.8682 61.2432V56.6354C94.1919 56.8498 93.4061 57.6534 93.4061 58.9393C93.4585 60.2252 94.2443 61.0289 95.8682 61.2432ZM100.792 58.9393C100.792 57.6534 100.007 56.8498 98.3303 56.6354V61.2432C100.007 61.0289 100.792 60.2252 100.792 58.9393Z" fill="#092156"/>
<path d="M104.145 58.9394C104.145 55.6175 106.712 53.0457 109.908 53.0457C113.103 53.0457 115.67 55.6175 115.67 58.9394C115.67 62.2613 113.103 64.8331 109.908 64.8331C106.712 64.8331 104.145 62.3148 104.145 58.9394ZM113.155 58.9394C113.155 56.9034 111.741 55.5639 109.908 55.5639C108.074 55.5639 106.66 56.9034 106.66 58.9394C106.66 60.9754 108.074 62.3148 109.908 62.3148C111.741 62.3148 113.155 60.9754 113.155 58.9394Z" fill="#092156"/>
<path d="M125.256 57.1713C125.256 59.3144 123.58 61.0826 121.38 61.0826H119.703V64.6724H117.136V53.26H121.327C123.527 53.26 125.256 54.9745 125.256 57.1713ZM122.689 57.1713C122.689 56.3676 122.113 55.7246 121.327 55.7246H119.651V58.6715H121.327C122.113 58.6179 122.689 57.975 122.689 57.1713Z" fill="#092156"/>
<path d="M134.633 53.26L131.438 61.2969C130.442 63.7615 128.871 64.7795 126.775 64.6188V62.1541C127.928 62.2613 128.557 61.8327 128.976 61.029L125.413 53.2064H127.98L130.18 58.1893L132.119 53.2064H134.633V53.26Z" fill="#092156"/>
<path d="M146.839 64.6188H144.272V58.0286L141.391 62.8507H141.129L138.248 58.0286V64.6188H135.681V53.26H138.248L141.286 58.2964L144.324 53.26H146.891V64.6188H146.839Z" fill="#092156"/>
<path d="M155.168 55.4036C155.168 56.4752 154.382 57.386 153.23 57.386C152.549 57.386 151.92 57.011 151.606 56.4752L151.868 56.3144C152.129 56.7966 152.601 57.1181 153.23 57.1181C154.172 57.1181 154.801 56.4216 154.853 55.5643H152.758V55.2964H154.853C154.801 54.4392 154.172 53.7426 153.23 53.7426C152.653 53.7426 152.129 54.0641 151.868 54.5463L151.606 54.3856C151.92 53.8498 152.496 53.4747 153.177 53.4747C154.382 53.4747 155.168 54.332 155.168 55.4036Z" fill="#092156"/>
<path d="M157.997 57.3319L156.111 55.4566V57.3319H155.849V53.5278H156.111V55.2959L157.944 53.5278H158.311L156.425 55.3495L158.363 57.2783H157.997V57.3319Z" fill="#092156"/>
<path d="M158.363 55.403C158.363 54.3314 159.201 53.4206 160.302 53.4206C161.349 53.4206 162.24 54.2779 162.24 55.403C162.24 56.4746 161.402 57.3854 160.302 57.3854C159.201 57.3854 158.363 56.5282 158.363 55.403ZM161.925 55.403C161.925 54.4922 161.192 53.7421 160.302 53.7421C159.411 53.7421 158.678 54.4922 158.678 55.403C158.678 56.3139 159.411 57.064 160.302 57.064C161.192 57.064 161.925 56.3674 161.925 55.403Z" fill="#092156"/>
<path d="M165.645 53.5278V57.3319H165.383V55.5102H163.235V57.3319H162.921V53.5278H163.183V55.2423H165.331V53.5278H165.645Z" fill="#092156"/>
<path d="M166.326 55.403C166.326 54.3314 167.164 53.4206 168.264 53.4206C169.364 53.4206 170.202 54.2779 170.202 55.403C170.202 56.4746 169.364 57.3854 168.264 57.3854C167.164 57.3854 166.326 56.5282 166.326 55.403ZM169.888 55.403C169.888 54.4922 169.155 53.7421 168.264 53.7421C167.374 53.7421 166.64 54.4922 166.64 55.403C166.64 56.3139 167.374 57.064 168.264 57.064C169.155 57.064 169.888 56.3674 169.888 55.403Z" fill="#092156"/>
<path d="M174.236 57.3319H173.974V53.9564L172.612 56.3139H172.559L171.197 53.9564V57.3319H170.936V53.5278H171.302L172.612 55.7781L173.921 53.5278H174.288V57.3319H174.236Z" fill="#092156"/>
<path d="M177.588 54.0636L175.388 57.3319H175.126V53.5278H175.388V56.7961L177.588 53.5278H177.85V57.3319H177.588V54.0636Z" fill="#092156"/>
<path d="M181.203 53.5278V57.3319H180.941V55.6709C180.574 55.8317 180.26 55.9388 179.893 55.9388C179.16 55.9388 178.741 55.4566 178.741 54.8673V53.5278H179.003V54.8673C179.003 55.3495 179.317 55.6709 179.893 55.6709C180.26 55.6709 180.574 55.6174 180.941 55.403V53.5278H181.203Z" fill="#092156"/>
<path d="M184.294 57.064V57.3319H182.146V53.5278H184.241V53.7957H182.408V55.2959H184.084V55.5638H182.408V57.064H184.294Z" fill="#092156"/>
<path d="M184.713 55.403C184.713 54.3314 185.499 53.4206 186.651 53.4206C187.332 53.4206 187.961 53.7956 188.223 54.3314L187.961 54.4922C187.699 54.01 187.227 53.6885 186.599 53.6885C185.604 53.6885 184.923 54.4386 184.923 55.3494C184.923 56.2603 185.604 57.0104 186.599 57.0104C187.175 57.0104 187.699 56.6889 187.961 56.2067L188.223 56.3674C187.908 56.9032 187.332 57.2783 186.599 57.2783C185.551 57.3854 184.713 56.5282 184.713 55.403Z" fill="#092156"/>
<path d="M191.051 57.3319L189.166 55.4566V57.3319H188.904V53.5278H189.166V55.2959L190.999 53.5278H191.366L189.48 55.3495L191.418 57.2783H191.051V57.3319Z" fill="#092156"/>
<path d="M191.418 55.403C191.418 54.3314 192.256 53.4206 193.356 53.4206C194.404 53.4206 195.295 54.2779 195.295 55.403C195.295 56.4746 194.457 57.3854 193.356 57.3854C192.256 57.3854 191.418 56.5282 191.418 55.403ZM194.98 55.403C194.98 54.4922 194.247 53.7421 193.356 53.7421C192.466 53.7421 191.732 54.4922 191.732 55.403C191.732 56.3139 192.466 57.064 193.356 57.064C194.247 57.064 194.98 56.3674 194.98 55.403Z" fill="#092156"/>
<path d="M198.019 53.7957H196.29V57.3319H196.028V53.5278H198.071V53.7957H198.019Z" fill="#092156"/>
<path d="M198.124 55.403C198.124 54.3314 198.962 53.4206 200.062 53.4206C201.109 53.4206 202 54.2779 202 55.403C202 56.4746 201.162 57.3854 200.062 57.3854C198.962 57.3854 198.124 56.5282 198.124 55.403ZM201.686 55.403C201.686 54.4922 200.952 53.7421 200.062 53.7421C199.171 53.7421 198.438 54.4922 198.438 55.403C198.438 56.3139 199.171 57.064 200.062 57.064C200.952 57.064 201.686 56.3674 201.686 55.403Z" fill="#092156"/>
<path d="M151.658 62.797C151.658 61.7254 152.444 60.8146 153.596 60.8146C154.277 60.8146 154.906 61.1896 155.168 61.7254L154.906 61.8862C154.644 61.4039 154.172 61.0825 153.544 61.0825C152.549 61.0825 151.868 61.8326 151.868 62.7434C151.868 63.6543 152.549 64.4044 153.544 64.4044C154.12 64.4044 154.644 64.0829 154.906 63.6007L155.168 63.7614C154.853 64.2972 154.277 64.6723 153.544 64.6723C152.496 64.7259 151.658 63.8686 151.658 62.797Z" fill="#092156"/>
<path d="M155.692 62.797C155.692 61.7254 156.53 60.8146 157.63 60.8146C158.678 60.8146 159.568 61.6718 159.568 62.797C159.568 63.9222 158.73 64.7794 157.63 64.7794C156.53 64.7259 155.692 63.8686 155.692 62.797ZM159.201 62.797C159.201 61.8862 158.468 61.136 157.577 61.136C156.687 61.136 155.954 61.8862 155.954 62.797C155.954 63.7078 156.687 64.458 157.577 64.458C158.468 64.458 159.201 63.7078 159.201 62.797Z" fill="#092156"/>
<path d="M162.292 61.136H161.14V64.6722H160.825V61.136H159.673V60.8681H162.292V61.136Z" fill="#092156"/>
<path d="M165.278 62.0468C165.278 62.6898 164.807 63.2256 164.126 63.2256H163.13V64.6722H162.868V60.8681H164.126C164.807 60.8681 165.278 61.4039 165.278 62.0468ZM165.016 62.0468C165.016 61.5111 164.649 61.136 164.126 61.136H163.13V62.9577H164.126C164.649 62.9577 165.016 62.5826 165.016 62.0468Z" fill="#092156"/>
<path d="M168.316 60.8682L167.059 63.815C166.797 64.458 166.431 64.6723 165.907 64.6187V64.3508C166.326 64.4044 166.588 64.1901 166.745 63.7614L166.797 63.6007L165.488 60.8146H165.802L166.954 63.2792L168.002 60.8146H168.316V60.8682Z" fill="#092156"/>
<path d="M171.564 64.4044V65.4224H171.302V64.6723H168.526V65.4224H168.264V64.4044H168.578C168.788 64.1901 168.945 63.7614 168.945 63.0649V60.9218H171.25V64.458H171.564V64.4044ZM168.84 64.4044H170.883V61.1361H169.155V63.0113C169.155 63.7614 168.998 64.1365 168.84 64.4044Z" fill="#092156"/>
<path d="M174.917 60.8681V64.6722H174.655V62.8505H172.507V64.6722H172.245V60.8681H172.507V62.5826H174.655V60.8681H174.917Z" fill="#092156"/>
<path d="M178.322 61.4039L176.122 64.6722H175.86V60.8681H176.122V64.1364L178.322 60.8681H178.584V64.6722H178.322V61.4039Z" fill="#092156"/>
<path d="M181.937 60.8681V64.6722H181.675V63.0113C181.308 63.172 180.994 63.2792 180.627 63.2792C179.894 63.2792 179.475 62.797 179.475 62.2076V60.8681H179.736V62.2076C179.736 62.6898 180.051 63.0113 180.627 63.0113C180.994 63.0113 181.308 62.9577 181.675 62.7434V60.8681H181.937Z" fill="#092156"/>
<path d="M184.975 64.4043V64.6722H182.827V60.8681H184.923V61.136H183.089V62.6362H184.765V62.9041H183.089V64.4043H184.975Z" fill="#092156"/>
<path d="M185.446 62.797C185.446 61.7254 186.232 60.8146 187.384 60.8146C188.066 60.8146 188.694 61.1896 188.956 61.7254L188.694 61.8862C188.432 61.4039 187.961 61.0825 187.332 61.0825C186.337 61.0825 185.656 61.8326 185.656 62.7434C185.656 63.6543 186.337 64.4044 187.332 64.4044C187.908 64.4044 188.432 64.0829 188.694 63.6007L188.956 63.7614C188.642 64.2972 188.066 64.6723 187.332 64.6723C186.232 64.7259 185.446 63.8686 185.446 62.797Z" fill="#092156"/>
<path d="M191.837 61.136H190.685V64.6722H190.423V61.136H189.27V60.8681H191.89V61.136H191.837Z" fill="#092156"/>
<path d="M195.033 63.6542C195.033 64.2436 194.561 64.6722 194.037 64.6722H192.413V60.8681H193.88C194.404 60.8681 194.876 61.2967 194.876 61.8861C194.876 62.2612 194.666 62.5826 194.404 62.6898C194.771 62.8505 195.033 63.2256 195.033 63.6542ZM192.728 61.136V62.5826H193.933C194.299 62.5826 194.614 62.2612 194.614 61.8325C194.614 61.4039 194.299 61.0824 193.933 61.0824H192.728V61.136ZM194.771 63.6542C194.771 63.2256 194.456 62.9041 194.037 62.9041H192.728V64.4579H194.037C194.456 64.4043 194.771 64.0829 194.771 63.6542Z" fill="#092156"/>
<path d="M197.862 63.7078H195.976L195.609 64.6722H195.295L196.761 60.8681H197.076L198.49 64.6722H198.176L197.862 63.7078ZM197.757 63.4399L196.919 61.2432L196.08 63.4399H197.757Z" fill="#092156"/>
<path d="M78.0046 22.2376C76.2759 27.7562 71.1946 31.5068 65.4846 31.3996L45.6307 31.1317C43.5877 31.0781 42.1209 29.0421 42.7495 27.0597L48.4071 9.16427C50.1358 3.64562 55.2172 -0.10492 60.9271 0.00223809L67.3705 0.109396C76.1188 0.216555 82.1954 8.94995 79.5238 17.4155L78.0046 22.2376Z" fill="#092156"/>
<path d="M46.8882 4.34232L41.2306 22.2378C39.5019 27.7564 34.4206 31.5069 28.7106 31.3998L22.2672 31.2926C13.6237 31.1855 7.49466 22.4521 10.1663 13.9866L11.6855 9.16444C13.4142 3.64579 18.4955 -0.0511733 24.2055 0.00240582L44.0594 0.270302C46.1024 0.270302 47.5168 2.35989 46.8882 4.34232Z" fill="#FCBE32"/>
<path d="M33.268 60.6002L38.9256 42.7048C40.6543 37.1861 45.7357 33.4356 51.4456 33.5428L57.889 33.6499C66.6373 33.7571 72.714 42.4905 70.0423 50.956L68.5232 55.7781C66.7945 61.2968 61.7131 65.0473 56.0031 64.9401L36.1492 64.6722C34.1062 64.6722 32.6394 62.5827 33.268 60.6002Z" fill="#DADADA"/>
<path d="M37.3539 37.8827L31.6964 55.7781C29.9676 61.2968 24.8863 65.0473 19.1763 64.9401L12.7854 64.833C4.08946 64.7258 -2.03959 55.9924 0.632048 47.5269L2.15121 42.7048C3.87992 37.1861 8.96126 33.4356 14.6712 33.5428L34.5251 33.8107C36.5682 33.8642 38.0349 35.9002 37.3539 37.8827Z" fill="#FC0D0D"/>
</svg>
