<?xml version="1.0" encoding="utf-8"?>
<!-- Generator: Adobe Illustrator 21.0.0, SVG Export Plug-In . SVG Version: 6.00 Build 0)  -->
<svg version="1.1" id="Layer_1" xmlns="http://www.w3.org/2000/svg" xmlns:xlink="http://www.w3.org/1999/xlink" x="0px" y="0px"
	 viewBox="0 0 116 67.5" style="enable-background:new 0 0 116 67.5;" xml:space="preserve">
<style type="text/css">
	.st0{fill:#515254;}
	.st1{fill:#F15F35;}
	.st2{fill:#DF1832;}
	.st3{fill:#F3775F;}
	.st4{fill:#007455;}
	.st5{fill:#369672;}
	.st6{fill:#00799B;}
	.st7{fill:#F15D5F;}
	.st8{fill:#488CA7;}
	.st9{fill:#F47A42;}
	.st10{fill:#BA5080;}
	.st11{fill:#7C78A1;}
	.st12{fill:#448A31;}
	.st13{fill:#47A848;}
	.st14{fill:#CB7394;}
	.st15{fill:#98174B;}
	.st16{fill:#63BC55;}
	.st17{fill:#293896;}
	.st18{fill-rule:evenodd;clip-rule:evenodd;fill:#293896;}
	.st19{fill-rule:evenodd;clip-rule:evenodd;fill:#ED1C24;}
	.st20{fill:none;stroke:#FFFFFF;stroke-width:1.8286;stroke-miterlimit:22.9256;}
	.st21{fill-rule:evenodd;clip-rule:evenodd;fill:#FFFFFF;}
	.st22{fill:none;stroke:#293896;stroke-width:0.8942;stroke-miterlimit:22.9256;}
	.st23{fill:none;stroke:#ED1C24;stroke-width:0.8942;stroke-miterlimit:22.9256;}
	.st24{fill:#D4A62B;}
	.st25{fill:#FCD603;}
	.st26{fill:#D12528;}
	.st27{fill:#FEFDFB;}
	.st28{fill:#344D9D;}
</style>
<g>
	<g>
		<ellipse class="st24" cx="58.5" cy="22.7" rx="22.1" ry="22.7"/>
		<g>
			<path class="st25" d="M58.6,6.1c0.7,1.9,1.7,3.3,2.5,4.9c0.7,1.4,1,2.9,0.1,4.4c-0.6,1-1.8,1.3-2.5,2.1c-0.1,0.1-0.2,0-0.3-0.1
				c-0.6-0.8-1.6-1.1-2.2-1.9c-0.9-1.1-0.8-2.4-0.5-3.7c0.2-0.6,0.5-1.2,0.9-1.7C57.4,9,58,7.7,58.6,6.1z"/>
			<path class="st26" d="M59.1,39.4c0-1.4-0.1-2.7,0-4.1c0.2-1.7,1.2-2.9,2.6-3.8c1.6-0.9,3.2-1.7,4.3-3.5c0,1.7,0.1,3.2,0,4.7
				c-0.1,1.2-0.8,2.1-1.8,2.8c-0.9,0.6-1.9,1.2-2.8,1.8C60.5,37.9,59.7,38.5,59.1,39.4z"/>
			<path class="st27" d="M59.1,25.2c0-1.3-0.1-2.5,0-3.8c0.1-1.5,0.8-2.7,2-3.6c0.8-0.5,1.6-1,2.3-1.5c0.9-0.6,1.9-1.3,2.5-2.5
				c0,1.7,0.1,3.2,0,4.7c-0.1,1.3-0.9,2.2-1.9,2.9c-0.8,0.5-1.6,1-2.4,1.5C60.6,23.6,59.7,24.2,59.1,25.2z"/>
			<path class="st28" d="M65.9,21.1c0,1.6,0.1,3.1,0,4.5c-0.1,1.3-0.9,2.3-2,3c-0.8,0.6-1.7,1.1-2.6,1.6c-0.9,0.5-1.7,1.2-2.3,2.3
				c0-1.5-0.1-2.8,0-4.1c0.1-1.8,1.2-3.1,2.7-4C63.3,23.5,64.9,22.7,65.9,21.1z"/>
			<path class="st25" d="M58.2,32.5c-1.1-2-3-2.6-4.6-3.7c-1.5-1-2.5-2.2-2.4-4.2c0.1-1.1,0-2.3,0-3.6c1.1,1.7,2.6,2.5,4.1,3.3
				c1.9,1.1,2.8,2.6,2.8,4.8C58.2,30.2,58.2,31.2,58.2,32.5z"/>
			<path class="st25" d="M58.2,25.2c-0.8-1.3-2.1-1.9-3.2-2.6c-1-0.7-2.2-1.1-2.9-2.2c-0.6-0.8-0.9-1.7-0.8-2.7c0-1.2,0-2.4,0-3.7
				c1.1,1.7,2.7,2.5,4.2,3.4c1.8,1.1,2.9,2.6,2.8,4.9C58.1,23.2,58.2,24.2,58.2,25.2z"/>
			<path class="st25" d="M58.2,39.6c-1-1.8-2.7-2.4-4.1-3.4c-0.7-0.5-1.4-0.8-1.9-1.5c-0.6-0.9-0.9-1.8-0.9-2.9c0-1.1,0-2.2,0-3.6
				c1.2,1.7,2.8,2.5,4.4,3.4c1.7,1,2.6,2.5,2.6,4.6C58.2,37.3,58.2,38.4,58.2,39.6z"/>
		</g>
	</g>
	<g>
		<path d="M6.3,53c-0.1-1-0.1-2.2-0.1-3.1h0c-0.2,0.9-0.6,1.8-0.9,2.8L4,56.2H3.3l-1.2-3.5c-0.3-1-0.6-2-0.8-2.8h0
			c0,0.9-0.1,2.1-0.1,3.2l-0.2,3.1H0l0.5-7.3h1.2l1.2,3.5c0.3,0.9,0.5,1.7,0.7,2.4h0c0.2-0.7,0.4-1.5,0.8-2.4l1.3-3.5H7l0.5,7.3H6.5
			L6.3,53z"/>
		<path d="M9.7,51v2.2c0,0.8,0,1.3-0.1,2.1l0,0c0.3-0.6,0.5-1,0.8-1.6l1.6-2.7h1.1v5.2h-0.9V54c0-0.9,0-1.3,0.1-2.1h0
			c-0.3,0.7-0.6,1.1-0.9,1.6c-0.5,0.8-1.1,1.8-1.6,2.7H8.8V51H9.7z"/>
		<path d="M15.7,51v2.1h2.5V51h0.9v5.2h-0.9v-2.4h-2.5v2.4h-0.9V51H15.7z"/>
		<path d="M21.6,51v2.2c0,0.8,0,1.3-0.1,2.1l0,0c0.3-0.6,0.5-1,0.8-1.6L24,51h1.1v5.2h-0.9V54c0-0.9,0-1.3,0.1-2.1h0
			c-0.3,0.7-0.6,1.1-0.9,1.6c-0.5,0.8-1.1,1.8-1.6,2.7h-1.1V51H21.6z"/>
		<path d="M30.4,56c-0.2,0.1-0.8,0.3-1.5,0.3c-1.6,0-2.6-1.1-2.6-2.7c0-1.6,1.1-2.8,2.8-2.8c0.6,0,1.1,0.1,1.3,0.3l-0.2,0.7
			c-0.2-0.1-0.6-0.2-1.1-0.2c-1.2,0-1.8,0.9-1.8,2c0,1.2,0.8,2,1.8,2c0.5,0,0.9-0.1,1.2-0.3L30.4,56z"/>
		<path d="M35.2,51v0.8h-1.6v4.5h-0.9v-4.5H31V51H35.2z"/>
		<path d="M36.4,53.8c0,1.3,0.8,1.8,1.8,1.8c0.7,0,1.1-0.1,1.4-0.3l0.2,0.7c-0.3,0.2-0.9,0.3-1.7,0.3c-1.6,0-2.6-1.1-2.6-2.6
			s0.9-2.8,2.4-2.8c1.7,0,2.2,1.5,2.2,2.5c0,0.2,0,0.3,0,0.4H36.4z M39.2,53.1c0-0.6-0.2-1.5-1.3-1.5c-1,0-1.4,0.9-1.5,1.5H39.2z"/>
		<path d="M41.3,52.7c0-0.7,0-1.2,0-1.7h0.9l0,0.9h0c0.4-0.6,1-1,1.9-1c1.3,0,2.2,1.1,2.2,2.7c0,1.9-1.1,2.8-2.4,2.8
			c-0.7,0-1.3-0.3-1.6-0.8h0v2.8h-0.9V52.7z M42.2,54.1c0,0.1,0,0.3,0,0.4c0.2,0.7,0.7,1.1,1.4,1.1c1,0,1.6-0.8,1.6-2
			c0-1-0.6-1.9-1.6-1.9c-0.6,0-1.3,0.5-1.4,1.2c0,0.1-0.1,0.3-0.1,0.4V54.1z"/>
		<path d="M51.2,56c-0.2,0.1-0.8,0.3-1.5,0.3c-1.6,0-2.6-1.1-2.6-2.7c0-1.6,1.1-2.8,2.8-2.8c0.6,0,1.1,0.1,1.3,0.3L51,51.9
			c-0.2-0.1-0.6-0.2-1.1-0.2c-1.2,0-1.8,0.9-1.8,2c0,1.2,0.8,2,1.8,2c0.5,0,0.9-0.1,1.2-0.3L51.2,56z"/>
		<path d="M56,51v0.8h-1.6v4.5h-0.9v-4.5h-1.6V51H56z"/>
		<path d="M56.8,51.1c0.4-0.1,1-0.1,1.7-0.1c0.9,0,2.3,0.1,2.3,1.3c0,0.6-0.5,1-1.1,1.2v0c0.8,0.1,1.3,0.5,1.3,1.3
			c0,1.4-1.7,1.5-2.8,1.5c-0.6,0-1.2,0-1.5-0.1V51.1z M57.7,55.6c0.3,0,0.5,0,0.8,0c0.6,0,1.6-0.2,1.6-0.9c0-0.8-0.8-0.9-1.7-0.9
			h-0.7V55.6z M57.7,53.2h0.7c0.7,0,1.4-0.2,1.4-0.8c0-0.5-0.5-0.8-1.4-0.8c-0.3,0-0.5,0-0.7,0V53.2z"/>
		<path d="M66.9,53.6c0,1.9-1.3,2.8-2.6,2.8c-1.4,0-2.5-1-2.5-2.7c0-1.7,1.1-2.8,2.6-2.8C65.9,50.9,66.9,52,66.9,53.6z M62.8,53.6
			c0,1.1,0.7,2,1.6,2c0.9,0,1.6-0.9,1.6-2c0-0.9-0.4-2-1.6-2S62.8,52.6,62.8,53.6z"/>
		<path d="M74.1,56c-0.2,0.1-0.8,0.3-1.5,0.3c-1.6,0-2.6-1.1-2.6-2.7c0-1.6,1.1-2.8,2.8-2.8c0.6,0,1.1,0.1,1.3,0.3l-0.2,0.7
			c-0.2-0.1-0.6-0.2-1.1-0.2c-1.2,0-1.8,0.9-1.8,2c0,1.2,0.8,2,1.8,2c0.5,0,0.9-0.1,1.2-0.3L74.1,56z"/>
		<path d="M75.7,53.8c0,1.3,0.8,1.8,1.8,1.8c0.7,0,1.1-0.1,1.4-0.3l0.2,0.7c-0.3,0.2-0.9,0.3-1.7,0.3c-1.6,0-2.6-1.1-2.6-2.6
			s0.9-2.8,2.4-2.8c1.7,0,2.2,1.5,2.2,2.5c0,0.2,0,0.3,0,0.4H75.7z M78.5,53.1c0-0.6-0.2-1.5-1.3-1.5c-1,0-1.4,0.9-1.5,1.5H78.5z"/>
		<path d="M84.6,51v5.2h-0.9v-4.5h-1.8v1.4c0,1.5-0.1,2.4-0.8,2.9c-0.3,0.2-0.5,0.3-1,0.3l-0.1-0.7c0.2,0,0.4-0.1,0.5-0.2
			c0.5-0.4,0.5-1.1,0.5-2.3V51H84.6z"/>
		<path d="M87,51v1.8c0.2,0,0.6-0.1,0.9-0.1c1.2,0,2.4,0.4,2.4,1.8c0,0.5-0.2,0.9-0.6,1.2c-0.6,0.5-1.5,0.6-2.3,0.6
			c-0.5,0-1,0-1.4-0.1V51H87z M87,55.6c0.2,0,0.4,0,0.7,0c0.7,0,1.6-0.2,1.6-1.1c0-0.9-1-1.1-1.7-1.1c-0.2,0-0.5,0-0.7,0.1V55.6z"/>
		<path d="M95.2,56c-0.2,0.1-0.8,0.3-1.5,0.3c-1.6,0-2.6-1.1-2.6-2.7c0-1.6,1.1-2.8,2.8-2.8c0.6,0,1.1,0.1,1.3,0.3L95,51.9
			c-0.2-0.1-0.6-0.2-1.1-0.2c-1.2,0-1.8,0.9-1.8,2c0,1.2,0.8,2,1.8,2c0.5,0,0.9-0.1,1.2-0.3L95.2,56z"/>
		<path d="M97.3,51v2.3h0.2l2-2.3h1.2l-2.3,2.4c0.8,0.1,1.3,0.6,1.8,1.6c0.1,0.3,0.3,0.9,0.6,1.3h-1c-0.1-0.2-0.3-0.6-0.5-1.1
			c-0.4-0.8-0.8-1.2-1.7-1.2h-0.2v2.3h-0.9V51H97.3z"/>
		<path d="M106.1,53.6c0,1.9-1.3,2.8-2.6,2.8c-1.4,0-2.5-1-2.5-2.7c0-1.7,1.1-2.8,2.6-2.8C105.1,50.9,106.1,52,106.1,53.6z
			 M102,53.6c0,1.1,0.7,2,1.6,2c0.9,0,1.6-0.9,1.6-2c0-0.9-0.4-2-1.6-2S102,52.6,102,53.6z"/>
		<path d="M110.5,51v0.8h-2.3v4.5h-0.9V51H110.5z"/>
		<path d="M116,53.6c0,1.9-1.3,2.8-2.6,2.8c-1.4,0-2.5-1-2.5-2.7c0-1.7,1.1-2.8,2.6-2.8C115,50.9,116,52,116,53.6z M111.9,53.6
			c0,1.1,0.7,2,1.6,2c0.9,0,1.6-0.9,1.6-2c0-0.9-0.4-2-1.6-2S111.9,52.6,111.9,53.6z"/>
		<path d="M29,62l0.7,1.1c0.2,0.3,0.4,0.6,0.5,0.9h0c0.2-0.3,0.3-0.6,0.5-0.9l0.7-1.1h1l-1.8,2.5l1.8,2.7h-1.1L30.8,66
			c-0.2-0.3-0.4-0.6-0.6-0.9h0c-0.2,0.3-0.4,0.6-0.6,0.9l-0.8,1.2h-1l1.9-2.7L28,62H29z"/>
		<path d="M38.2,64.6c0,1.9-1.3,2.8-2.6,2.8c-1.4,0-2.5-1-2.5-2.7c0-1.7,1.1-2.8,2.6-2.8C37.1,61.9,38.2,63,38.2,64.6z M34,64.6
			c0,1.1,0.7,2,1.6,2c0.9,0,1.6-0.9,1.6-2c0-0.9-0.4-2-1.6-2S34,63.6,34,64.6z"/>
		<path d="M39.8,64.2h0.5c0.8,0,1.3-0.4,1.3-0.9c0-0.5-0.4-0.8-1-0.8c-0.4,0-0.9,0.1-1.3,0.4l-0.2-0.6c0.5-0.3,1.1-0.5,1.7-0.5
			c0.8,0,1.8,0.4,1.8,1.4c0,0.6-0.6,1.1-1.2,1.2v0c0.8,0.1,1.4,0.5,1.4,1.3c0,1.1-1.2,1.6-2.3,1.6c-0.6,0-1.2-0.2-1.7-0.4l0.2-0.6
			c0.4,0.2,0.9,0.4,1.4,0.4c0.8,0,1.3-0.4,1.3-0.9c0-0.7-0.7-0.9-1.5-0.9h-0.5V64.2z"/>
		<path d="M47.9,67.2h-0.9V65h-0.7c-0.4,0-0.7,0.1-0.9,0.3c-0.4,0.3-0.5,1-0.7,1.5c-0.1,0.2-0.1,0.3-0.2,0.4h-1
			c0.1-0.2,0.2-0.4,0.3-0.6c0.2-0.5,0.4-1.2,0.8-1.6c0.2-0.1,0.4-0.3,0.6-0.3v0c-0.7-0.1-1.4-0.5-1.4-1.3c0-0.5,0.3-0.9,0.7-1.1
			c0.4-0.2,1.1-0.4,1.7-0.4c0.6,0,1.2,0.1,1.7,0.1V67.2z M46.9,62.6c-0.2,0-0.5-0.1-0.8-0.1c-0.6,0-1.4,0.2-1.4,0.9
			c0,0.7,0.8,0.9,1.4,0.9c0.4,0,0.6,0,0.8,0V62.6z"/>
		<path d="M50.3,62v2.2c0,0.8,0,1.3-0.1,2.1l0,0c0.3-0.6,0.5-1,0.8-1.6l1.6-2.7h1.1v5.2h-0.9V65c0-0.9,0-1.3,0.1-2.1h0
			c-0.3,0.7-0.6,1.1-0.9,1.6c-0.5,0.8-1.1,1.8-1.6,2.7h-1.1V62H50.3z M50.9,59.9c0,0.5,0.3,0.8,0.7,0.8c0.5,0,0.7-0.3,0.7-0.8H53
			c0,0.9-0.6,1.3-1.4,1.3c-0.9,0-1.3-0.6-1.4-1.3H50.9z"/>
		<path d="M59.1,67c-0.2,0.1-0.8,0.3-1.5,0.3c-1.6,0-2.6-1.1-2.6-2.7c0-1.6,1.1-2.8,2.8-2.8c0.6,0,1.1,0.1,1.3,0.3l-0.2,0.7
			c-0.2-0.1-0.6-0.2-1.1-0.2c-1.2,0-1.8,0.9-1.8,2c0,1.2,0.8,2,1.8,2c0.5,0,0.9-0.1,1.2-0.3L59.1,67z"/>
		<path d="M63.9,62v0.8h-1.6v4.5h-0.9v-4.5h-1.6V62H63.9z"/>
		<path d="M64.7,62.1c0.4-0.1,1-0.1,1.7-0.1c0.9,0,2.3,0.1,2.3,1.3c0,0.6-0.5,1-1.1,1.2v0c0.8,0.1,1.3,0.5,1.3,1.3
			c0,1.4-1.7,1.5-2.8,1.5c-0.6,0-1.2,0-1.5-0.1V62.1z M65.6,66.6c0.3,0,0.5,0,0.8,0c0.6,0,1.6-0.2,1.6-0.9c0-0.8-0.8-0.9-1.7-0.9
			h-0.7V66.6z M65.6,64.2h0.7c0.7,0,1.4-0.2,1.4-0.8c0-0.5-0.5-0.8-1.4-0.8c-0.3,0-0.5,0-0.7,0V64.2z"/>
		<path d="M73,67.2L73,66.6h0c-0.3,0.4-0.9,0.8-1.6,0.8c-1.1,0-1.6-0.7-1.6-1.5c0-1.3,1.1-2,3.1-1.9v-0.1c0-0.4-0.1-1.2-1.2-1.2
			c-0.5,0-1,0.2-1.4,0.4l-0.2-0.6c0.4-0.3,1.1-0.5,1.7-0.5c1.6,0,2,1.1,2,2.1v2c0,0.5,0,0.9,0.1,1.3H73z M72.9,64.5
			c-1,0-2.2,0.2-2.2,1.2c0,0.6,0.4,0.9,0.9,0.9c0.7,0,1.1-0.4,1.3-0.9c0-0.1,0.1-0.2,0.1-0.3V64.5z"/>
		<path d="M77.7,60c0.5-0.1,1-0.1,1.8-0.1c0.9,0,1.6,0.2,2,0.6c0.4,0.3,0.6,0.9,0.6,1.5c0,0.7-0.2,1.2-0.6,1.6
			c-0.5,0.5-1.3,0.8-2.2,0.8c-0.3,0-0.5,0-0.8-0.1v2.9h-0.9V60z M78.6,63.5c0.2,0.1,0.5,0.1,0.8,0.1c1.1,0,1.8-0.5,1.8-1.6
			c0-1-0.7-1.4-1.7-1.4c-0.4,0-0.7,0-0.9,0.1V63.5z"/>
		<path d="M86.8,59.7v0.6c1.5,0.1,3.1,1,3.1,3.3c0,2.3-1.5,3.2-3.1,3.2v0.7h-0.9v-0.7c-1.5-0.1-3.1-0.9-3.1-3.2
			c0-2.4,1.7-3.2,3.1-3.3v-0.6H86.8z M85.9,61c-0.9,0.1-2.1,0.7-2.1,2.6c0,1.7,1,2.5,2.1,2.6V61z M86.8,66.2c1-0.1,2.1-0.8,2.1-2.6
			c0-1.9-1.1-2.5-2.1-2.6V66.2z"/>
	</g>
</g>
</svg>
