<svg width="105" height="127" viewBox="0 0 105 127" fill="none" xmlns="http://www.w3.org/2000/svg">
<path d="M38.2064 31.4925L45.8712 10.6826C48.2337 4.23708 55.1373 -0.0906377 62.8284 0.00144135L71.5432 0.093519C83.3817 0.231638 91.7028 10.3834 88.0541 20.2819L86.0067 25.8757C83.6442 32.3212 76.7406 36.6489 69.0495 36.5568L42.0913 36.2576C39.3089 36.1885 37.3401 33.8175 38.2064 31.4925Z" fill="#092156"/>
<path d="M0.432155 115.092L16.2226 66.1136C21.1145 50.9861 35.295 40.7564 51.2093 41.0044L69.1671 41.2524C93.5649 41.5624 110.718 65.4936 103.225 88.7428L98.9522 101.886C94.0602 117.014 79.8798 127.244 63.9655 126.996L8.35833 126.252C2.66139 126.19 -1.36362 120.548 0.432155 115.092Z" fill="#FC0D0D"/>
</svg>
