<svg width="143" height="86" viewBox="0 0 143 86" fill="none" xmlns="http://www.w3.org/2000/svg">
<path d="M38.4322 74.092L54.2226 25.1136C59.1145 9.98608 73.295 -0.24358 89.2093 0.00441151L107.167 0.252403C131.565 0.562393 148.718 24.4936 141.225 47.7428L136.952 60.8864C132.06 76.0139 117.88 86.2436 101.966 85.9956L46.3583 85.2516C40.6614 85.1896 36.6364 79.5478 38.4322 74.092Z" fill="#092156"/>
<path d="M0.209904 39.1845L7.87955 15.2648C10.2556 7.87692 17.1433 2.88104 24.8731 3.00215L33.5954 3.12327C45.4458 3.27466 53.7771 14.962 50.1378 26.3163L48.0625 32.7352C45.6864 40.1231 38.7988 45.119 31.069 44.9978L4.05976 44.6345C1.29267 44.6042 -0.66233 41.8489 0.209904 39.1845Z" fill="#FC0D0D"/>
</svg>
