<svg width="304" height="104" viewBox="0 0 304 104" fill="none" xmlns="http://www.w3.org/2000/svg">
<path d="M51.161 69.4585H16.6829L0 34.5415L16.6829 0H51.161L34.4781 34.5415L51.161 69.4585Z" fill="#292929"/>
<path d="M55.2392 69.4585H51.1611L34.4782 34.5415L51.1611 0H55.2392L38.5563 34.917L55.2392 69.4585Z" fill="#292929"/>
<path d="M46.712 34.5415L63.3949 0H67.473L50.79 34.5415H46.712ZM44.4876 34.5415L61.1705 0H57.0925L40.4095 34.5415H44.4876Z" fill="#292929"/>
<path d="M40.4095 104H74.8876L91.5705 69.4585L74.8876 34.5415H40.4095L57.0925 69.4585L40.4095 104Z" fill="#292929"/>
<path d="M87.4929 104H91.2002L107.883 69.4585L91.2002 34.5415H87.4929L103.805 69.4585L87.4929 104Z" fill="#292929"/>
<path d="M81.19 104H85.2681L101.951 69.4585L85.2681 34.5415H81.19L97.873 69.4585L81.19 104Z" fill="#292929"/>
<path d="M74.8877 104H78.9657L95.6487 69.4585L78.9657 34.5415H74.8877L91.5706 69.4585L74.8877 104Z" fill="#292929"/>
<path d="M120.488 51.8123V34.917H122.712V47.3068C123.083 46.5559 123.824 45.4296 124.566 44.3032C125.307 43.1769 126.049 42.0505 126.79 40.9242C127.532 39.7978 128.644 38.6715 129.385 37.5451C130.127 36.4188 130.868 35.6679 131.98 34.5415H133.834V51.4368H131.61V38.296C131.239 38.6715 130.498 39.4224 130.127 40.1733C129.756 40.9242 129.015 41.6751 128.644 42.426C127.902 43.1769 127.532 43.9278 126.79 44.6787C126.049 45.4296 125.678 46.1805 125.307 47.3068C124.937 48.0578 124.195 48.8087 123.824 49.5596C123.454 50.3105 123.083 51.0614 122.712 51.4368H120.488V51.8123ZM148.663 34.917H150.888V51.8123H148.663V43.9278H140.507V51.8123H138.283V34.917H140.507V42.0505H148.663V34.917ZM166.088 34.917V36.7942H160.898V51.4368H158.673V37.1697H153.483V34.917H166.088ZM168.683 51.8123V34.917H178.693V36.7942H170.907V41.6751H177.951V43.5523H170.907V49.5596H179.434V51.4368H168.683V51.8123ZM186.478 34.917C188.702 34.917 190.556 35.2924 192.039 36.4188C193.151 37.1697 193.893 38.6715 193.893 40.5487C193.893 41.6751 193.893 42.426 193.522 43.1769C193.151 43.9278 192.78 44.3032 192.039 44.6787C191.298 45.0541 190.556 45.4296 189.815 45.4296C188.702 45.805 187.961 45.805 186.849 45.805H184.995V52.1877H182.771V35.2924C183.512 35.2924 184.254 34.917 184.995 34.917C185.366 34.917 186.107 34.917 186.478 34.917ZM186.849 36.7942C185.737 36.7942 184.995 36.7942 184.624 36.7942V43.5523H186.478C187.219 43.5523 187.961 43.5523 188.702 43.5523C189.444 43.5523 189.815 43.1769 190.185 43.1769C190.556 42.8014 190.927 42.426 191.298 42.0505C191.668 41.6751 191.668 40.9242 191.668 40.5487C191.668 39.7978 191.668 39.4224 191.298 39.0469C190.927 38.6715 190.556 38.296 190.185 37.9206C189.815 37.5451 189.073 37.1697 188.702 37.1697C187.961 37.1697 187.59 36.7942 186.849 36.7942ZM209.093 34.917C208.722 35.2924 207.98 36.0433 207.239 36.7942C206.498 37.5451 206.127 38.296 205.385 39.0469C204.644 39.7978 203.902 40.5487 203.532 41.2996C202.79 42.0505 202.049 42.426 201.678 43.1769C202.419 43.5523 203.161 44.3032 203.902 45.0541C204.644 45.805 205.385 46.5559 206.127 47.3068C206.868 48.0578 207.61 48.8087 208.351 49.935C209.093 50.6859 209.463 51.4368 209.834 52.1877H207.239C206.868 51.4368 206.127 50.6859 205.756 49.935C205.015 49.1841 204.644 48.4332 203.902 47.6823C203.161 46.9314 202.419 46.1805 201.678 45.805C200.937 45.0541 200.195 44.6787 199.454 44.3032V52.1877H197.229V34.917H199.454V42.426C200.195 42.0505 200.566 41.2996 201.307 40.5487C202.049 39.7978 202.79 39.0469 203.161 38.6715C203.902 37.9206 204.273 37.1697 205.015 36.7942C205.756 36.0433 206.127 35.6679 206.498 35.2924H209.093V34.917ZM210.576 43.5523C210.576 42.0505 210.946 40.9242 211.317 39.7978C211.688 38.6715 212.429 37.9206 213.171 37.1697C213.912 36.4188 214.654 36.0433 215.766 35.6679C216.878 35.2924 217.619 35.2924 218.732 35.2924C219.844 35.2924 220.956 35.2924 221.698 35.6679C222.81 36.0433 223.551 36.4188 224.293 37.1697C225.034 37.9206 225.405 38.6715 226.146 39.7978C226.517 40.9242 226.888 42.0505 226.888 43.5523C226.888 45.0541 226.517 46.1805 226.146 47.3068C225.776 48.4332 225.034 49.1841 224.293 49.935C223.551 50.6859 222.81 51.0614 221.698 51.4368C220.585 51.8123 219.844 51.8123 218.732 51.8123C217.619 51.8123 216.507 51.8123 215.766 51.4368C214.654 51.0614 213.912 50.6859 213.171 49.935C212.429 49.1841 211.688 48.4332 211.317 47.3068C210.576 46.1805 210.576 45.0541 210.576 43.5523ZM212.8 43.5523C212.8 44.6787 212.8 45.4296 213.171 46.1805C213.541 46.9314 213.912 47.6823 214.283 48.4332C214.654 49.1841 215.395 49.5596 216.137 49.935C216.878 50.3105 217.619 50.3105 218.361 50.3105C219.102 50.3105 219.844 50.3105 220.585 49.935C221.327 49.5596 221.698 49.1841 222.439 48.4332C222.81 47.6823 223.18 47.3068 223.551 46.1805C223.922 45.4296 223.922 44.3032 223.922 43.5523C223.922 42.426 223.922 41.6751 223.551 40.9242C223.18 40.1733 222.81 39.4224 222.439 38.6715C222.068 37.9206 221.327 37.5451 220.585 37.1697C219.844 36.7942 219.102 36.7942 218.361 36.7942C217.619 36.7942 216.878 36.7942 216.137 37.1697C215.395 37.5451 215.024 37.9206 214.283 38.6715C213.912 39.4224 213.541 39.7978 213.171 40.9242C213.171 41.6751 212.8 42.426 212.8 43.5523ZM240.234 34.917H242.459V51.8123H240.234V43.9278H232.078V51.8123H229.854V34.917H232.078V42.0505H240.234V34.917ZM257.288 34.917H259.512V51.8123H257.288V43.9278H249.132V51.8123H246.907V34.917H249.132V42.0505H257.288V34.917ZM263.59 51.8123V34.917H273.6V36.7942H265.815V41.6751H272.859V43.5523H265.815V49.5596H274.341V51.4368H263.59V51.8123ZM289.541 34.917C289.171 35.2924 288.429 36.0433 287.688 36.7942C286.946 37.5451 286.576 38.296 285.834 39.0469C285.093 39.7978 284.351 40.5487 283.98 41.2996C283.239 42.0505 282.498 42.426 282.127 43.1769C282.868 43.5523 283.61 44.3032 284.351 45.0541C285.093 45.805 285.834 46.5559 286.576 47.3068C287.317 48.0578 288.059 48.8087 288.8 49.935C289.541 50.6859 289.912 51.4368 290.283 52.1877H287.688C287.317 51.4368 286.576 50.6859 286.205 49.935C285.463 49.1841 285.093 48.4332 284.351 47.6823C283.61 46.9314 282.868 46.1805 282.127 45.805C281.385 45.0541 280.644 44.6787 279.902 44.3032V52.1877H277.678V34.917H279.902V42.426C280.644 42.0505 281.015 41.2996 281.756 40.5487C282.498 39.7978 283.239 39.0469 283.61 38.6715C284.351 37.9206 284.722 37.1697 285.463 36.7942C286.205 36.0433 286.576 35.6679 286.946 35.2924H289.541V34.917ZM304 37.1697H298.81V51.8123H296.585V37.1697H291.395V34.917H304V37.1697Z" fill="#292929"/>
<path d="M128.644 74.3393C128.644 73.9638 128.273 73.5884 127.902 72.8375C127.532 72.0866 127.532 71.7111 127.161 70.9602C126.79 70.2093 126.42 69.4584 126.049 68.7075C125.678 67.9566 125.307 67.2057 124.937 66.4548C124.566 65.7039 124.195 65.3285 124.195 64.5776C123.824 64.2021 123.824 63.8267 123.454 63.4512C123.454 65.3285 123.083 67.5812 123.083 69.8339C123.083 72.0866 122.712 74.3393 122.712 76.592H120.488C120.488 75.0902 120.488 73.5884 120.859 72.0866C120.859 70.5848 120.859 69.083 121.229 67.5812C121.229 66.0794 121.6 64.5776 121.6 63.4512C121.6 61.9494 121.971 60.8231 121.971 59.6967H124.195C124.566 60.4476 124.937 61.1985 125.678 62.3249C126.049 63.4512 126.79 64.2021 127.161 65.3285C127.532 66.4548 128.273 67.5812 128.644 68.3321C129.015 69.4584 129.385 70.2093 129.756 71.3357C130.127 70.5848 130.498 69.4584 130.868 68.3321C131.239 67.2057 131.98 66.0794 132.351 65.3285C132.722 64.2021 133.463 63.0758 133.834 62.3249C134.205 61.1985 134.946 60.4476 135.317 59.6967H137.541C137.912 64.953 138.654 70.5848 138.654 76.592H136.429C136.429 74.3393 136.429 72.0866 136.059 69.8339C136.059 67.5812 135.688 65.7039 135.688 63.4512C135.688 63.8267 135.317 64.2021 134.946 64.5776C134.576 64.953 134.576 65.7039 134.205 66.4548C133.834 67.2057 133.463 67.9566 133.093 68.7075C132.722 69.4584 132.351 70.2093 131.98 70.9602C131.61 71.7111 131.239 72.462 131.239 72.8375C130.868 73.5884 130.868 73.9638 130.498 74.3393H128.644ZM142.361 76.592V59.6967H152.371V61.574H144.585V66.4548H151.629V68.3321H144.585V74.3393H153.112V76.2166H142.361V76.592ZM166.459 59.6967H168.683V76.592H166.459V68.7075H158.302V76.592H156.078V59.6967H158.302V66.8303H166.459V59.6967ZM172.761 76.592V59.6967H182.771V61.574H174.985V66.4548H182.029V68.3321H174.985V74.3393H183.512V76.2166H172.761V76.592ZM187.22 76.592V81.0974H184.995V74.7148H186.849C187.59 73.5884 188.332 72.8375 188.702 71.7111C189.073 70.5848 189.444 69.4584 189.815 67.9566C190.185 66.8303 190.185 65.3285 190.185 63.8267C190.185 62.3249 190.185 61.1985 190.185 59.6967H199.454V74.7148H201.678V81.0974H199.454V76.592H187.22ZM192.41 61.9494C192.41 63.0758 192.41 64.2021 192.41 65.3285C192.41 66.4548 192.41 67.5812 192.039 68.7075C192.039 69.8339 191.668 70.9602 191.298 72.0866C190.927 73.213 190.556 73.9639 189.815 75.0902H197.6V62.3249H192.41V61.9494ZM209.834 67.5812C209.463 66.8303 208.722 66.4548 208.351 65.7039C207.61 64.953 207.239 64.2021 206.498 63.4512C205.756 62.7003 205.385 61.9494 204.644 61.1985C204.273 60.4476 203.532 60.0722 203.161 59.3213H205.756C206.127 59.6967 206.498 60.4476 206.868 60.8231C207.239 61.574 207.98 61.9494 208.351 62.7003C208.722 63.4512 209.463 64.2021 210.205 64.5776C210.946 65.3285 211.317 66.0794 211.688 66.4548V58.9458H213.912V66.4548C214.283 65.7039 215.024 65.3285 215.395 64.5776C216.137 63.8267 216.507 63.0758 217.249 62.7003C217.62 61.9494 218.361 61.1985 218.732 60.8231C219.102 60.0722 219.473 59.6967 219.844 59.3213H222.439C222.068 59.6967 221.698 60.4476 220.956 61.1985C220.585 61.9494 219.844 62.7003 219.102 63.4512C218.361 64.2021 217.99 64.953 217.249 65.7039C216.507 66.4548 216.137 66.8303 215.766 67.5812C216.507 68.3321 216.878 68.7075 217.62 69.4584C218.361 70.2093 218.732 70.9602 219.473 71.7111C220.215 72.462 220.585 73.213 221.327 73.9639C221.698 74.7148 222.439 75.4657 222.81 76.2166H220.215C219.844 75.4657 219.473 74.7148 218.732 73.9639C218.361 73.213 217.62 72.462 216.878 71.7111C216.137 70.9602 215.766 70.2093 215.024 69.8339C214.283 69.083 213.912 68.7075 213.171 68.3321V76.2166H210.946V68.3321C210.576 68.7075 209.834 69.4584 209.093 69.8339C208.351 70.5848 207.98 70.9602 207.239 71.7111C206.498 72.462 206.127 73.213 205.385 73.9639C205.015 74.7148 204.273 75.4657 203.902 76.2166H201.307C201.678 75.4657 202.049 74.7148 202.79 73.9639C203.161 73.213 203.902 72.462 204.644 71.7111C205.385 70.9602 205.756 70.2093 206.498 69.4584C208.351 69.083 209.093 68.3321 209.834 67.5812ZM233.561 74.3393C233.561 73.9638 233.19 73.5884 232.82 72.8375C232.449 72.0866 232.449 71.7111 232.078 70.9602C231.707 70.2093 231.337 69.4584 230.966 68.7075C230.595 67.9566 230.224 67.2057 229.854 66.4548C229.483 65.7039 229.112 65.3285 229.112 64.5776C228.741 64.2021 228.741 63.8267 228.371 63.4512C228.371 65.3285 228 67.5812 228 69.8339C228 72.0866 227.629 74.3393 227.629 76.592H225.405C225.405 75.0902 225.405 73.5884 225.776 72.0866C225.776 70.5848 225.776 69.083 226.146 67.5812C226.146 66.0794 226.517 64.5776 226.517 63.4512C226.517 61.9494 226.888 60.8231 226.888 59.6967H229.112C229.483 60.4476 229.854 61.1985 230.595 62.3249C230.966 63.4512 231.707 64.2021 232.078 65.3285C232.449 66.4548 233.19 67.5812 233.561 68.3321C233.932 69.4584 234.302 70.2093 234.673 71.3357C235.044 70.5848 235.415 69.4584 235.785 68.3321C236.156 67.2057 236.898 66.0794 237.268 65.3285C237.639 64.2021 238.381 63.0758 238.751 62.3249C239.122 61.1985 239.863 60.4476 240.234 59.6967H242.459C242.829 64.953 243.571 70.5848 243.571 76.592H240.976C240.976 74.3393 240.976 72.0866 240.605 69.8339C240.605 67.5812 240.234 65.7039 240.234 63.4512C240.234 63.8267 239.863 64.2021 239.493 64.5776C239.122 64.953 239.122 65.7039 238.751 66.4548C238.381 67.2057 238.01 67.9566 237.639 68.7075C237.268 69.4584 236.898 70.2093 236.527 70.9602C236.156 71.7111 235.785 72.462 235.785 72.8375C235.415 73.5884 235.415 73.9638 235.044 74.3393H233.561ZM246.907 76.592V59.6967H256.917V61.574H249.132V66.4548H256.176V68.3321H249.132V74.3393H257.659V76.2166H246.907V76.592ZM271.376 59.6967H273.6V76.592H271.376V68.7075H263.22V76.592H260.995V59.6967H263.22V66.8303H271.376V59.6967ZM288.8 59.6967V61.574H283.61V76.2166H281.385V61.574H276.195V59.6967H288.8ZM133.093 86.3537C132.722 86.7292 131.98 87.4801 131.239 88.231C130.498 88.9819 130.127 89.7328 129.385 90.4837C128.644 91.2346 127.902 91.9855 127.532 92.7364C126.79 93.4873 126.049 93.8628 125.678 94.6137C126.42 94.9891 127.161 95.74 127.902 96.4909C128.644 97.2418 129.385 97.9927 130.127 98.7436C130.868 99.4945 131.61 100.245 132.351 101.372C133.093 102.123 133.463 102.874 133.834 103.625H131.239C130.868 102.874 130.127 102.123 129.756 101.372C129.015 100.621 128.644 99.87 127.902 99.1191C127.161 98.3682 126.42 97.6173 125.678 97.2418C124.937 96.4909 124.195 96.1155 123.454 95.74V103.625H121.229V86.3537H123.454V93.8628C124.195 93.4873 124.566 92.7364 125.307 91.9855C126.049 91.2346 126.79 90.4837 127.161 90.1083C127.902 89.3574 128.273 88.6064 129.015 88.231C129.756 87.4801 130.127 87.1046 130.498 86.7292H133.093V86.3537ZM134.576 94.6137C134.576 93.1119 134.946 91.9855 135.317 90.8592C135.688 89.7328 136.429 88.9819 137.171 88.231C137.912 87.4801 138.654 87.1046 139.766 86.7292C140.878 86.3537 141.62 86.3537 142.732 86.3537C143.844 86.3537 144.956 86.3537 145.698 86.7292C146.81 87.1046 147.551 87.4801 148.293 88.231C149.034 88.9819 149.405 89.7328 150.146 90.8592C150.517 91.9855 150.888 93.1119 150.888 94.6137C150.888 96.1155 150.517 97.2418 150.146 98.3682C149.776 99.4945 149.034 100.245 148.293 100.996C147.551 101.747 146.81 102.123 145.698 102.498C144.585 102.874 143.844 102.874 142.732 102.874C141.62 102.874 140.507 102.874 139.766 102.498C138.654 102.123 137.912 101.747 137.171 100.996C136.429 100.245 135.688 99.4945 135.317 98.3682C134.576 97.2418 134.576 96.1155 134.576 94.6137ZM136.8 94.6137C136.8 95.74 136.8 96.4909 137.171 97.2418C137.541 97.9927 137.912 98.7436 138.283 99.4945C138.654 100.245 139.395 100.621 140.137 100.996C140.878 101.372 141.62 101.372 142.361 101.372C143.102 101.372 143.844 101.372 144.585 100.996C145.327 100.621 145.698 100.245 146.439 99.4945C146.81 98.7436 147.18 98.3682 147.551 97.2418C147.922 96.4909 147.922 95.3646 147.922 94.6137C147.922 93.4873 147.922 92.7364 147.551 91.9855C147.18 91.2346 146.81 90.4837 146.439 89.7328C146.068 88.9819 145.327 88.6064 144.585 88.231C143.844 87.8555 143.102 87.8555 142.361 87.8555C141.62 87.8555 140.878 87.8555 140.137 88.231C139.395 88.6064 139.024 88.9819 138.283 89.7328C137.912 90.4837 137.541 90.8592 137.171 91.9855C137.171 92.7364 136.8 93.4873 136.8 94.6137ZM158.302 85.9783C160.527 85.9783 162.38 86.3537 163.863 87.4801C164.976 88.231 165.717 89.7328 165.717 91.6101C165.717 92.7364 165.717 93.4873 165.346 94.2382C164.976 94.9891 164.605 95.3646 163.863 95.74C163.122 96.1155 162.38 96.4909 161.639 96.4909C160.527 96.8664 159.785 96.8664 158.673 96.8664H156.82V103.249H154.595V86.3537C155.337 86.3537 156.078 85.9783 156.82 85.9783C156.82 85.9783 157.561 85.9783 158.302 85.9783ZM158.302 88.231C157.19 88.231 156.449 88.231 156.078 88.231V94.9891H157.932C158.673 94.9891 159.415 94.9891 160.156 94.9891C160.898 94.9891 161.268 94.6137 161.639 94.6137C162.01 94.2382 162.38 93.8628 162.751 93.4873C163.122 93.1119 163.122 92.361 163.122 91.9855C163.122 91.2346 163.122 90.8592 162.751 90.4837C162.38 90.1083 162.01 89.7328 161.639 89.3573C161.268 88.9819 160.898 88.9819 160.156 88.9819C159.785 88.231 159.044 88.231 158.302 88.231ZM180.917 86.3537V103.249H178.693V88.231H170.537V103.249H168.312V86.3537H180.917ZM184.624 94.6137C184.624 93.1119 184.995 91.9855 185.366 90.8592C185.737 89.7328 186.478 88.9819 187.22 88.231C187.961 87.4801 188.702 87.1046 189.815 86.7292C190.927 86.3537 191.668 86.3537 192.78 86.3537C193.893 86.3537 195.005 86.3537 195.746 86.7292C196.859 87.1046 197.6 87.4801 198.341 88.231C199.083 88.9819 199.454 89.7328 200.195 90.8592C200.566 91.9855 200.937 93.1119 200.937 94.6137C200.937 96.1155 200.566 97.2418 200.195 98.3682C199.824 99.4945 199.083 100.245 198.341 100.996C197.6 101.747 196.859 102.123 195.746 102.498C194.634 102.874 193.893 102.874 192.78 102.874C191.668 102.874 190.556 102.874 189.815 102.498C188.702 102.123 187.961 101.747 187.22 100.996C186.478 100.245 185.737 99.4945 185.366 98.3682C184.624 97.2418 184.624 96.1155 184.624 94.6137ZM186.849 94.6137C186.849 95.74 186.849 96.4909 187.22 97.2418C187.59 97.9927 187.961 98.7436 188.332 99.4945C188.702 100.245 189.444 100.621 190.185 100.996C190.927 101.372 191.668 101.372 192.41 101.372C193.151 101.372 193.893 101.372 194.634 100.996C195.376 100.621 195.746 100.245 196.488 99.4945C196.859 98.7436 197.229 98.3682 197.6 97.2418C197.971 96.4909 197.971 95.3646 197.971 94.6137C197.971 93.4873 197.971 92.7364 197.6 91.9855C197.229 91.2346 196.859 90.4837 196.488 89.7328C196.117 88.9819 195.376 88.6064 194.634 88.231C193.893 87.8555 193.151 87.8555 192.41 87.8555C191.668 87.8555 190.927 87.8555 190.185 88.231C189.444 88.6064 189.073 88.9819 188.332 89.7328C187.961 90.4837 187.59 90.8592 187.22 91.9855C187.22 92.7364 186.849 93.4873 186.849 94.6137ZM208.351 85.9783C210.576 85.9783 212.429 86.3537 213.912 87.4801C215.024 88.231 215.766 89.7328 215.766 91.6101C215.766 92.7364 215.766 93.4873 215.395 94.2382C215.024 94.9891 214.654 95.3646 213.912 95.74C213.171 96.1155 212.429 96.4909 211.688 96.4909C210.576 96.8664 209.834 96.8664 208.722 96.8664H206.868V103.249H203.902V86.3537C204.644 86.3537 205.385 85.9783 206.127 85.9783C206.868 85.9783 207.61 85.9783 208.351 85.9783ZM208.351 88.231C207.239 88.231 206.498 88.231 206.127 88.231V94.9891H207.98C208.722 94.9891 209.463 94.9891 210.205 94.9891C210.946 94.9891 211.317 94.6137 211.688 94.6137C212.059 94.2382 212.429 93.8628 212.8 93.4873C213.171 93.1119 213.171 92.361 213.171 91.9855C213.171 91.2346 213.171 90.8592 212.8 90.4837C212.429 90.1083 212.059 89.7328 211.688 89.3573C211.317 88.9819 210.946 88.9819 210.205 88.9819C209.834 88.231 209.093 88.231 208.351 88.231ZM218.361 102.874V86.3537H228.371V88.231H220.585V93.1119H227.629V94.9891H220.585V100.996H229.112V102.874H218.361ZM232.078 102.874V86.3537H234.302V98.7436C234.673 97.9927 235.415 96.8664 236.156 95.74C236.898 94.6137 237.639 93.4873 238.381 92.361C239.122 91.2346 240.234 90.1083 240.976 88.9819C241.717 87.8555 242.459 87.1046 243.571 85.9783H245.424V102.874H243.2V89.7328C242.829 90.1083 242.088 90.8592 241.717 91.6101C241.346 92.361 240.605 93.1119 240.234 93.8628C239.493 94.6137 239.122 95.3646 238.381 96.1155C237.639 96.8664 237.268 97.6173 236.898 98.7436C236.527 99.4945 235.785 100.245 235.415 100.996C235.044 101.747 234.673 102.498 234.302 102.874H232.078ZM238.751 84.4765C237.639 84.4765 236.898 84.101 236.156 83.7256C235.415 83.3501 235.044 82.5992 235.044 81.4729L236.898 81.0974C236.898 81.4729 237.268 82.2238 237.639 82.2238C238.01 82.5992 238.381 82.5992 238.751 82.5992C239.122 82.5992 239.863 82.5992 239.863 82.2238C240.234 81.8483 240.234 81.4729 240.605 81.0974L242.459 81.4729C242.459 82.2238 242.088 82.9747 241.346 83.7256C240.605 84.4765 239.863 84.4765 238.751 84.4765ZM249.873 102.874V86.3537H252.098V101.372H258.4V86.3537H260.624V101.372H266.927V86.3537H269.151V103.249H249.873V102.874ZM283.61 86.3537H285.834V103.249H283.61V95.3646H275.454V103.249H273.229V86.3537H275.454V93.4873H283.61V86.3537Z" fill="#292929"/>
</svg>
