<svg width="177" height="115" viewBox="0 0 177 115" fill="none" xmlns="http://www.w3.org/2000/svg">
<path d="M25.3872 6.12341L21.5523 18.0705C20.3703 21.771 16.9162 24.2556 13.0681 24.2027L8.69462 24.1498C2.77144 24.0706 -1.39186 18.2424 0.433684 12.5595L1.45809 9.34808C2.6401 5.64764 6.0942 3.16305 9.9423 3.21592L23.4303 3.38772C24.8356 3.41415 25.8075 4.7886 25.3872 6.12341Z" fill="#25417E"/>
<path d="M11.3645 58.532L23.8593 19.8657C27.764 7.89761 38.9759 -0.164828 51.5265 0.00255792L65.7505 0.197842C85.0506 0.448921 98.6053 19.3357 92.6647 37.6924L89.3178 48.0703C85.4411 60.0384 74.2292 68.073 61.6786 67.9335L17.7235 67.3755C13.1773 67.2918 9.96995 62.8561 11.3645 58.532Z" fill="#25417E"/>
<path d="M76.9769 102.945L92.0934 56.1605C96.779 41.6816 110.334 31.9453 125.534 32.1406L142.742 32.3638C166.086 32.6706 182.486 55.491 175.29 77.7254L171.218 90.2794C166.533 104.758 152.978 114.495 137.778 114.299L84.6188 113.602C79.1523 113.546 75.2756 108.162 76.9769 102.945Z" fill="#25417E"/>
<path d="M76.0139 78.4509L68.9019 100.49C66.6985 107.297 60.3117 111.9 53.1438 111.789L45.0557 111.677C34.0669 111.538 26.3413 100.769 29.716 90.3074L31.6404 84.3931C33.8438 77.586 40.2306 72.9829 47.3984 73.0945L72.4439 73.4293C75.0098 73.4572 76.8227 75.9959 76.0139 78.4509Z" fill="#FC0D0D"/>
</svg>
