<svg width="161" height="192" viewBox="0 0 161 192" fill="none" xmlns="http://www.w3.org/2000/svg">
<path d="M43.8295 10.9884L37.2087 31.4805C35.168 37.8276 29.2047 42.0893 22.5612 41.9986L15.0107 41.9079C4.78472 41.7719 -2.40297 31.7752 0.74873 22.0279L2.51731 16.5195C4.55798 10.1724 10.5213 5.91075 17.1648 6.00142L40.4511 6.29611C42.8772 6.34144 44.5551 8.69894 43.8295 10.9884Z" fill="#FCBE32"/>
<path d="M19.5631 100.805L40.9295 34.2133C47.6065 13.6015 66.779 -0.283872 88.2408 0.00440531L112.564 0.340729C145.568 0.773145 168.746 33.3004 158.588 64.9148L152.865 82.788C146.235 103.4 127.063 117.237 105.601 116.997L30.4371 116.036C22.6632 115.892 17.1785 108.253 19.5631 100.805Z" fill="#092156"/>
<path d="M130.667 135.139L118.485 172.727C114.712 184.336 103.772 192.187 91.4957 191.997L77.6425 191.806C58.8214 191.568 45.5893 173.203 51.3694 155.36L54.6654 145.273C58.4392 133.664 69.3784 125.813 81.6552 126.003L124.552 126.574C128.947 126.622 132.052 130.952 130.667 135.139Z" fill="#FC0D0D"/>
</svg>
