<svg width="366" height="58" viewBox="0 0 366 58" fill="none" xmlns="http://www.w3.org/2000/svg">
<path d="M36.6865 46.6406H18.3672L15.168 57H0.885742L21.2236 1.54688H33.792L54.2822 57H39.9238L36.6865 46.6406ZM21.5664 36.3193H33.4873L27.5078 17.0859L21.5664 36.3193ZM102.918 50.1445C100.861 52.4297 97.8525 54.2705 93.8916 55.667C89.9307 57.0635 85.5889 57.7617 80.8662 57.7617C73.6045 57.7617 67.8027 55.54 63.4609 51.0967C59.1191 46.6533 56.7959 40.4707 56.4912 32.5488L56.4531 27.75C56.4531 22.291 57.418 17.5303 59.3477 13.4678C61.2773 9.37988 64.0322 6.24414 67.6123 4.06055C71.2178 1.85156 75.3818 0.74707 80.1045 0.74707C87.0107 0.74707 92.3682 2.33398 96.1768 5.50781C100.011 8.65625 102.245 13.3662 102.88 19.6377H90.0068C89.5498 16.54 88.5596 14.3311 87.0361 13.0107C85.5127 11.6904 83.3545 11.0303 80.5615 11.0303C77.21 11.0303 74.6201 12.4521 72.792 15.2959C70.9639 18.1396 70.0371 22.2021 70.0117 27.4834V30.835C70.0117 36.3701 70.9512 40.5342 72.8301 43.3271C74.7344 46.0947 77.7178 47.4785 81.7803 47.4785C85.2588 47.4785 87.8486 46.7041 89.5498 45.1553V36.5479H80.2568V27.3691H102.918V50.1445ZM131.292 37.4238H124.056V57H110.688V1.54688H132.511C139.087 1.54688 144.229 3.00684 147.936 5.92676C151.643 8.84668 153.496 12.9727 153.496 18.3047C153.496 22.1641 152.709 25.3633 151.135 27.9023C149.586 30.4414 147.148 32.498 143.822 34.0723L155.4 56.4287V57H141.08L131.292 37.4238ZM124.056 27.1025H132.511C135.05 27.1025 136.954 26.4424 138.224 25.1221C139.519 23.7764 140.166 21.9102 140.166 19.5234C140.166 17.1367 139.519 15.2705 138.224 13.9248C136.929 12.5537 135.024 11.8682 132.511 11.8682H124.056V27.1025ZM208.53 30.416C208.53 35.8242 207.527 40.6104 205.521 44.7744C203.516 48.9385 200.659 52.1504 196.952 54.4102C193.271 56.6445 189.068 57.7617 184.346 57.7617C179.623 57.7617 175.434 56.6826 171.777 54.5244C168.121 52.3408 165.265 49.2305 163.208 45.1934C161.177 41.1562 160.11 36.5225 160.009 31.292V28.1689C160.009 22.7354 160.999 17.9492 162.979 13.8105C164.985 9.64648 167.842 6.43457 171.549 4.1748C175.281 1.91504 179.521 0.785156 184.27 0.785156C188.967 0.785156 193.156 1.90234 196.838 4.13672C200.52 6.37109 203.376 9.55762 205.407 13.6963C207.464 17.8096 208.505 22.5322 208.53 27.8643V30.416ZM194.934 28.0928C194.934 22.583 194.007 18.4062 192.153 15.5625C190.325 12.6934 187.697 11.2588 184.27 11.2588C177.566 11.2588 174.024 16.2861 173.644 26.3408L173.605 30.416C173.605 35.8496 174.507 40.0264 176.31 42.9463C178.112 45.8662 180.791 47.3262 184.346 47.3262C187.723 47.3262 190.325 45.8916 192.153 43.0225C193.981 40.1533 194.908 36.0273 194.934 30.6445V28.0928ZM261.774 57H248.482V33.8438H228.792V57H215.424V1.54688H228.792V23.5605H248.482V1.54688H261.774V57ZM313.762 1.54688V37.8428C313.762 41.9561 312.886 45.5234 311.134 48.5449C309.382 51.541 306.868 53.8262 303.593 55.4004C300.317 56.9746 296.445 57.7617 291.977 57.7617C285.223 57.7617 279.903 56.0098 276.019 52.5059C272.134 49.002 270.153 44.2031 270.077 38.1094V1.54688H283.521V38.376C283.674 44.4443 286.492 47.4785 291.977 47.4785C294.744 47.4785 296.839 46.7168 298.261 45.1934C299.683 43.6699 300.394 41.1943 300.394 37.7666V1.54688H313.762ZM322.141 57V1.54688H342.06C349.194 1.54688 354.615 2.85449 358.322 5.46973C362.055 8.08496 363.921 11.8809 363.921 16.8574C363.921 19.7266 363.261 22.1768 361.94 24.208C360.62 26.2393 358.678 27.7373 356.113 28.7021C359.008 29.4639 361.229 30.8857 362.778 32.9678C364.327 35.0498 365.102 37.5889 365.102 40.585C365.102 46.0186 363.375 50.1064 359.922 52.8486C356.494 55.5654 351.403 56.9492 344.649 57H322.141ZM335.509 33.4248V46.7168H344.269C346.681 46.7168 348.534 46.1709 349.829 45.0791C351.124 43.9619 351.771 42.4004 351.771 40.3945C351.771 35.7734 349.474 33.4502 344.878 33.4248H335.509ZM335.509 24.665H342.479C345.398 24.6396 347.48 24.1064 348.725 23.0654C349.969 22.0244 350.591 20.4883 350.591 18.457C350.591 16.1211 349.918 14.4453 348.572 13.4297C347.227 12.3887 345.056 11.8682 342.06 11.8682H335.509V24.665Z" fill="#E0E1E1"/>
</svg>
