<svg width="296" height="47" viewBox="0 0 296 47" fill="none" xmlns="http://www.w3.org/2000/svg">
<path d="M29.8237 37.6328H15.0273L12.4434 46H0.907715L17.3345 1.21094H27.4858L44.0356 46H32.4385L29.8237 37.6328ZM17.6113 29.2964H27.2397L22.4102 13.7617L17.6113 29.2964ZM83.3184 40.4629C81.6572 42.3086 79.2271 43.7954 76.0278 44.9233C72.8286 46.0513 69.3218 46.6152 65.5073 46.6152C59.6421 46.6152 54.9561 44.8208 51.4492 41.2319C47.9424 37.6431 46.0659 32.6494 45.8198 26.251L45.7891 22.375C45.7891 17.9658 46.5684 14.1206 48.127 10.8394C49.6855 7.5376 51.9106 5.00488 54.8022 3.24121C57.7144 1.45703 61.0776 0.564941 64.8921 0.564941C70.4702 0.564941 74.7974 1.84668 77.8735 4.41016C80.9702 6.95313 82.7749 10.7573 83.2876 15.8228H72.8901C72.521 13.3208 71.7212 11.5366 70.4907 10.4702C69.2603 9.40381 67.5171 8.87061 65.2612 8.87061C62.5542 8.87061 60.4624 10.019 58.9858 12.3159C57.5093 14.6128 56.7607 17.894 56.7402 22.1597V24.8667C56.7402 29.3374 57.499 32.7007 59.0166 34.9565C60.5547 37.1919 62.9644 38.3096 66.2456 38.3096C69.0552 38.3096 71.147 37.6841 72.521 36.4331V29.481H65.0151V22.0674H83.3184V40.4629ZM106.236 30.1885H100.391V46H89.5938V1.21094H107.22C112.532 1.21094 116.685 2.39014 119.679 4.74854C122.673 7.10693 124.17 10.4395 124.17 14.7461C124.17 17.8633 123.534 20.4473 122.263 22.498C121.012 24.5488 119.043 26.21 116.356 27.4814L125.708 45.5386V46H114.142L106.236 30.1885ZM100.391 21.8521H107.22C109.271 21.8521 110.809 21.3188 111.834 20.2524C112.88 19.1655 113.403 17.6582 113.403 15.7305C113.403 13.8027 112.88 12.2954 111.834 11.2085C110.789 10.1011 109.25 9.54736 107.22 9.54736H100.391V21.8521ZM168.621 24.5283C168.621 28.8965 167.811 32.7622 166.19 36.1255C164.57 39.4888 162.263 42.083 159.269 43.9082C156.295 45.7129 152.901 46.6152 149.087 46.6152C145.272 46.6152 141.889 45.7437 138.936 44.0005C135.982 42.2368 133.675 39.7246 132.014 36.4639C130.374 33.2031 129.512 29.4604 129.43 25.2358V22.7134C129.43 18.3247 130.23 14.459 131.83 11.1162C133.45 7.75293 135.757 5.15869 138.751 3.3335C141.766 1.5083 145.19 0.595703 149.025 0.595703C152.819 0.595703 156.203 1.49805 159.177 3.30273C162.15 5.10742 164.458 7.68115 166.098 11.0239C167.759 14.3462 168.6 18.1606 168.621 22.4673V24.5283ZM157.639 22.6519C157.639 18.2017 156.89 14.8281 155.393 12.5312C153.917 10.2139 151.794 9.05518 149.025 9.05518C143.611 9.05518 140.75 13.1157 140.443 21.2368L140.412 24.5283C140.412 28.917 141.14 32.2905 142.596 34.6489C144.052 37.0073 146.216 38.1865 149.087 38.1865C151.814 38.1865 153.917 37.0278 155.393 34.7104C156.87 32.3931 157.618 29.0605 157.639 24.7129V22.6519ZM211.625 46H200.89V27.2969H184.986V46H174.188V1.21094H184.986V18.9912H200.89V1.21094H211.625V46ZM253.615 1.21094V30.5269C253.615 33.8491 252.908 36.7305 251.493 39.1709C250.078 41.5908 248.047 43.4365 245.402 44.708C242.756 45.9795 239.629 46.6152 236.02 46.6152C230.564 46.6152 226.268 45.2002 223.13 42.3701C219.993 39.54 218.393 35.6641 218.332 30.7422V1.21094H229.19V30.9575C229.313 35.8589 231.59 38.3096 236.02 38.3096C238.255 38.3096 239.947 37.6943 241.095 36.4639C242.244 35.2334 242.818 33.2339 242.818 30.4653V1.21094H253.615ZM260.383 46V1.21094H276.471C282.234 1.21094 286.612 2.26709 289.606 4.37939C292.621 6.4917 294.128 9.55762 294.128 13.5771C294.128 15.8945 293.595 17.8735 292.529 19.5142C291.462 21.1548 289.894 22.3647 287.822 23.144C290.16 23.7593 291.955 24.9077 293.206 26.5894C294.457 28.271 295.082 30.3218 295.082 32.7417C295.082 37.1304 293.688 40.4321 290.898 42.647C288.13 44.8413 284.018 45.959 278.563 46H260.383ZM271.18 26.9585V37.6943H278.255C280.204 37.6943 281.701 37.2534 282.747 36.3716C283.792 35.4692 284.315 34.208 284.315 32.5879C284.315 28.8555 282.459 26.979 278.748 26.9585H271.18ZM271.18 19.8833H276.81C279.168 19.8628 280.85 19.4321 281.854 18.5913C282.859 17.7505 283.362 16.5098 283.362 14.8691C283.362 12.9824 282.818 11.6289 281.731 10.8086C280.645 9.96777 278.891 9.54736 276.471 9.54736H271.18V19.8833Z" fill="#292929"/>
</svg>
