<svg width="808" height="522" viewBox="0 0 808 522" fill="none" xmlns="http://www.w3.org/2000/svg">
<path d="M115.892 27.9531L98.3855 82.4915C92.9896 99.3839 77.2218 110.726 59.6553 110.485L39.6907 110.243C12.6515 109.881 -6.35382 83.2758 1.97976 57.3339L6.65615 42.6737C12.052 25.7813 27.8198 14.4392 45.3863 14.6805L106.959 15.4648C113.374 15.5855 117.81 21.8598 115.892 27.9531Z" fill="#25417E"/>
<path d="M51.8784 267.197L108.917 90.6865C126.742 36.0524 177.924 -0.752437 235.217 0.0116768L300.149 0.903143C388.254 2.04931 450.13 88.2668 423.012 172.065L407.733 219.44C390.036 274.074 338.854 310.751 281.561 310.114L80.907 307.567C60.1541 307.185 45.5125 286.936 51.8784 267.197Z" fill="#25417E"/>
<path d="M351.396 469.941L420.402 256.372C441.792 190.276 503.669 145.83 573.057 146.721L651.612 147.74C758.178 149.141 833.041 253.315 800.193 354.815L781.605 412.124C760.215 478.219 698.338 522.665 628.95 521.774L386.281 518.59C361.327 518.335 343.629 493.756 351.396 469.941Z" fill="#25417E"/>
<path d="M347.002 358.126L314.536 458.734C304.478 489.808 275.322 510.822 242.601 510.312L205.679 509.803C155.516 509.166 120.248 460.008 135.654 412.251L144.439 385.252C154.497 354.178 183.653 333.165 216.374 333.675L330.706 335.203C342.419 335.33 350.695 346.919 347.002 358.126Z" fill="#25417E"/>
</svg>
