<svg width="1113" height="719" viewBox="0 0 1113 719" fill="none" xmlns="http://www.w3.org/2000/svg">
<path d="M159.538 38.4807L135.439 113.559C128.011 136.813 106.305 152.427 82.1223 152.095L54.6387 151.762C17.4163 151.264 -8.74675 114.639 2.72536 78.9266L9.16295 58.7452C16.5909 35.4908 38.2972 19.8772 62.4794 20.2094L147.241 21.2891C156.072 21.4552 162.179 30.0925 159.538 38.4807Z" fill="#25417E"/>
<path d="M71.4166 367.827L149.937 124.84C174.474 49.6302 244.932 -1.03581 323.803 0.0160745L413.19 1.24328C534.475 2.82111 619.656 121.509 582.323 236.866L561.291 302.083C536.929 377.294 466.471 427.784 387.6 426.908L111.378 423.401C82.8091 422.875 62.6532 395 71.4166 367.827Z" fill="#25417E"/>
<path d="M483.736 646.928L578.731 352.925C608.176 261.936 693.357 200.751 788.878 201.979L897.018 203.381C1043.72 205.31 1146.78 348.717 1101.56 488.443L1075.97 567.335C1046.52 658.323 961.342 719.508 865.82 718.281L531.759 713.898C497.407 713.547 473.044 679.712 483.736 646.928Z" fill="#25417E"/>
<path d="M477.688 493.001L432.994 631.5C419.148 674.277 379.012 703.204 333.968 702.502L283.14 701.801C214.085 700.925 165.535 633.253 186.743 567.51L198.836 530.343C212.682 487.567 252.819 458.64 297.863 459.341L455.254 461.445C471.378 461.62 482.771 477.574 477.688 493.001Z" fill="#25417E"/>
</svg>
