<?xml version="1.0" encoding="utf-8"?>
<!-- Generator: Adobe Illustrator 21.0.0, SVG Export Plug-In . SVG Version: 6.00 Build 0)  -->
<svg version="1.1" id="Layer_1" xmlns="http://www.w3.org/2000/svg" xmlns:xlink="http://www.w3.org/1999/xlink" x="0px" y="0px"
	 viewBox="0 0 172.9 28.4" style="enable-background:new 0 0 172.9 28.4;" xml:space="preserve">
<style type="text/css">
	.st0{fill:#515254;}
	.st1{fill:#F15F35;}
	.st2{fill:#DF1832;}
	.st3{fill:#F3775F;}
	.st4{fill:#007455;}
	.st5{fill:#369672;}
	.st6{fill:#00799B;}
	.st7{fill:#F15D5F;}
	.st8{fill:#488CA7;}
	.st9{fill:#F47A42;}
	.st10{fill:#BA5080;}
	.st11{fill:#7C78A1;}
	.st12{fill:#448A31;}
	.st13{fill:#47A848;}
	.st14{fill:#CB7394;}
	.st15{fill:#98174B;}
	.st16{fill:#63BC55;}
	.st17{fill:#293896;}
	.st18{fill-rule:evenodd;clip-rule:evenodd;fill:#293896;}
	.st19{fill-rule:evenodd;clip-rule:evenodd;fill:#ED1C24;}
	.st20{fill:none;stroke:#FFFFFF;stroke-width:1.8286;stroke-miterlimit:22.9256;}
	.st21{fill-rule:evenodd;clip-rule:evenodd;fill:#FFFFFF;}
	.st22{fill:none;stroke:#293896;stroke-width:0.8942;stroke-miterlimit:22.9256;}
	.st23{fill:none;stroke:#ED1C24;stroke-width:0.8942;stroke-miterlimit:22.9256;}
	.st24{fill:#D4A62B;}
	.st25{fill:#FCD603;}
	.st26{fill:#D12528;}
	.st27{fill:#FEFDFB;}
	.st28{fill:#344D9D;}
</style>
<g>
	<path class="st0" d="M7.4,28.1l6.3-10.9c0.2-0.5,0.4-1,0.4-1.5c0-0.5-0.1-1-0.3-1.4l-2.9-5L0,28.1H7.4z"/>
	<path class="st0" d="M28.7,21.7l-12.5,0c-0.5,0-1,0.2-1.5,0.4c-0.4,0.2-0.8,0.6-1.1,1l-2.9,5l21.7,0L28.7,21.7z"/>
	<path class="st0" d="M12.5,6.4l6.3,10.9c0.3,0.4,0.7,0.8,1.1,1.1c0.4,0.2,0.9,0.4,1.4,0.4H27L16.2,0L12.5,6.4z"/>
	<g>
		<g>
			<path class="st0" d="M49,12.5c0-0.3,0.2-9.8,0.2-9.8l-2.6,9.8h-2L42,2.7c0,0,0.2,9.4,0.2,9.8h-2.2V0.6h3.2l2.3,8.9l2.3-8.9h3.2
				v11.9H49z"/>
			<path class="st0" d="M64.1,12.5h-2.2V4.7l-5.3,6.4v1.4h-2.2V0.6h2.2v7.7l5.3-6.4V0.6h2.2V12.5z"/>
			<path class="st0" d="M74.6,12.5V7.1h-5.1v5.4h-2.2V0.6h2.2v4.5h5.1V0.6h2.2v11.9H74.6z"/>
			<path class="st0" d="M89.4,0.6v11.9h-2.2V2.6h-5v9.9h-2.2V0.6H89.4z"/>
			<path class="st0" d="M97.1,0.6c2.5,0,4.2,1.5,4.2,4c0,2.2-1.2,3.9-4.4,3.9h-2.3v4.1h-2.2V0.6H97.1z M94.7,6.6h2
				c1.6,0,2.4-0.7,2.4-2.1c0-1.9-1.6-2-2.6-2h-1.7V6.6z"/>
			<path class="st0" d="M108.5,0.3c3.6,0,5.7,3,5.7,6.2c0,2.7-1.5,6.3-5.8,6.3c-3.5,0-5.7-2.9-5.7-6.3
				C102.8,3.1,105.1,0.3,108.5,0.3z M108.5,10.7c1.8,0,3.4-1.4,3.4-4.1c0-2.1-1.1-4.3-3.5-4.3c-2,0-3.4,1.5-3.4,4.2
				C105.1,8.3,106,10.7,108.5,10.7z"/>
			<path class="st0" d="M125.4,12.5c0-0.3,0.2-9.8,0.2-9.8l-2.6,9.8h-2l-2.6-9.8c0,0,0.2,9.4,0.2,9.8h-2.2V0.6h3.2l2.3,8.9l2.3-8.9
				h3.2v11.9H125.4z"/>
			<path class="st0" d="M135.2,2.6v9.9H133V2.6h-3.2v-2h8.8v2H135.2z"/>
			<path class="st0" d="M145.6,0.3c3.6,0,5.7,3,5.7,6.2c0,2.7-1.5,6.3-5.8,6.3c-3.5,0-5.7-2.9-5.7-6.3
				C139.9,3.1,142.1,0.3,145.6,0.3z M145.6,10.7c1.8,0,3.4-1.4,3.4-4.1c0-2.1-1.1-4.3-3.5-4.3c-2,0-3.4,1.5-3.4,4.2
				C142.2,8.3,143,10.7,145.6,10.7z"/>
			<path class="st0" d="M158.3,0.6c2.5,0,4.2,1.5,4.2,4c0,2.2-1.2,3.9-4.4,3.9h-2.3v4.1h-2.2V0.6H158.3z M155.9,6.6h2
				c1.6,0,2.4-0.7,2.4-2.1c0-1.9-1.6-2-2.6-2h-1.7V6.6z"/>
			<path class="st0" d="M171.4,0.6v2h-4.9v9.9h-2.2V0.6H171.4z"/>
		</g>
		<g>
			<path class="st0" d="M44.7,16.1c2.5,0,4.2,1.5,4.2,4c0,2.2-1.3,3.9-4.4,3.9h-2.3V28h-2.2V16.1H44.7z M42.3,22.2h2
				c1.6,0,2.4-0.7,2.4-2.1c0-1.9-1.6-2-2.6-2h-1.7V22.2z"/>
			<path class="st0" d="M56.2,15.8c3.6,0,5.7,3,5.7,6.2c0,2.7-1.5,6.3-5.8,6.3c-3.5,0-5.7-2.9-5.7-6.3
				C50.5,18.6,52.8,15.8,56.2,15.8z M56.2,26.3c1.8,0,3.4-1.4,3.4-4.1c0-2.1-1.1-4.3-3.5-4.3c-2,0-3.4,1.5-3.4,4.2
				C52.8,23.9,53.7,26.3,56.2,26.3z"/>
			<path class="st0" d="M74.5,24.7c-0.4,1-1.7,3.6-5.2,3.6c-2.8,0-5.6-1.9-5.6-6.4c0-2.7,1.5-6.1,5.7-6.1c3.1,0,4.3,2,4.8,3.7
				L72,20.1c-0.1-1.3-1.2-2.2-2.5-2.2c-1.9,0-3.3,1.5-3.3,4.1c0,1.6,0.7,4.2,3.3,4.2c1.5,0,2.5-1.2,2.9-2.4L74.5,24.7z"/>
			<path class="st0" d="M86.8,24.7c-0.4,1-1.7,3.6-5.2,3.6c-2.8,0-5.6-1.9-5.6-6.4c0-2.7,1.5-6.1,5.7-6.1c3.1,0,4.3,2,4.8,3.7
				l-2.2,0.6c-0.1-1.3-1.2-2.2-2.5-2.2c-1.9,0-3.3,1.5-3.3,4.1c0,1.6,0.7,4.2,3.3,4.2c1.5,0,2.5-1.2,2.9-2.4L86.8,24.7z"/>
			<path class="st0" d="M98.6,28h-2.2v-7.8l-5.3,6.4V28h-2.2V16.1h2.2v7.7l5.3-6.4v-1.4h2.2V28z"/>
			<path class="st0" d="M111.6,28h-2.2v-7.8l-5.3,6.4V28h-2.2V16.1h2.2v7.7l5.3-6.4v-1.4h2.2V28z"/>
		</g>
	</g>
</g>
</svg>
