<svg width="140" height="69" viewBox="0 0 140 69" fill="none" xmlns="http://www.w3.org/2000/svg">
<g clip-path="url(#clip0)">
<path d="M57.334 42.6298H59.0088V52.0308H57.334V42.6298Z" fill="black"/>
<path d="M68.2505 52.0604L63.0165 45.527V52.0604H61.4613V42.6594H62.8072L68.0411 49.1928V42.6594H69.5963V52.0604H68.2505Z" fill="black"/>
<path d="M75.9069 52.09H74.6508L70.7328 42.6594H72.5273L75.3686 49.6362L78.0603 42.6594H79.7352L75.9069 52.09Z" fill="black"/>
<path d="M80.8717 42.6298H86.3748V44.1671H82.5466V46.5026H85.986V48.0398H82.5466V50.464H86.5243V52.0013H80.8717V42.6298Z" fill="black"/>
<path d="M87.96 45.0835C87.96 43.6645 89.0666 42.482 90.9209 42.482C92.0873 42.482 93.0743 42.8663 93.6425 43.4871L92.7453 44.7288C92.2967 44.2853 91.8181 44.0193 91.0704 44.0193C90.233 44.0193 89.7245 44.4332 89.7245 45.054C89.7245 47.0051 94.0313 46.3843 94.0313 49.518C94.0313 51.1144 92.6256 52.1787 90.8611 52.1787C89.6348 52.1787 88.1992 51.6465 87.7506 50.7005L88.7077 49.5771C89.2759 50.2866 90.1732 50.6414 90.891 50.6414C91.6686 50.6414 92.2667 50.2571 92.2667 49.5476C92.2667 47.6851 87.96 48.1581 87.96 45.0835Z" fill="black"/>
<path d="M94.6892 42.6298H102.525V44.1671H99.4446V52.0308H97.7697V44.1671H94.6892V42.6298Z" fill="black"/>
<path d="M43.7257 42.1864H40.7349C39.5386 42.1864 38.3722 42.6594 37.5048 43.5167L28.2931 52.6221C28.2333 52.6812 28.1137 52.6812 28.0539 52.6221L18.8422 43.5167C17.9748 42.6594 16.8084 42.1864 15.6121 42.1864H12.6213C11.5745 42.1864 10.7371 43.0141 10.7371 44.0488V67.108C10.7371 68.1427 11.5745 68.9704 12.6213 68.9704H15.6121C16.6589 68.9704 17.4963 68.1427 17.4963 67.108V51.9126C17.4963 51.8535 17.5561 51.8239 17.6159 51.8535L26.4986 60.6337C26.9473 61.0771 27.5454 61.3136 28.1436 61.3136C28.7717 61.3136 29.3698 61.0771 29.7885 60.6337L38.6713 51.8535C38.7311 51.883 38.8507 51.9126 38.7909 51.9126V67.108C38.7909 68.1427 39.6283 68.9704 40.6751 68.9704H43.6659C44.7127 68.9704 45.5501 68.1427 45.5501 67.108V44.0488C45.6099 43.0141 44.7725 42.1864 43.7257 42.1864Z" fill="black"/>
<path d="M20.1881 37.7224L19.6498 37.2198C19.4105 36.9833 19.261 36.6285 19.261 36.2738V34.8252H11.1559V34.9435C11.6942 34.9435 12.1728 35.2687 12.3821 35.7712C12.5915 36.2738 12.4718 36.8355 12.083 37.2198L11.5746 37.7224H20.1881Z" fill="#EA542A"/>
<path d="M22.0722 31.6028V25.9859H21.9526C21.9526 26.3406 21.8031 26.6658 21.5638 26.9319C21.3245 27.1684 20.9656 27.3162 20.6067 27.3162C20.2478 27.3162 19.9188 27.1684 19.6497 26.9319L19.1412 26.3998V28.2622L21.5638 30.6568C21.8031 30.8933 21.9526 31.2481 21.9526 31.6028H22.0722Z" fill="#D90627"/>
<path d="M22.0722 25.9859V24.1234C22.0722 23.3252 21.4142 22.6748 20.6067 22.6748C20.2478 22.6748 19.8889 22.8226 19.6198 23.0591L19.5599 23.1182L21.5339 25.0694C21.7731 25.3059 21.9227 25.6607 21.9227 26.0154H22.0722V25.9859Z" fill="#D90627"/>
<path d="M27.2164 44.6697C27.1566 44.6105 27.0968 44.5514 27.037 44.4627C26.9772 44.374 26.9473 44.3149 26.9174 44.2262C26.8874 44.1375 26.8575 44.0489 26.8575 43.9897C26.8276 43.901 26.8276 43.8123 26.8276 43.7237V40.3535L22.0722 35.653V31.5733H21.9526C21.9526 31.928 21.8031 32.2532 21.5638 32.5193C21.3245 32.7558 20.9656 32.9036 20.6067 32.9036C20.2478 32.9036 19.9188 32.7558 19.6497 32.5193L19.1113 32.0167V34.9435H20.5768C21.3245 34.9435 21.9227 35.5347 21.9227 36.2738C21.9227 37.0129 21.3245 37.6041 20.5768 37.6041H19.8291L27.0968 44.7879L27.2164 44.6697Z" fill="#D90627"/>
<path d="M20.6067 37.7224C21.4143 37.7224 22.0722 37.072 22.0722 36.2738C22.0722 35.4756 21.4143 34.8252 20.6067 34.8252H19.1412V36.2738C19.1412 36.6581 19.2908 37.0129 19.5599 37.3085L19.9787 37.7224H20.6067Z" fill="#EE715A"/>
<path d="M9.24166 39.5848C9.63046 39.5848 9.98936 39.437 10.2884 39.171L11.8736 37.6041H11.1259C10.767 37.6041 10.438 37.4563 10.1688 37.2198C9.92955 36.9833 9.78 36.6285 9.78 36.2738C9.78 35.5347 10.3782 34.9435 11.1259 34.9435V34.8252H8.2846C7.89579 34.8252 7.5369 34.973 7.23781 35.2391L5.3536 37.1016C4.93489 37.5154 4.81525 38.1363 5.02461 38.698C5.26388 39.2301 5.77231 39.5848 6.37048 39.5848H9.24166Z" fill="#047253"/>
<path d="M11.754 37.7224L12.1727 37.3085C12.5914 36.8946 12.711 36.2738 12.5017 35.7417C12.2624 35.2095 11.754 34.8548 11.1558 34.8548C10.3483 34.8548 9.69031 35.5052 9.69031 36.3034C9.69031 36.6877 9.83985 37.0424 10.109 37.3381C10.3782 37.6041 10.767 37.7519 11.1558 37.7519H11.754V37.7224Z" fill="#40946F"/>
<path d="M26.8276 20.7532L22.0722 16.0231V15.1362H19.1412V16.6144C19.1412 16.9987 19.2908 17.3535 19.5599 17.6491L26.8276 24.8329V20.7532Z" fill="#047253"/>
<path d="M22.0722 12.5051V11.9434C22.0722 11.1452 21.4143 10.4949 20.6067 10.4949C19.7992 10.4949 19.1412 11.1452 19.1412 11.9434V12.5051H22.0722Z" fill="#047253"/>
<path d="M19.2609 28.2327L18.7824 27.7596C18.5132 27.4936 18.1244 27.3458 17.7356 27.3458H13.4588L13.9672 27.8483C14.2065 28.0848 14.356 28.4396 14.356 28.7944C14.356 29.1491 14.2065 29.4743 13.9672 29.7404C13.7279 29.9769 13.369 30.1247 13.0101 30.1247V30.2429H17.1375L19.2609 32.3419V28.2327Z" fill="#00789A"/>
<path d="M8.34448 30.2429H13.0401V30.1247C12.6812 30.1247 12.3522 29.9769 12.083 29.7404L11.1259 28.7944C10.767 28.4396 10.6474 27.9075 10.8269 27.4345L10.8568 27.3458H7.83605C7.50706 27.3458 7.17807 27.464 6.90889 27.671L4.54615 29.5334C4.48633 29.5926 4.42652 29.6517 4.3667 29.7108L4.27698 29.8291H4.99477C5.74248 29.8291 6.34064 30.4203 6.34064 31.1594V31.8689L8.34448 30.2429Z" fill="#00789A"/>
<path d="M20.6067 33.0514C20.9955 33.0514 21.3544 32.9036 21.6535 32.6375C21.9227 32.3715 22.0722 31.9872 22.0722 31.6028C22.0722 31.2185 21.9227 30.8638 21.6535 30.5681L19.1412 28.0848V32.1941L19.5599 32.608C19.859 32.9036 20.2179 33.0514 20.6067 33.0514Z" fill="#EA5358"/>
<path d="M13.7877 27.464L13.1297 26.8136C12.8605 26.5476 12.4717 26.3997 12.0829 26.3997C11.6941 26.3997 11.3352 26.5476 11.0361 26.8136C10.8866 26.9614 10.767 27.1388 10.6772 27.3753L10.6473 27.464H13.7877Z" fill="#00789A"/>
<path d="M13.0399 30.2429C13.4287 30.2429 13.7876 30.0951 14.0867 29.8291C14.3559 29.563 14.5054 29.1787 14.5054 28.7944C14.5054 28.41 14.3559 28.0553 14.0867 27.7596L13.668 27.3458H10.737L10.7071 27.3753C10.5276 27.9075 10.6473 28.4692 11.066 28.883L12.0231 29.8291C12.2922 30.0951 12.6511 30.2429 13.0399 30.2429Z" fill="#5D92AA"/>
<path d="M22.491 15.2841C23.2985 15.2841 23.9565 14.6337 23.9565 13.8355C23.9565 13.0373 23.2985 12.3869 22.491 12.3869H21.9227V15.2841H22.491Z" fill="#047253"/>
<path d="M19.2609 15.2841V12.3869H18.6927C17.8852 12.3869 17.2272 13.0373 17.2272 13.8355C17.2272 14.6337 17.8852 15.2841 18.6927 15.2841H19.2609Z" fill="#047253"/>
<path d="M22.0722 12.3869H19.1412V15.2841H22.0722V12.3869Z" fill="#40946F"/>
<path d="M7.74637 23.1774C7.74637 22.8226 7.59683 22.4974 7.35756 22.2314L6.81921 21.6992H9.78012V23.1478C9.78012 23.8869 10.3783 24.4782 11.126 24.4782C11.8737 24.4782 12.4719 23.8869 12.4719 23.1478V21.6992H14.4757C14.3262 21.1967 14.4458 20.635 14.8346 20.2506C15.1038 19.9846 15.4926 19.8368 15.8814 19.8368C16.2702 19.8368 16.6291 19.9846 16.9282 20.2506L18.8124 22.1131L19.7694 23.0591L19.7096 23.1183C19.4405 23.3548 19.261 23.7095 19.261 24.0938V26.6954L17.1375 24.5964H6.84912L7.38747 24.0643C7.62673 23.8573 7.74637 23.5321 7.74637 23.1774Z" fill="#EA542A"/>
<path d="M12.6213 21.847V19.482L12.5316 19.5116C11.8736 19.8072 11.2754 19.8072 11.1558 19.8072C11.0362 19.8072 10.438 19.8072 9.78003 19.5116L9.69031 19.482V21.847H12.6213Z" fill="#EA542A"/>
<path d="M11.1558 24.626C11.9633 24.626 12.6213 23.9756 12.6213 23.1774V21.7288H9.69031V23.1774C9.69031 23.9756 10.3483 24.626 11.1558 24.626Z" fill="#EE7439"/>
<path d="M9.80988 18.5064C9.80988 18.3586 9.83978 18.2108 9.8996 18.063C10.079 17.5309 10.5875 17.2057 11.1557 17.2057C11.724 17.2057 12.2025 17.5604 12.4119 18.063C12.4717 18.2108 12.5016 18.3586 12.5016 18.5064V19.689L12.5913 19.6594C12.6511 19.6298 12.711 19.6003 12.7708 19.5707C13.8774 19.009 14.5354 17.9447 14.5354 16.644V13.8355C14.5354 13.0373 13.8774 12.3869 13.0699 12.3869H9.24162C8.4341 12.3869 7.77612 13.0373 7.77612 13.8355V16.644C7.77612 17.9447 8.40419 19.0386 9.5407 19.5707C9.60052 19.6003 9.66034 19.6298 9.72015 19.6594L9.80988 19.689V18.5064Z" fill="#D90627"/>
<path d="M11.1558 19.955C11.2754 19.955 11.9035 19.9254 12.5914 19.6594L12.6213 19.6298V18.5064C12.6213 18.329 12.5914 18.1812 12.5316 18.0038C12.3222 17.4422 11.754 17.0578 11.1558 17.0578C10.5576 17.0578 9.98939 17.4422 9.78003 18.0038C9.72022 18.1517 9.69031 18.329 9.69031 18.5064V19.6298L9.72022 19.6594C10.4081 19.9254 11.0362 19.955 11.1558 19.955Z" fill="#EE715A"/>
<path d="M4.51622 26.4884C4.90502 26.4884 5.26392 26.3406 5.563 26.0745L7.14813 24.5077H6.40043C6.04153 24.5077 5.71254 24.3599 5.44337 24.1234C5.2041 23.8869 5.05456 23.5321 5.05456 23.1774C5.05456 22.8226 5.2041 22.4974 5.44337 22.2314C5.68263 21.9949 6.04153 21.847 6.40043 21.847H7.14813L5.563 20.2802C5.29383 20.0141 4.90502 19.8663 4.51622 19.8663H3.58906C3.20026 19.8663 2.84136 20.0141 2.54228 20.2802L1.58522 21.2262C1.31604 21.4923 1.1665 21.8766 1.1665 22.2609C1.1665 22.6157 1.28614 22.9409 1.5254 23.2069C1.31604 23.473 1.1665 23.7982 1.1665 24.153C1.1665 24.5373 1.31604 24.892 1.58522 25.1877L2.54228 26.1337C2.81145 26.3997 3.20026 26.5476 3.58906 26.5476H4.51622V26.4884Z" fill="#00789A"/>
<path d="M7.02851 24.626L7.44722 24.2121C7.71639 23.946 7.86593 23.5617 7.86593 23.1774C7.86593 22.7931 7.71639 22.4383 7.44722 22.1427L7.02851 21.7288H6.43034C6.04154 21.7288 5.68264 21.8766 5.38356 22.1427C5.11438 22.4087 4.96484 22.7931 4.96484 23.1774C4.96484 23.5617 5.11438 23.9165 5.38356 24.2121C5.65273 24.4781 6.04154 24.626 6.43034 24.626H7.02851Z" fill="#5D92AA"/>
<path d="M4.03767 36.0668C4.42648 36.0668 4.78538 35.919 5.08446 35.653L6.04152 34.7069C6.31069 34.4409 6.46023 34.0566 6.46023 33.6722V31.5437L6.31069 31.6619C6.07143 31.8393 5.77234 31.9576 5.47326 31.9576C5.32372 31.9576 5.17418 31.928 5.02464 31.8689C4.78537 31.7802 4.57602 31.6324 4.42648 31.455C4.33675 31.3368 4.27694 31.2185 4.21712 31.0707C4.06758 30.6272 4.1573 30.1247 4.48629 29.7404L4.57602 29.6221H2.42263C2.03383 29.6221 1.67493 29.7699 1.37585 30.036L0.418786 31.0411C7.25072e-05 31.455 -0.11956 32.0758 0.0897969 32.608C0.269246 33.0514 0.658052 33.3766 1.13658 33.4653C1.13658 34.2635 1.79456 34.8843 2.60208 34.9139C2.69181 35.3869 3.02079 35.7712 3.46942 35.9486C3.67877 36.0373 3.85822 36.0668 4.03767 36.0668Z" fill="#BD4779"/>
<path d="M5.4733 32.1054C5.80229 32.1054 6.13128 31.9872 6.40045 31.7802L6.49017 31.7211V31.1298C6.49017 30.3316 5.8322 29.6812 5.02468 29.6812H4.42651L4.3966 29.7108C4.03771 30.0951 3.91807 30.6568 4.12743 31.1594C4.18725 31.3072 4.24706 31.455 4.3667 31.5733C4.54615 31.7802 4.7555 31.928 5.02468 32.0463C5.14431 32.0758 5.29385 32.1054 5.4733 32.1054Z" fill="#8982A8"/>
<path d="M26.7081 20.7828V11.4409L27.2465 11.9434C27.4857 12.1799 27.8446 12.3278 28.2035 12.3278C28.5624 12.3278 28.8914 12.1799 29.1606 11.9434L29.6989 11.4409V20.7828L28.2334 22.2314L26.7081 20.7828Z" fill="#4F8922"/>
<path d="M26.7081 40.4422V35.0026L24.2855 32.608C24.0164 32.3419 23.8668 31.9576 23.8668 31.5733C23.8668 31.1889 24.0164 30.8342 24.2855 30.5386C24.5547 30.2725 24.9435 30.1247 25.3323 30.1247C25.7211 30.1247 26.08 30.2725 26.3791 30.5386L26.8576 31.0116V34.3818C26.8576 34.7365 27.0072 35.0617 27.2464 35.3278C27.4857 35.5643 27.8446 35.7121 28.2035 35.7121C28.5624 35.7121 28.8914 35.5643 29.1606 35.3278L29.6989 34.7956V40.4126L28.2334 41.8612L26.7081 40.4422Z" fill="#4F8922"/>
<path d="M26.7081 31.0707V24.5373L27.2465 25.0398C27.4857 25.2764 27.8446 25.4242 28.2035 25.4242C28.5624 25.4242 28.8914 25.2764 29.1606 25.0398L29.6989 24.5373V31.1003L28.2334 32.5488L26.7081 31.0707Z" fill="#4F8922"/>
<path d="M36.1589 37.7224L36.6674 37.2198C36.9066 36.9833 37.0562 36.6285 37.0562 36.2738V34.8252H45.1912V34.9435C44.6529 34.9435 44.1743 35.2687 43.965 35.7712C43.7556 36.2738 43.8752 36.8355 44.264 37.2198L44.7725 37.7224H36.1589Z" fill="#D90627"/>
<path d="M34.2748 31.6028V25.9859H34.3944C34.3944 26.3406 34.544 26.6658 34.7832 26.9319C35.0225 27.1684 35.3814 27.3162 35.7403 27.3162C36.0992 27.3162 36.4282 27.1684 36.6973 26.9319L37.2058 26.3998V28.2622L34.7832 30.6568C34.544 30.8933 34.3944 31.2481 34.3944 31.6028H34.2748Z" fill="#EA542A"/>
<path d="M34.2748 25.9859V24.1234C34.2748 23.3252 34.9328 22.6748 35.7403 22.6748C36.0992 22.6748 36.4581 22.8226 36.7273 23.0591L36.7871 23.1182L34.8131 25.0694C34.5739 25.3059 34.4243 25.6607 34.4243 26.0154H34.2748V25.9859Z" fill="#EA542A"/>
<path d="M29.1306 44.6697C29.1904 44.6105 29.2502 44.5514 29.3101 44.4627C29.3699 44.374 29.3998 44.3149 29.4297 44.2262C29.4596 44.1375 29.4895 44.0489 29.5194 43.9897C29.5493 43.901 29.5493 43.8123 29.5493 43.7237V40.3535L34.3047 35.653V31.5733H34.4244C34.4244 31.928 34.5739 32.2532 34.8132 32.5193C35.0524 32.7558 35.4113 32.9036 35.7702 32.9036C36.1291 32.9036 36.4581 32.7558 36.7273 32.5193L37.2656 32.0167V34.9435H35.8001C35.0524 34.9435 34.4543 35.5347 34.4543 36.2738C34.4543 37.0129 35.0524 37.6041 35.8001 37.6041H36.5478L29.2802 44.7879L29.1306 44.6697Z" fill="#EA542A"/>
<path d="M29.5193 43.7532C29.5193 43.3985 29.3698 43.0733 29.1305 42.8072L28.0837 41.7725L29.639 40.2352V43.7532H29.5193Z" fill="#4BA339"/>
<path d="M35.7403 37.7224C34.9328 37.7224 34.2748 37.072 34.2748 36.2738C34.2748 35.4756 34.9328 34.8252 35.7403 34.8252H37.2058V36.2738C37.2058 36.6581 37.0562 37.0129 36.7871 37.3085L36.3684 37.7224H35.7403Z" fill="#EE715A"/>
<path d="M47.1054 39.5848C46.7166 39.5848 46.3577 39.437 46.0586 39.171L44.4735 37.6041H45.2212C45.5801 37.6041 45.9091 37.4563 46.1783 37.2198C46.4175 36.9833 46.5671 36.6285 46.5671 36.2738C46.5671 35.5347 45.9689 34.9435 45.2212 34.9435V34.8252H48.0625C48.4513 34.8252 48.8102 34.973 49.1093 35.2391L50.9935 37.1016C51.4122 37.5154 51.5318 38.1363 51.3225 38.698C51.0832 39.2301 50.5748 39.5848 49.9766 39.5848H47.1054Z" fill="#4F8922"/>
<path d="M44.5931 37.7224L44.1744 37.3085C43.7557 36.8946 43.6361 36.2738 43.8454 35.7417C44.0847 35.2095 44.5931 34.8548 45.1913 34.8548C45.9988 34.8548 46.6568 35.5052 46.6568 36.3034C46.6568 36.6877 46.5072 37.0424 46.2381 37.3381C45.9689 37.6041 45.5801 37.7519 45.1913 37.7519H44.5931V37.7224Z" fill="#4BA339"/>
<path d="M29.5194 20.7532L34.2748 16.0527V15.1658H37.2058V16.644C37.2058 17.0283 37.0563 17.383 36.7871 17.6787L29.5194 24.8329V20.7532Z" fill="#4F8922"/>
<path d="M34.2748 12.5051V11.9434C34.2748 11.1452 34.9328 10.4949 35.7403 10.4949C36.5478 10.4949 37.2058 11.1452 37.2058 11.9434V12.5051H34.2748Z" fill="#4F8922"/>
<path d="M28.1735 25.4242C28.5324 25.4242 28.8614 25.2764 29.1305 25.0398C29.3698 24.8033 29.5193 24.4486 29.5193 24.0938C29.5193 23.7391 29.3698 23.4139 29.1305 23.1478L28.0837 22.1131L29.639 20.5758V24.6851L29.2202 25.1285C28.9511 25.3946 28.5623 25.5424 28.1735 25.5424V25.4242Z" fill="#4BA339"/>
<path d="M37.0862 28.2327L37.5647 27.7596C37.8339 27.4936 38.2227 27.3458 38.6115 27.3458H42.9183L42.4098 27.8483C42.1706 28.0848 42.021 28.4396 42.021 28.7944C42.021 29.1491 42.1706 29.4743 42.4098 29.7404C42.6491 29.9769 43.008 30.1247 43.3669 30.1247V30.2429H39.1798L37.0563 32.3419V28.2327H37.0862Z" fill="#BD4779"/>
<path d="M48.0027 30.2429H43.3071V30.1247C43.666 30.1247 43.995 29.9769 44.2642 29.7404L45.2212 28.7944C45.5801 28.4396 45.6998 27.9075 45.5203 27.4345L45.4904 27.3458H48.5111C48.8401 27.3458 49.1691 27.464 49.4383 27.671L51.801 29.5334C51.8609 29.5926 51.9207 29.6517 51.9805 29.7108L52.0702 29.8291H51.3524C50.6047 29.8291 50.0066 30.4203 50.0066 31.1594V31.8689L48.0027 30.2429Z" fill="#BD4779"/>
<path d="M35.7403 33.0514C35.3515 33.0514 34.9926 32.9036 34.6935 32.6375C34.4243 32.3715 34.2748 31.9872 34.2748 31.6028C34.2748 31.2185 34.4243 30.8638 34.6935 30.5681L37.2058 28.0848V32.1941L36.7871 32.608C36.488 32.9036 36.1291 33.0514 35.7403 33.0514Z" fill="#EE715A"/>
<path d="M42.5594 27.464L43.2174 26.8136C43.4866 26.5476 43.8754 26.3997 44.2642 26.3997C44.653 26.3997 45.0119 26.5476 45.311 26.8136C45.4605 26.9614 45.5802 27.1388 45.6699 27.3753L45.6998 27.464H42.5594Z" fill="#BD4779"/>
<path d="M43.3071 30.2429C42.9182 30.2429 42.5593 30.0951 42.2603 29.8291C41.9911 29.563 41.8416 29.1787 41.8416 28.7944C41.8416 28.41 41.9911 28.0553 42.2603 27.7596L42.679 27.3458H45.61L45.6399 27.3753C45.8193 27.9075 45.6997 28.4692 45.281 28.883L44.3239 29.8291C44.0847 30.0951 43.6959 30.2429 43.3071 30.2429Z" fill="#CF7294"/>
<path d="M29.5194 31.0411L29.9979 30.5681C30.2671 30.3021 30.6559 30.1542 31.0447 30.1542C31.4335 30.1542 31.7924 30.3021 32.0915 30.5681C32.3607 30.8342 32.5102 31.2185 32.5102 31.6028C32.5102 31.9871 32.3607 32.3419 32.0915 32.6375L29.5493 35.1504V31.0411H29.5194Z" fill="#047253"/>
<path d="M28.1735 35.7121C28.5324 35.7121 28.8614 35.5643 29.1305 35.3278C29.639 34.8252 29.639 33.9679 29.1305 33.4653L28.0837 32.4306L29.639 30.8933V35.0026L29.2202 35.4164C28.9511 35.6825 28.5623 35.8303 28.1735 35.8303V35.7121Z" fill="#40946F"/>
<path d="M26.7081 34.4113V30.9229L28.2634 32.4602L27.2166 33.4949C26.9773 33.7314 26.8278 34.0861 26.8278 34.4409H26.7081V34.4113Z" fill="#4BA339"/>
<path d="M33.8561 15.2841C33.0486 15.2841 32.3906 14.6337 32.3906 13.8355C32.3906 13.0373 33.0486 12.3869 33.8561 12.3869H34.4244V15.2841H33.8561Z" fill="#4F8922"/>
<path d="M37.0862 15.2841V12.3869H37.6544C38.462 12.3869 39.1199 13.0373 39.1199 13.8355C39.1199 14.6337 38.462 15.2841 37.6544 15.2841H37.0862Z" fill="#4F8922"/>
<path d="M37.2058 12.3869H34.2748V15.2841H37.2058V12.3869Z" fill="#4BA339"/>
<path d="M28.1735 4.07968H28.1136V3.57711L28.1735 3.51799L29.1305 2.57197C29.2202 2.48328 29.2801 2.39459 29.3399 2.27634C29.639 1.74421 29.5492 1.12338 29.1305 0.709502C29.1006 0.679939 29.0707 0.650376 29.0408 0.620813L29.1305 0.532124C29.3997 0.29562 29.7287 0.177368 30.0876 0.177368C30.4764 0.177368 30.8353 0.325183 31.1344 0.59125L32.0914 1.53727C32.3606 1.80333 32.5101 2.18765 32.5101 2.57197V4.02056C32.6896 4.07968 32.869 4.19793 33.0186 4.34575L33.9756 5.29176C34.2448 5.55783 34.3944 5.94215 34.3944 6.32647C34.3944 6.71079 34.2448 7.06554 33.9756 7.36117L29.2202 12.0617L29.1305 11.973C29.3698 11.7365 29.5193 11.3817 29.5193 11.027C29.5193 10.9383 29.5193 10.8792 29.4894 10.7905C29.4595 10.7018 29.4595 10.6131 29.4296 10.554C29.3997 10.4653 29.3399 10.4062 29.31 10.3175C29.2502 10.2288 29.1903 10.1697 29.1305 10.1105L28.1136 9.10539V8.60282H28.1735" fill="#D90627"/>
<path d="M28.1735 8.60283V9.07583L27.2165 10.081C27.1567 10.1401 27.0968 10.1992 27.037 10.2879C26.9772 10.3766 26.9473 10.4357 26.9174 10.5244C26.8875 10.6131 26.8576 10.7018 26.8277 10.7609C26.7978 10.8496 26.7978 10.9383 26.7978 11.027C26.7978 11.3817 26.9473 11.7069 27.1866 11.973L27.0968 12.0617L22.4013 7.36118C22.1321 7.09511 21.9825 6.7108 21.9825 6.32648C21.9825 5.94216 22.1321 5.5874 22.4013 5.29177L23.3583 4.34576C23.5079 4.19794 23.6873 4.07969 23.8668 4.02056V2.60154C23.8668 2.21722 24.0163 1.86247 24.2855 1.56684L25.2425 0.620821C25.5117 0.354755 25.9005 0.20694 26.2893 0.20694C26.6482 0.20694 26.9772 0.325192 27.2464 0.561696L27.2763 0.532132L27.3062 0.50257C27.3361 0.473007 27.366 0.443444 27.3959 0.443444C27.4258 0.413881 27.4557 0.413881 27.4856 0.384318L27.5455 0.354755C27.5754 0.325192 27.6053 0.325192 27.6651 0.295629C27.695 0.295629 27.7249 0.266066 27.7548 0.266066H27.8146C27.8445 0.266066 27.8745 0.236503 27.9343 0.236503C27.9642 0.236503 27.9941 0.236503 28.0539 0.236503H28.1137C28.1436 0.236503 28.2034 0.236503 28.2333 0.236503C28.2633 0.236503 28.2932 0.236503 28.353 0.236503H28.4128C28.4427 0.236503 28.4726 0.236503 28.5324 0.236503C28.5623 0.236503 28.5922 0.266066 28.6521 0.266066H28.7119C28.7418 0.266066 28.7717 0.295629 28.8315 0.295629C28.8614 0.295629 28.8913 0.325192 28.9212 0.354755L28.9511 0.384318C28.9811 0.413881 29.011 0.413881 29.0409 0.443444C29.0708 0.473007 29.1007 0.473007 29.1306 0.50257L29.1904 0.532132C29.2203 0.561695 29.2502 0.591258 29.31 0.620821C29.7587 1.06427 29.8783 1.77378 29.5493 2.33547C29.4596 2.48329 29.3998 2.57198 29.31 2.66067C29.31 2.66067 28.3829 3.57712 28.2633 3.63625V4.05013" fill="#9C1645"/>
<path d="M29.1306 10.081C28.8913 9.84448 28.5324 9.69667 28.1735 9.69667C27.8146 9.69667 27.4856 9.84448 27.2164 10.081L27.1267 9.9923L28.1735 8.9576L29.2203 9.9923L29.1306 10.081Z" fill="#EA5358"/>
<path d="M26.7081 43.7532V40.2648L28.2634 41.802L27.2166 42.8367C26.9773 43.0732 26.8278 43.428 26.8278 43.7828H26.7081V43.7532Z" fill="#4BA339"/>
<path d="M48.6008 23.1774C48.6008 22.8226 48.7504 22.4974 48.9896 22.2314L49.528 21.6992H46.5671V23.1478C46.5671 23.8869 45.9689 24.4782 45.2212 24.4782C44.4735 24.4782 43.8753 23.8869 43.8753 23.1478V21.6992H41.8715C42.021 21.1967 41.9014 20.635 41.5126 20.2506C41.2434 19.9846 40.8546 19.8368 40.4658 19.8368C40.077 19.8368 39.7181 19.9846 39.419 20.2506L37.5348 22.1131L36.5778 23.0591L36.6376 23.1183C36.9067 23.3548 37.0862 23.7095 37.0862 24.0938V26.6954L39.2097 24.5964H49.528L48.9896 24.0643C48.7205 23.8573 48.6008 23.5321 48.6008 23.1774Z" fill="#D90627"/>
<path d="M43.7258 21.847V19.482L43.8156 19.5116C44.4735 19.8072 45.0717 19.8072 45.1913 19.8072C45.311 19.8072 45.9091 19.8072 46.5671 19.5116L46.6568 19.482V21.847H43.7258Z" fill="#D90627"/>
<path d="M45.1913 24.626C44.3838 24.626 43.7258 23.9756 43.7258 23.1774V21.7288H46.6568V23.1774C46.6568 23.9756 45.9989 24.626 45.1913 24.626Z" fill="#EA5358"/>
<path d="M46.5371 18.5064C46.5371 18.3586 46.5072 18.2108 46.4474 18.063C46.268 17.5309 45.7595 17.2057 45.1913 17.2057C44.623 17.2057 44.1445 17.5604 43.9351 18.063C43.8753 18.2108 43.8454 18.3586 43.8454 18.5064V19.689L43.7557 19.6594C43.6959 19.6298 43.636 19.6003 43.5762 19.5707C42.4696 19.009 41.8116 17.9447 41.8116 16.644V13.8355C41.8116 13.0373 42.4696 12.3869 43.2771 12.3869H47.0755C47.883 12.3869 48.541 13.0373 48.541 13.8355V16.644C48.541 17.9447 47.9129 19.0386 46.7764 19.5707C46.7166 19.6003 46.6568 19.6298 46.597 19.6594L46.5072 19.689V18.5064H46.5371Z" fill="#4F8922"/>
<path d="M45.1913 19.955C45.0717 19.955 44.4436 19.9254 43.7557 19.6594L43.7258 19.6298V18.5064C43.7258 18.329 43.7557 18.1812 43.8156 18.0038C44.0249 17.4422 44.5932 17.0578 45.1913 17.0578C45.7895 17.0578 46.3577 17.4422 46.5671 18.0038C46.6269 18.1517 46.6568 18.329 46.6568 18.5064V19.6298L46.6269 19.6594C45.939 19.9254 45.311 19.955 45.1913 19.955Z" fill="#4BA339"/>
<path d="M51.8309 26.4884C51.4421 26.4884 51.0832 26.3406 50.7841 26.0745L49.199 24.5077H49.9467C50.3056 24.5077 50.6346 24.3599 50.9037 24.1234C51.143 23.8869 51.2925 23.5321 51.2925 23.1774C51.2925 22.8226 51.143 22.4974 50.9037 22.2314C50.6645 21.9949 50.3056 21.847 49.9467 21.847H49.199L50.7841 20.2802C51.0533 20.0141 51.4421 19.8663 51.8309 19.8663H52.788C53.1768 19.8663 53.5357 20.0141 53.8347 20.2802L54.7918 21.2262C55.061 21.4923 55.2105 21.8766 55.2105 22.2609C55.2105 22.6157 55.0909 22.9409 54.8516 23.2069C55.061 23.473 55.2105 23.7982 55.2105 24.153C55.2105 24.5373 55.061 24.892 54.7918 25.1877L53.8347 26.1337C53.5656 26.3997 53.1768 26.5476 52.788 26.5476H51.8309V26.4884Z" fill="#BD4779"/>
<path d="M49.3186 24.626L48.8999 24.2121C48.6307 23.946 48.4812 23.5617 48.4812 23.1774C48.4812 22.7931 48.6307 22.4383 48.8999 22.1427L49.3186 21.7288H49.9168C50.3056 21.7288 50.6645 21.8766 50.9636 22.1427C51.2327 22.4087 51.3823 22.7931 51.3823 23.1774C51.3823 23.5617 51.2327 23.9165 50.9636 24.2121C50.6944 24.4781 50.3056 24.626 49.9168 24.626H49.3186Z" fill="#CF7294"/>
<path d="M52.3094 36.0668C51.9206 36.0668 51.5617 35.919 51.2626 35.653L50.3056 34.7069C50.0364 34.4409 49.8868 34.0566 49.8868 33.6722V31.5437L50.0364 31.6619C50.2756 31.8393 50.5747 31.9576 50.8738 31.9576C51.0234 31.9576 51.1729 31.928 51.3224 31.8689C51.5617 31.7802 51.7711 31.6324 51.9206 31.455C52.0103 31.3368 52.0701 31.2185 52.13 31.0707C52.2795 30.6272 52.1898 30.1247 51.8608 29.7404L51.7711 29.6221H53.9244C54.3132 29.6221 54.6721 29.7699 54.9712 30.036L55.9283 30.982C56.347 31.3959 56.4666 32.0167 56.2573 32.5488C56.0778 32.9923 55.689 33.3175 55.2105 33.4062C55.2105 34.2044 54.5525 34.8252 53.745 34.8548C53.6553 35.3278 53.3263 35.7121 52.8777 35.8895C52.6683 36.0373 52.4888 36.0668 52.3094 36.0668Z" fill="#EA542A"/>
<path d="M50.8738 32.1054C50.5448 32.1054 50.2158 31.9872 49.9467 31.7802L49.8569 31.7211V31.1298C49.8569 30.3316 50.5149 29.6812 51.3224 29.6812H51.9206L51.9505 29.7108C52.3094 30.0951 52.429 30.6568 52.2197 31.1594C52.1599 31.3072 52.1 31.455 51.9804 31.5733C51.801 31.7802 51.5916 31.928 51.3224 32.0463C51.2028 32.0758 51.0533 32.1054 50.8738 32.1054Z" fill="#CF7294"/>
<path d="M28.1736 45.2314C27.7848 45.2314 27.4259 45.0836 27.1268 44.8175C26.8577 44.5514 26.7081 44.1671 26.7081 43.7828C26.7081 43.3985 26.8577 43.0437 27.1268 42.7481L28.1736 41.7134L29.2204 42.7481C29.7887 43.3098 29.7887 44.2262 29.2204 44.7879C28.9213 45.0836 28.5624 45.2314 28.1736 45.2314Z" fill="#67B545"/>
<path d="M28.1736 35.8599C27.7848 35.8599 27.4259 35.7121 27.1268 35.446C26.8577 35.1799 26.7081 34.7956 26.7081 34.4113C26.7081 34.027 26.8577 33.6722 27.1268 33.3766L28.1736 32.3419L29.2204 33.3766C29.7887 33.9383 29.7887 34.8548 29.2204 35.4165C28.9213 35.7121 28.5624 35.8599 28.1736 35.8599Z" fill="#67B545"/>
<path d="M26.7081 24.1234V20.6054L28.2634 22.1427L27.2166 23.1774C26.9773 23.4139 26.8278 23.7686 26.8278 24.1234H26.7081Z" fill="#40946F"/>
<path d="M28.1736 25.572C27.7848 25.572 27.4259 25.4242 27.1268 25.1581C26.8577 24.892 26.7081 24.5077 26.7081 24.1234C26.7081 23.7391 26.8577 23.3843 27.1268 23.0887L28.1736 22.054L29.2204 23.0887C29.7887 23.6504 29.7887 24.5668 29.2204 25.1285C28.9213 25.4242 28.5624 25.572 28.1736 25.572Z" fill="#67B545"/>
<path d="M28.1736 0C27.7848 0 27.3661 0.147815 27.067 0.443445C26.4389 1.06427 26.4389 2.03985 27.067 2.66067L28.1437 3.72494C28.1736 3.7545 28.1736 3.7545 28.2035 3.78406C28.2334 3.78406 28.2334 3.7545 28.2633 3.72494L29.2802 2.66067C29.9083 2.03985 29.9083 1.06427 29.2802 0.443445C29.2503 0.413882 29.2503 0.413882 29.2204 0.384319C28.9512 0.147815 28.5624 0 28.1736 0Z" fill="#EA5358"/>
<path d="M28.1736 12.4756C27.7848 12.4756 27.4259 12.3278 27.1268 12.0617C26.8577 11.7956 26.7081 11.4113 26.7081 11.027C26.7081 10.9383 26.7081 10.8496 26.738 10.7609C26.7679 10.6722 26.7679 10.5836 26.8278 10.4949C26.8577 10.4062 26.9175 10.3175 26.9474 10.2288C27.0072 10.1401 27.067 10.0514 27.1268 9.9923C27.396 9.72623 27.7848 9.57841 28.1736 9.57841C28.5624 9.57841 28.9213 9.72623 29.2204 9.9923C29.2802 10.0514 29.34 10.1401 29.3999 10.2288C29.4597 10.3175 29.4896 10.4062 29.5494 10.4949C29.5793 10.5836 29.6092 10.6722 29.6391 10.7609C29.669 10.8792 29.669 10.9679 29.669 11.0566C29.669 11.4409 29.5195 11.7956 29.2503 12.0913C28.9213 12.3278 28.5624 12.4756 28.1736 12.4756Z" fill="#EA5358"/>
<path d="M20.6067 27.4345C20.9955 27.4345 21.3544 27.2866 21.6535 27.0206C21.9227 26.7545 22.0722 26.3702 22.0722 25.9859C22.0722 25.6016 21.9227 25.2468 21.6535 24.9512L19.6796 23L19.6198 23.0296C19.3207 23.2956 19.1412 23.68 19.1412 24.0938V26.5771L19.5599 26.991C19.859 27.2866 20.2179 27.4345 20.6067 27.4345Z" fill="#EE715A"/>
<path d="M35.7403 27.4345C35.3515 27.4345 34.9926 27.2866 34.6935 27.0206C34.4243 26.7545 34.2748 26.3702 34.2748 25.9859C34.2748 25.6016 34.4243 25.2468 34.6935 24.9512L36.6674 23L36.7273 23.0296C37.0263 23.2956 37.2058 23.68 37.2058 24.0938V26.5771L36.7871 26.991C36.488 27.2866 36.1291 27.4345 35.7403 27.4345Z" fill="#EE715A"/>
<path d="M28.1735 12.4756C29.1811 12.4756 29.9979 11.6682 29.9979 10.6722C29.9979 9.67628 29.1811 8.8689 28.1735 8.8689C27.1659 8.8689 26.3491 9.67628 26.3491 10.6722C26.3491 11.6682 27.1659 12.4756 28.1735 12.4756Z" fill="#EA5358"/>
<path d="M28.1736 4.34576C26.9473 4.34576 25.8108 4.67096 24.8538 5.26222C23.9864 5.79435 23.8967 7.00643 24.6145 7.71594L24.6444 7.74551C25.1528 8.24808 25.9604 8.33677 26.5884 7.98201C27.067 7.71594 27.6053 7.56813 28.2035 7.56813C28.8016 7.56813 29.34 7.71594 29.8185 7.98201C30.4466 8.33677 31.2541 8.24808 31.7625 7.74551L31.7924 7.71594C32.5102 7.00643 32.4205 5.79435 31.5532 5.26222C30.5363 4.67096 29.3998 4.34576 28.1736 4.34576Z" fill="#EA5358"/>
<path d="M57.3938 57.3522C57.3938 56.9679 57.6929 56.6722 58.0817 56.6722H59.5173C59.936 56.6722 60.3547 56.8792 60.6239 57.2339L63.7941 61.7866L67.1738 57.2635C67.413 56.9087 67.8317 56.7018 68.2505 56.7018H69.5066C69.8954 56.7018 70.1945 56.9974 70.1945 57.3818V68.1131C70.1945 68.4974 69.8954 68.7931 69.5066 68.7931H68.1009C67.7121 68.7931 67.413 68.4974 67.413 68.1131V61.0771L64.1231 65.6298C64.0633 65.7185 63.9437 65.7776 63.7941 65.7776C63.6745 65.7776 63.5549 65.7185 63.4652 65.6298L60.2052 61.1363V68.1131C60.2052 68.4974 59.9061 68.7931 59.5173 68.7931H58.1116C57.7228 68.7931 57.4237 68.4974 57.4237 68.1131V57.3522H57.3938Z" fill="black"/>
<path d="M77.9107 56.4653C81.6193 56.4653 84.4008 58.8599 84.4008 62.7327C84.4008 66.3985 81.6193 68.9704 77.9107 68.9704C74.2021 68.9704 71.4207 66.5758 71.4207 62.7327C71.3908 59.2147 74.0227 56.4653 77.9107 56.4653ZM77.9107 66.3689C80.2436 66.3689 81.4399 64.7429 81.4399 62.7031C81.4399 60.4859 79.8847 59.0373 77.9107 59.0373C75.877 59.0373 74.3816 60.4859 74.3816 62.7031C74.3816 64.7725 75.9368 66.3689 77.9107 66.3689Z" fill="black"/>
<path d="M85.6271 57.3522C85.6271 56.9679 85.9262 56.6722 86.315 56.6722H87.7206C88.1095 56.6722 88.4085 56.9679 88.4085 57.3522V66.162H92.7153C93.1041 66.162 93.4032 66.4576 93.4032 66.8419V68.0836C93.4032 68.4679 93.1041 68.7635 92.7153 68.7635H86.315C85.9262 68.7635 85.6271 68.4679 85.6271 68.0836V57.3522Z" fill="black"/>
<path d="M94.45 57.3522C94.45 56.9679 94.7789 56.6722 95.1378 56.6722C96.0351 56.6722 97.6501 56.6131 98.3081 56.6131C103.213 56.6131 105.187 59.392 105.187 62.6144C105.187 66.0141 102.854 68.7931 98.1885 68.7931C97.6202 68.7931 96.2744 68.7635 95.1678 68.7635C94.7789 68.7635 94.4799 68.4679 94.4799 68.0836V57.3522H94.45ZM97.2613 59.2442V66.162C97.6202 66.1915 97.8595 66.1915 98.2782 66.1915C100.701 66.1915 102.226 64.8907 102.226 62.5848C102.226 60.3676 100.551 59.1851 98.3081 59.1851C97.9791 59.2147 97.5903 59.2147 97.2613 59.2442Z" fill="black"/>
<path d="M112.724 56.4653C116.432 56.4653 119.214 58.8599 119.214 62.7327C119.214 66.3985 116.432 68.9704 112.724 68.9704C109.015 68.9704 106.234 66.5758 106.234 62.7327C106.234 59.2147 108.836 56.4653 112.724 56.4653ZM112.724 66.3689C115.057 66.3689 116.253 64.7429 116.253 62.7031C116.253 60.4859 114.698 59.0373 112.724 59.0373C110.69 59.0373 109.195 60.4859 109.195 62.7031C109.195 64.7725 110.78 66.3689 112.724 66.3689Z" fill="black"/>
<path d="M126.003 68.1131C125.854 68.4974 125.465 68.7339 125.076 68.7339H124.298C123.88 68.7339 123.521 68.4974 123.341 68.1131L118.975 57.2931C118.855 56.9974 119.064 56.6722 119.393 56.6722H121.008C121.427 56.6722 121.786 56.9383 121.936 57.3226L124.777 64.6542L127.469 57.3226C127.618 56.9383 127.977 56.6722 128.396 56.6722H129.831C130.16 56.6722 130.4 56.9974 130.28 57.2931L126.003 68.1131Z" fill="black"/>
<path d="M132.374 57.2931C132.523 56.9087 132.912 56.6722 133.331 56.6722H134.467C134.886 56.6722 135.275 56.9087 135.424 57.2931L139.97 68.1427C140.09 68.4383 139.88 68.7635 139.551 68.7635H137.936C137.518 68.7635 137.159 68.4974 137.009 68.1427L136.262 66.2211H131.416L130.669 68.1427C130.519 68.527 130.13 68.7635 129.742 68.7635H128.306C127.977 68.7635 127.768 68.4383 127.887 68.1427L132.374 57.2931ZM132.433 63.6195H135.185L133.809 60.1902L132.433 63.6195Z" fill="black"/>
</g>
<defs>
<clipPath id="clip0">
<rect width="140" height="69" fill="white"/>
</clipPath>
</defs>
</svg>
