<?xml version="1.0" encoding="utf-8"?>
<!-- Generator: Adobe Illustrator 21.0.0, SVG Export Plug-In . SVG Version: 6.00 Build 0)  -->
<svg version="1.1" id="Layer_1" xmlns="http://www.w3.org/2000/svg" xmlns:xlink="http://www.w3.org/1999/xlink" x="0px" y="0px"
	 viewBox="0 0 136.4 67.4" style="enable-background:new 0 0 136.4 67.4;" xml:space="preserve">
<style type="text/css">
	.st0{fill:#515254;}
	.st1{fill:#F15F35;}
	.st2{fill:#DF1832;}
	.st3{fill:#F3775F;}
	.st4{fill:#007455;}
	.st5{fill:#369672;}
	.st6{fill:#00799B;}
	.st7{fill:#F15D5F;}
	.st8{fill:#488CA7;}
	.st9{fill:#F47A42;}
	.st10{fill:#BA5080;}
	.st11{fill:#7C78A1;}
	.st12{fill:#448A31;}
	.st13{fill:#47A848;}
	.st14{fill:#CB7394;}
	.st15{fill:#98174B;}
	.st16{fill:#63BC55;}
	.st17{fill:#293896;}
	.st18{fill-rule:evenodd;clip-rule:evenodd;fill:#293896;}
	.st19{fill-rule:evenodd;clip-rule:evenodd;fill:#ED1C24;}
	.st20{fill:none;stroke:#FFFFFF;stroke-width:1.8286;stroke-miterlimit:22.9256;}
	.st21{fill-rule:evenodd;clip-rule:evenodd;fill:#FFFFFF;}
	.st22{fill:none;stroke:#293896;stroke-width:0.8942;stroke-miterlimit:22.9256;}
	.st23{fill:none;stroke:#ED1C24;stroke-width:0.8942;stroke-miterlimit:22.9256;}
	.st24{fill:#D4A62B;}
	.st25{fill:#FCD603;}
	.st26{fill:#D12528;}
	.st27{fill:#FEFDFB;}
	.st28{fill:#344D9D;}
</style>
<g>
	<g>
		<path d="M55.9,41.6h1.6v9.2h-1.6V41.6z"/>
		<path d="M66.5,50.8l-5.1-6.4v6.4h-1.5v-9.2h1.3l5.1,6.4v-6.4h1.5v9.2H66.5z"/>
		<path d="M74,50.8h-1.2l-3.8-9.2h1.7l2.8,6.8l2.6-6.8h1.6L74,50.8z"/>
		<path d="M78.8,41.6h5.4v1.5h-3.7v2.3h3.3v1.5h-3.3v2.4h3.9v1.5h-5.5V41.6z"/>
		<path d="M85.7,44c0-1.4,1.1-2.5,2.9-2.5c1.1,0,2.1,0.4,2.7,1l-0.9,1.2c-0.5-0.4-0.9-0.7-1.6-0.7c-0.8,0-1.3,0.4-1.3,1
			c0,1.9,4.2,1.3,4.2,4.4c0,1.5-1.4,2.6-3.1,2.6c-1.2,0-2.6-0.5-3-1.4l0.9-1.1c0.5,0.7,1.4,1,2.1,1c0.8,0,1.4-0.4,1.4-1.1
			C89.9,46.6,85.7,47,85.7,44z"/>
		<path d="M92.3,41.6h7.6v1.5h-3v7.7h-1.6v-7.7h-3V41.6z"/>
	</g>
	<g>
		<path d="M42.6,41.2h-2.9c-1.2,0-2.3,0.5-3.1,1.3l-9,8.9c-0.1,0.1-0.2,0.1-0.2,0l-9-8.9c-0.8-0.8-2-1.3-3.1-1.3h-2.9
			c-1,0-1.8,0.8-1.8,1.8v22.5c0,1,0.8,1.8,1.8,1.8h2.9c1,0,1.8-0.8,1.8-1.8V50.7c0-0.1,0.1-0.1,0.1,0l8.7,8.6c0.4,0.4,1,0.7,1.6,0.7
			c0.6,0,1.2-0.2,1.6-0.7l8.7-8.6c0.1,0,0.2,0,0.1,0v14.8c0,1,0.8,1.8,1.8,1.8h2.9c1,0,1.8-0.8,1.8-1.8V43
			C44.5,42,43.6,41.2,42.6,41.2"/>
		<g>
			<g>
				<path class="st1" d="M19.7,36.8l-0.5-0.5c-0.2-0.2-0.4-0.6-0.4-0.9V34h-7.9v0.1c0.5,0,1,0.3,1.2,0.8c0.2,0.5,0.1,1-0.3,1.4
					l-0.5,0.5H19.7z"/>
				<path class="st2" d="M21.5,30.8v-5.5h-0.1c0,0.3-0.1,0.7-0.4,0.9c-0.2,0.2-0.6,0.4-0.9,0.4c-0.3,0-0.7-0.1-0.9-0.4l-0.5-0.5v1.8
					l2.4,2.3c0.2,0.2,0.4,0.6,0.4,0.9H21.5z"/>
				<path class="st2" d="M21.5,25.4v-1.8c0-0.8-0.6-1.4-1.4-1.4c-0.4,0-0.7,0.1-1,0.4l-0.1,0l1.9,1.9c0.2,0.2,0.4,0.6,0.4,0.9H21.5z
					"/>
				<path class="st2" d="M26.5,43.6c-0.1-0.1-0.1-0.1-0.2-0.2c-0.1-0.1-0.1-0.2-0.1-0.2c0-0.1-0.1-0.2-0.1-0.2c0-0.1,0-0.2,0-0.2
					v-3.3l-4.6-4.6v-4h-0.1c0,0.3-0.1,0.7-0.4,0.9c-0.2,0.2-0.6,0.4-0.9,0.4c-0.3,0-0.7-0.1-0.9-0.4l-0.5-0.5v2.9h1.4
					c0.7,0,1.3,0.6,1.3,1.3c0,0.7-0.6,1.3-1.3,1.3h-0.7L26.5,43.6L26.5,43.6z"/>
				<path class="st3" d="M20.1,36.8c0.8,0,1.4-0.6,1.4-1.4c0-0.8-0.6-1.4-1.4-1.4h-1.4v1.4c0,0.4,0.1,0.7,0.4,1l0.4,0.4H20.1z"/>
				<path class="st4" d="M9,38.6c0.4,0,0.7-0.1,1-0.4l1.6-1.5h-0.7c-0.3,0-0.7-0.1-0.9-0.4c-0.2-0.2-0.4-0.6-0.4-0.9
					c0-0.7,0.6-1.3,1.3-1.3V34H8.1c-0.4,0-0.7,0.1-1,0.4l-1.8,1.8c-0.4,0.4-0.5,1-0.3,1.5c0.2,0.5,0.7,0.9,1.3,0.9H9z"/>
				<path class="st5" d="M11.5,36.8l0.4-0.4c0.4-0.4,0.5-1,0.3-1.5C12,34.3,11.4,34,10.9,34c-0.8,0-1.4,0.6-1.4,1.4
					c0,0.4,0.1,0.7,0.4,1c0.3,0.3,0.6,0.4,1,0.4H11.5z"/>
				<path class="st4" d="M26.2,20.2l-4.6-4.6v-0.9h-2.9v1.5c0,0.4,0.1,0.7,0.4,1l7.1,7V20.2z"/>
				<path class="st4" d="M21.5,12.2v-0.5c0-0.8-0.6-1.4-1.4-1.4c-0.8,0-1.4,0.6-1.4,1.4v0.5H21.5z"/>
				<path class="st6" d="M18.8,27.6l-0.5-0.4c-0.3-0.3-0.6-0.4-1-0.4h-4.2l0.5,0.5c0.2,0.2,0.4,0.6,0.4,0.9c0,0.3-0.1,0.7-0.4,0.9
					c-0.2,0.2-0.6,0.4-0.9,0.4v0.1h4l2.1,2V27.6z"/>
				<path class="st6" d="M8.1,29.5h4.6v-0.1c-0.3,0-0.7-0.1-0.9-0.4l-0.9-0.9c-0.4-0.3-0.5-0.9-0.3-1.3l0-0.1h-3
					c-0.3,0-0.6,0.1-0.9,0.3l-2.3,1.8c-0.1,0-0.1,0.1-0.2,0.2l-0.1,0.1h0.7c0.7,0,1.3,0.6,1.3,1.3v0.7L8.1,29.5z"/>
				<path class="st7" d="M20.1,32.3c0.4,0,0.7-0.1,1-0.4c0.3-0.3,0.4-0.6,0.4-1c0-0.4-0.1-0.7-0.4-1l-2.4-2.4v4l0.4,0.4
					C19.3,32.1,19.7,32.3,20.1,32.3"/>
				<path class="st6" d="M13.4,26.8l-0.6-0.6c-0.3-0.3-0.6-0.4-1-0.4c-0.4,0-0.7,0.1-1,0.4c-0.1,0.1-0.3,0.3-0.3,0.5l0,0.1H13.4z"/>
				<path class="st8" d="M12.7,29.5c0.4,0,0.7-0.1,1-0.4c0.3-0.3,0.4-0.6,0.4-1c0-0.4-0.1-0.7-0.4-1l-0.4-0.4h-2.8l0,0
					c-0.2,0.5-0.1,1.1,0.3,1.5l0.9,0.9C12,29.4,12.3,29.5,12.7,29.5"/>
				<path class="st4" d="M21.9,14.9c0.8,0,1.4-0.6,1.4-1.4c0-0.8-0.6-1.4-1.4-1.4h-0.5v2.8H21.9z"/>
				<path class="st4" d="M18.8,14.9v-2.8h-0.5c-0.8,0-1.4,0.6-1.4,1.4c0,0.8,0.6,1.4,1.4,1.4H18.8z"/>
				<rect x="18.7" y="12.1" class="st5" width="2.9" height="2.8"/>
				<path class="st1" d="M7.6,22.6c0-0.3-0.1-0.7-0.4-0.9l-0.5-0.5h2.9v1.4c0,0.7,0.6,1.3,1.3,1.3c0.7,0,1.3-0.6,1.3-1.3v-1.4h1.9h0
					c-0.2-0.5,0-1,0.4-1.4c0.3-0.3,0.6-0.4,1-0.4c0.4,0,0.7,0.1,1,0.4l1.8,1.8h0v0l0.9,0.9l0,0c-0.3,0.2-0.4,0.6-0.4,1v2.5l-2.1-2
					H6.7l0.5-0.5C7.4,23.3,7.6,23,7.6,22.6"/>
				<path class="st1" d="M12.3,21.3V19l-0.1,0c-0.6,0.3-1.2,0.3-1.3,0.3c-0.1,0-0.7,0-1.3-0.3l-0.1,0v2.3H12.3z"/>
				<path class="st9" d="M10.9,24c0.8,0,1.4-0.6,1.4-1.4v-1.4l-2.9,0v1.4C9.4,23.4,10.1,24,10.9,24"/>
				<path class="st2" d="M9.6,18.1c0-0.1,0-0.3,0.1-0.4c0.2-0.5,0.7-0.8,1.2-0.8c0.5,0,1,0.3,1.2,0.8c0.1,0.1,0.1,0.3,0.1,0.4v1.2
					l0.1,0c0.1,0,0.1,0,0.2-0.1c1.1-0.5,1.7-1.6,1.7-2.9v-2.7c0-0.8-0.6-1.4-1.4-1.4H9c-0.8,0-1.4,0.6-1.4,1.4v2.7
					c0,1.3,0.6,2.3,1.7,2.9c0.1,0,0.1,0.1,0.2,0.1l0.1,0V18.1z"/>
				<path class="st3" d="M10.9,19.5c0.1,0,0.7,0,1.4-0.3l0,0v-1.1c0-0.2,0-0.3-0.1-0.5c-0.2-0.6-0.7-0.9-1.3-0.9
					c-0.6,0-1.1,0.4-1.3,0.9c-0.1,0.2-0.1,0.3-0.1,0.5v1.1l0,0C10.1,19.5,10.7,19.5,10.9,19.5"/>
				<path class="st6" d="M4.4,25.9c0.4,0,0.7-0.1,1-0.4L7,23.9H6.3c-0.3,0-0.7-0.1-0.9-0.4C5.1,23.3,5,23,5,22.6
					c0-0.3,0.1-0.7,0.4-0.9c0.2-0.2,0.6-0.4,0.9-0.4H7l-1.6-1.5c-0.3-0.3-0.6-0.4-1-0.4H3.5c-0.4,0-0.7,0.1-1,0.4l-0.9,0.9
					c-0.3,0.3-0.4,0.6-0.4,1c0,0.3,0.1,0.7,0.3,0.9c-0.2,0.3-0.3,0.6-0.3,0.9c0,0.4,0.1,0.7,0.4,1l0.9,0.9c0.3,0.3,0.6,0.4,1,0.4
					H4.4z"/>
				<path class="st8" d="M6.8,24l0.4-0.4c0.3-0.3,0.4-0.6,0.4-1c0-0.4-0.1-0.7-0.4-1l-0.4-0.4H6.3c-0.4,0-0.7,0.1-1,0.4
					c-0.3,0.3-0.4,0.6-0.4,1c0,0.4,0.1,0.7,0.4,1c0.3,0.3,0.6,0.4,1,0.4H6.8z"/>
				<path class="st10" d="M3.9,35.2c0.4,0,0.7-0.1,1-0.4l0.9-0.9c0.3-0.3,0.4-0.6,0.4-1v-2.1l-0.2,0.1c-0.2,0.2-0.5,0.3-0.8,0.3
					c-0.2,0-0.3,0-0.4-0.1c-0.2-0.1-0.4-0.2-0.6-0.4c-0.1-0.1-0.2-0.2-0.2-0.4c-0.2-0.4-0.1-0.9,0.3-1.3L4.5,29H2.4
					c-0.4,0-0.7,0.1-1,0.4l-0.9,0.9c-0.4,0.4-0.5,1-0.3,1.5c0.2,0.4,0.6,0.7,1,0.8c0,0.8,0.6,1.4,1.4,1.4c0.1,0.5,0.4,0.8,0.9,1
					C3.6,35.2,3.8,35.2,3.9,35.2"/>
				<path class="st11" d="M5.3,31.3c0.3,0,0.6-0.1,0.9-0.3L6.3,31v-0.6c0-0.8-0.6-1.4-1.4-1.4H4.3l0,0c-0.3,0.4-0.5,0.9-0.3,1.4
					c0.1,0.1,0.1,0.3,0.2,0.4c0.2,0.2,0.4,0.4,0.6,0.4C5,31.3,5.2,31.3,5.3,31.3"/>
				<path class="st12" d="M26,20.3v-9.1l0.5,0.5c0.2,0.2,0.6,0.4,0.9,0.4c0.3,0,0.7-0.1,0.9-0.4l0.5-0.5v9.1l-1.4,1.4L26,20.3z"/>
				<path class="st12" d="M26,39.5v-5.3l-2.3-2.3c-0.3-0.3-0.4-0.6-0.4-1c0-0.4,0.1-0.7,0.4-1c0.3-0.3,0.6-0.4,1-0.4
					c0.4,0,0.7,0.1,1,0.4l0.5,0.4v3.3c0,0.3,0.1,0.7,0.4,0.9c0.2,0.2,0.6,0.4,0.9,0.4c0.3,0,0.7-0.1,0.9-0.4l0.5-0.5v5.5l-1.4,1.4
					L26,39.5z"/>
				<path class="st12" d="M26,30.3v-6.4l0.5,0.5c0.2,0.2,0.6,0.4,0.9,0.4c0.3,0,0.7-0.1,0.9-0.4l0.5-0.5v6.4l-1.4,1.4L26,30.3z"/>
				<path class="st2" d="M35.2,36.8l0.5-0.5c0.2-0.2,0.4-0.6,0.4-0.9V34h7.9v0.1c-0.5,0-1,0.3-1.2,0.8c-0.2,0.5-0.1,1,0.3,1.4
					l0.5,0.5H35.2z"/>
				<path class="st1" d="M33.4,30.8v-5.5h0.1c0,0.3,0.1,0.7,0.4,0.9c0.2,0.2,0.6,0.4,0.9,0.4c0.3,0,0.7-0.1,0.9-0.4l0.5-0.5v1.8
					l-2.4,2.3c-0.2,0.2-0.4,0.6-0.4,0.9H33.4z"/>
				<path class="st1" d="M33.4,25.4v-1.8c0-0.8,0.6-1.4,1.4-1.4c0.4,0,0.7,0.1,1,0.4l0.1,0l-1.9,1.9c-0.2,0.2-0.4,0.6-0.4,0.9H33.4z
					"/>
				<path class="st1" d="M28.4,43.6c0.1-0.1,0.1-0.1,0.2-0.2c0.1-0.1,0.1-0.2,0.1-0.2c0-0.1,0.1-0.2,0.1-0.2c0-0.1,0-0.2,0-0.2v-3.3
					l4.6-4.6v-4h0.1c0,0.3,0.1,0.7,0.4,0.9c0.2,0.2,0.6,0.4,0.9,0.4c0.3,0,0.7-0.1,0.9-0.4l0.5-0.5v2.9h-1.4c-0.7,0-1.3,0.6-1.3,1.3
					c0,0.7,0.6,1.3,1.3,1.3h0.7L28.4,43.6L28.4,43.6z"/>
				<path class="st13" d="M28.8,42.7c0-0.3-0.1-0.7-0.4-0.9l-1-1l1.5-1.5v3.4H28.8z"/>
				<path class="st3" d="M34.8,36.8c-0.8,0-1.4-0.6-1.4-1.4c0-0.8,0.6-1.4,1.4-1.4h1.4v1.4c0,0.4-0.1,0.7-0.4,1l-0.4,0.4H34.8z"/>
				<path class="st12" d="M45.9,38.6c-0.4,0-0.7-0.1-1-0.4l-1.6-1.5h0.7c0.3,0,0.7-0.1,0.9-0.4c0.2-0.2,0.4-0.6,0.4-0.9
					c0-0.7-0.6-1.3-1.3-1.3V34h2.8c0.4,0,0.7,0.1,1,0.4l1.8,1.8c0.4,0.4,0.5,1,0.3,1.5c-0.2,0.5-0.7,0.9-1.3,0.9H45.9z"/>
				<path class="st13" d="M43.5,36.8L43,36.4c-0.4-0.4-0.5-1-0.3-1.5c0.2-0.5,0.7-0.9,1.3-0.9c0.8,0,1.4,0.6,1.4,1.4
					c0,0.4-0.1,0.7-0.4,1c-0.3,0.3-0.6,0.4-1,0.4H43.5z"/>
				<path class="st12" d="M28.8,20.2l4.6-4.6v-0.9h2.9v1.5c0,0.4-0.1,0.7-0.4,1l-7.1,7V20.2z"/>
				<path class="st12" d="M33.4,12.2v-0.5c0-0.8,0.6-1.4,1.4-1.4c0.8,0,1.4,0.6,1.4,1.4v0.5H33.4z"/>
				<path class="st13" d="M27.5,24.8c0.3,0,0.7-0.1,0.9-0.4c0.2-0.2,0.4-0.6,0.4-0.9c0-0.3-0.1-0.7-0.4-0.9l-1-1l1.5-1.5v4l-0.4,0.4
					c-0.3,0.3-0.6,0.4-1,0.4V24.8z"/>
				<path class="st10" d="M36.1,27.6l0.5-0.4c0.3-0.3,0.6-0.4,1-0.4h4.2l-0.5,0.5c-0.2,0.2-0.4,0.6-0.4,0.9c0,0.3,0.1,0.7,0.4,0.9
					c0.2,0.2,0.6,0.4,0.9,0.4v0.1h-4l-2.1,2V27.6z"/>
				<path class="st10" d="M46.8,29.5h-4.6v-0.1c0.3,0,0.7-0.1,0.9-0.4l0.9-0.9c0.4-0.3,0.5-0.9,0.3-1.3l0-0.1h3
					c0.3,0,0.6,0.1,0.9,0.3l2.3,1.8c0.1,0,0.1,0.1,0.2,0.2l0.1,0.1H50c-0.7,0-1.3,0.6-1.3,1.3v0.7L46.8,29.5z"/>
				<path class="st3" d="M34.8,32.3c-0.4,0-0.7-0.1-1-0.4c-0.3-0.3-0.4-0.6-0.4-1c0-0.4,0.1-0.7,0.4-1l2.4-2.4v4l-0.4,0.4
					C35.6,32.1,35.2,32.3,34.8,32.3"/>
				<path class="st10" d="M41.5,26.8l0.6-0.6c0.3-0.3,0.6-0.4,1-0.4c0.4,0,0.7,0.1,1,0.4c0.1,0.1,0.3,0.3,0.3,0.5l0,0.1H41.5z"/>
				<path class="st14" d="M42.2,29.5c-0.4,0-0.7-0.1-1-0.4c-0.3-0.3-0.4-0.6-0.4-1c0-0.4,0.1-0.7,0.4-1l0.4-0.4h2.8l0,0
					c0.2,0.5,0.1,1.1-0.3,1.5l-0.9,0.9C43,29.4,42.6,29.5,42.2,29.5"/>
				<path class="st4" d="M28.8,30.3l0.5-0.4c0.3-0.3,0.6-0.4,1-0.4c0.4,0,0.7,0.1,1,0.4c0.3,0.3,0.4,0.6,0.4,1c0,0.4-0.1,0.7-0.4,1
					l-2.5,2.5V30.3z"/>
				<path class="st5" d="M27.5,34.9c0.3,0,0.7-0.1,0.9-0.4c0.5-0.5,0.5-1.3,0-1.8l-1-1l1.5-1.5v4l-0.4,0.4c-0.3,0.3-0.6,0.4-1,0.4
					V34.9z"/>
				<path class="st13" d="M26,33.6v-3.4l1.5,1.5l-1,1c-0.2,0.2-0.4,0.6-0.4,0.9H26z"/>
				<path class="st12" d="M33,14.9c-0.8,0-1.4-0.6-1.4-1.4c0-0.8,0.6-1.4,1.4-1.4h0.5v2.8H33z"/>
				<path class="st12" d="M36.1,14.9v-2.8h0.5c0.8,0,1.4,0.6,1.4,1.4c0,0.8-0.6,1.4-1.4,1.4H36.1z"/>
				<rect x="33.4" y="12.1" class="st13" width="2.9" height="2.8"/>
				<path class="st2" d="M27.5,4L27.5,4l-0.1-0.5l0.1-0.1l0.9-0.9c0.1-0.1,0.1-0.2,0.2-0.3c0.3-0.5,0.2-1.1-0.2-1.5
					c0,0-0.1-0.1-0.1-0.1c0,0,0.1-0.1,0.1-0.1c0.3-0.2,0.6-0.3,0.9-0.3c0.4,0,0.7,0.1,1,0.4l0.9,0.9c0.3,0.3,0.4,0.6,0.4,1V4
					C31.8,4,32,4.1,32.2,4.3l0.9,0.9c0.3,0.3,0.4,0.6,0.4,1c0,0.4-0.1,0.7-0.4,1l-4.6,4.6l-0.1-0.1c0.2-0.2,0.4-0.6,0.4-0.9
					c0-0.1,0-0.2,0-0.2c0-0.1,0-0.2-0.1-0.2c0-0.1-0.1-0.2-0.1-0.2c-0.1-0.1-0.1-0.2-0.2-0.2l-1-1V8.4h0.1"/>
				<path class="st15" d="M27.5,8.4l0,0.5l-0.9,1c-0.1,0.1-0.1,0.1-0.2,0.2c-0.1,0.1-0.1,0.2-0.1,0.2c0,0.1-0.1,0.2-0.1,0.2
					c0,0.1,0,0.2,0,0.2c0,0.3,0.1,0.7,0.4,0.9l-0.1,0.1l-4.6-4.6c-0.3-0.3-0.4-0.6-0.4-1c0-0.4,0.1-0.7,0.4-1l0.9-0.9
					C22.9,4.1,23.1,4,23.3,4V2.5c0-0.4,0.1-0.7,0.4-1l0.9-0.9c0.3-0.3,0.6-0.4,1-0.4c0.3,0,0.7,0.1,0.9,0.3c0,0,0,0,0,0l0,0
					c0,0,0.1,0,0.1-0.1c0,0,0.1,0,0.1-0.1l0,0c0,0,0.1,0,0.1,0c0,0,0.1,0,0.1,0l0,0c0,0,0.1,0,0.1,0c0,0,0.1,0,0.1,0l0,0
					c0,0,0.1,0,0.1,0c0,0,0.1,0,0.1,0l0.1,0c0,0,0.1,0,0.1,0c0,0,0.1,0,0.1,0l0.1,0c0,0,0.1,0,0.1,0c0,0,0.1,0,0.1,0l0,0
					c0,0,0.1,0,0.1,0.1c0,0,0.1,0,0.1,0.1l0.1,0c0,0,0.1,0.1,0.1,0.1c0.4,0.4,0.5,1.1,0.2,1.7c-0.1,0.1-0.2,0.2-0.2,0.3
					c0,0-0.9,0.9-1,1V4h0"/>
				<path class="st7" d="M28.4,9.8c-0.2-0.2-0.6-0.4-0.9-0.4c-0.3,0-0.7,0.1-0.9,0.4l-0.1-0.1l1-1L28.4,9.8L28.4,9.8z"/>
				<path class="st13" d="M26,42.7v-3.4l1.5,1.5l-1,1c-0.2,0.2-0.4,0.6-0.4,0.9H26z"/>
				<path class="st2" d="M47.4,22.6c0-0.3,0.1-0.7,0.4-0.9l0.5-0.5h-2.9v1.4c0,0.7-0.6,1.3-1.3,1.3c-0.7,0-1.3-0.6-1.3-1.3v-1.4
					h-1.9h0c0.2-0.5,0-1-0.4-1.4c-0.3-0.3-0.6-0.4-1-0.4c-0.4,0-0.7,0.1-1,0.4l-1.8,1.8h0v0l-0.9,0.9l0,0c0.3,0.2,0.4,0.6,0.4,1v2.5
					l2.1-2h10.1l-0.5-0.5C47.5,23.3,47.4,23,47.4,22.6"/>
				<path class="st2" d="M42.6,21.3V19l0.1,0c0.6,0.3,1.2,0.3,1.3,0.3c0.1,0,0.7,0,1.3-0.3l0.1,0v2.3H42.6z"/>
				<path class="st7" d="M44.1,24c-0.8,0-1.4-0.6-1.4-1.4v-1.4l2.9,0v1.4C45.5,23.4,44.8,24,44.1,24"/>
				<path class="st12" d="M45.4,18.1c0-0.1,0-0.3-0.1-0.4c-0.2-0.5-0.7-0.8-1.2-0.8c-0.5,0-1,0.3-1.2,0.8c-0.1,0.1-0.1,0.3-0.1,0.4
					v1.2l-0.1,0c-0.1,0-0.1,0-0.2-0.1c-1.1-0.5-1.7-1.6-1.7-2.9v-2.7c0-0.8,0.6-1.4,1.4-1.4h3.7c0.8,0,1.4,0.6,1.4,1.4v2.7
					c0,1.3-0.6,2.3-1.7,2.9c-0.1,0-0.1,0.1-0.2,0.1l-0.1,0V18.1z"/>
				<path class="st13" d="M44.1,19.5c-0.1,0-0.7,0-1.4-0.3l0,0v-1.1c0-0.2,0-0.3,0.1-0.5c0.2-0.6,0.7-0.9,1.3-0.9
					c0.6,0,1.1,0.4,1.3,0.9c0.1,0.2,0.1,0.3,0.1,0.5v1.1l0,0C44.8,19.5,44.2,19.5,44.1,19.5"/>
				<path class="st10" d="M50.5,25.9c-0.4,0-0.7-0.1-1-0.4l-1.6-1.5h0.7c0.3,0,0.7-0.1,0.9-0.4c0.2-0.2,0.4-0.6,0.4-0.9
					c0-0.3-0.1-0.7-0.4-0.9c-0.2-0.2-0.6-0.4-0.9-0.4h-0.7l1.6-1.5c0.3-0.3,0.6-0.4,1-0.4h0.9c0.4,0,0.7,0.1,1,0.4l0.9,0.9
					c0.3,0.3,0.4,0.6,0.4,1c0,0.3-0.1,0.7-0.3,0.9c0.2,0.3,0.3,0.6,0.3,0.9c0,0.4-0.1,0.7-0.4,1l-0.9,0.9c-0.3,0.3-0.6,0.4-1,0.4
					H50.5z"/>
				<path class="st14" d="M48.1,24l-0.4-0.4c-0.3-0.3-0.4-0.6-0.4-1c0-0.4,0.1-0.7,0.4-1l0.4-0.4h0.6c0.4,0,0.7,0.1,1,0.4
					c0.3,0.3,0.4,0.6,0.4,1c0,0.4-0.1,0.7-0.4,1c-0.3,0.3-0.6,0.4-1,0.4H48.1z"/>
				<path class="st1" d="M51,35.2c-0.4,0-0.7-0.1-1-0.4L49,33.9c-0.3-0.3-0.4-0.6-0.4-1v-2.1l0.2,0.1c0.2,0.2,0.5,0.3,0.8,0.3
					c0.2,0,0.3,0,0.4-0.1c0.2-0.1,0.4-0.2,0.6-0.4c0.1-0.1,0.2-0.2,0.2-0.4c0.2-0.4,0.1-0.9-0.3-1.3L50.5,29h2.1
					c0.4,0,0.7,0.1,1,0.4l0.9,0.9c0.4,0.4,0.5,1,0.3,1.5c-0.2,0.4-0.6,0.7-1,0.8c0,0.8-0.6,1.4-1.4,1.4c-0.1,0.5-0.4,0.8-0.9,1
					C51.3,35.2,51.2,35.2,51,35.2"/>
				<path class="st14" d="M49.6,31.3c-0.3,0-0.6-0.1-0.9-0.3L48.6,31v-0.6c0-0.8,0.6-1.4,1.4-1.4h0.6l0,0c0.3,0.4,0.5,0.9,0.3,1.4
					c-0.1,0.1-0.1,0.3-0.2,0.4c-0.2,0.2-0.4,0.4-0.6,0.4C49.9,31.3,49.8,31.3,49.6,31.3"/>
				<path class="st16" d="M27.5,44.1c-0.4,0-0.7-0.1-1-0.4c-0.3-0.3-0.4-0.6-0.4-1c0-0.4,0.1-0.7,0.4-1l1-1l1,1c0.6,0.6,0.6,1.5,0,2
					C28.2,44,27.8,44.1,27.5,44.1"/>
				<path class="st16" d="M27.5,35c-0.4,0-0.7-0.1-1-0.4c-0.3-0.3-0.4-0.6-0.4-1c0-0.4,0.1-0.7,0.4-1l1-1l1,1c0.6,0.6,0.6,1.5,0,2
					C28.2,34.8,27.8,35,27.5,35"/>
				<path class="st5" d="M26,23.5v-3.4l1.5,1.5l-1,1c-0.2,0.2-0.4,0.6-0.4,0.9H26z"/>
				<path class="st16" d="M27.5,25c-0.4,0-0.7-0.1-1-0.4c-0.3-0.3-0.4-0.6-0.4-1c0-0.4,0.1-0.7,0.4-1l1-1l1,1c0.6,0.6,0.6,1.5,0,2
					C28.2,24.8,27.8,25,27.5,25"/>
				<path class="st7" d="M27.5,0c-0.4,0-0.8,0.1-1.1,0.4c-0.6,0.6-0.6,1.6,0,2.2l1,1c0,0,0,0,0,0l0,0c0,0,0,0,0,0l1-1
					c0.6-0.6,0.6-1.6,0-2.2c0,0,0,0-0.1,0C28.2,0.1,27.8,0,27.5,0"/>
				<path class="st7" d="M27.5,12.2c-0.4,0-0.7-0.1-1-0.4c-0.3-0.3-0.4-0.6-0.4-1c0-0.1,0-0.2,0-0.3c0-0.1,0-0.2,0.1-0.3
					c0-0.1,0.1-0.2,0.1-0.2c0.1-0.1,0.1-0.2,0.2-0.2c0.3-0.3,0.6-0.4,1-0.4c0.4,0,0.7,0.1,1,0.4c0.1,0.1,0.1,0.1,0.2,0.2
					c0.1,0.1,0.1,0.2,0.1,0.2c0,0.1,0.1,0.2,0.1,0.3c0,0.1,0,0.2,0,0.3c0,0.4-0.1,0.7-0.4,1C28.2,12,27.8,12.2,27.5,12.2"/>
				<path class="st3" d="M20.1,26.8c0.4,0,0.7-0.1,1-0.4c0.3-0.3,0.4-0.6,0.4-1c0-0.4-0.1-0.7-0.4-1l-1.9-1.9l0,0
					c-0.3,0.3-0.5,0.6-0.5,1V26l0.4,0.4C19.3,26.6,19.7,26.8,20.1,26.8"/>
				<path class="st3" d="M34.8,26.8c-0.4,0-0.7-0.1-1-0.4c-0.3-0.3-0.4-0.6-0.4-1c0-0.4,0.1-0.7,0.4-1l1.9-1.9l0,0
					c0.3,0.3,0.5,0.6,0.5,1V26l-0.4,0.4C35.6,26.6,35.2,26.8,34.8,26.8"/>
				<ellipse class="st7" cx="27.5" cy="10.4" rx="1.8" ry="1.8"/>
				<g>
					<path class="st7" d="M27.5,4.2c-1.2,0-2.3,0.3-3.2,0.9c-0.8,0.5-0.9,1.7-0.2,2.4l0,0c0.5,0.5,1.3,0.6,1.9,0.2
						c0.5-0.3,1-0.4,1.6-0.4c0.6,0,1.1,0.2,1.6,0.4c0.6,0.4,1.4,0.3,1.9-0.2l0,0c0.7-0.7,0.6-1.9-0.2-2.4
						C29.8,4.6,28.7,4.2,27.5,4.2z"/>
				</g>
			</g>
		</g>
	</g>
	<g>
		<path d="M55.9,56c0-0.4,0.3-0.7,0.7-0.7H58c0.4,0,0.8,0.2,1.1,0.5l3.1,4.4l3.3-4.4c0.2-0.3,0.6-0.5,1.1-0.5h1.2
			c0.4,0,0.7,0.3,0.7,0.7v10.5c0,0.4-0.3,0.7-0.7,0.7h-1.4c-0.4,0-0.7-0.3-0.7-0.7v-6.9L62.5,64c-0.1,0.1-0.2,0.2-0.3,0.2
			c-0.1,0-0.2-0.1-0.3-0.2l-3.2-4.4v6.8c0,0.4-0.3,0.7-0.7,0.7h-1.4c-0.4,0-0.7-0.3-0.7-0.7V56z"/>
		<path d="M75.9,55.1c3.6,0,6.3,2.3,6.3,6.1c0,3.6-2.7,6.1-6.3,6.1c-3.6,0-6.3-2.3-6.3-6.1C69.6,57.8,72.1,55.1,75.9,55.1
			 M75.9,64.8c2.3,0,3.4-1.6,3.4-3.6c0-2.2-1.5-3.6-3.4-3.6c-2,0-3.4,1.4-3.4,3.6C72.5,63.2,74,64.8,75.9,64.8"/>
		<path d="M83.5,56c0-0.4,0.3-0.7,0.7-0.7h1.4c0.4,0,0.7,0.3,0.7,0.7v8.6h4.2c0.4,0,0.7,0.3,0.7,0.7v1.2c0,0.4-0.3,0.7-0.7,0.7h-6.2
			c-0.4,0-0.7-0.3-0.7-0.7V56z"/>
		<path d="M92.1,56c0-0.4,0.3-0.7,0.7-0.7c0.9,0,2.4,0,3.1,0c4.8,0,6.7,2.7,6.7,5.9c0,3.3-2.3,6-6.8,6c-0.6,0-1.9,0-3,0
			c-0.4,0-0.7-0.3-0.7-0.7V56z M94.8,57.8v6.7c0.4,0,0.6,0,1,0c2.3,0,3.8-1.3,3.8-3.5c0-2.2-1.6-3.3-3.8-3.3
			C95.5,57.8,95.1,57.8,94.8,57.8"/>
		<path d="M109.9,55.1c3.6,0,6.3,2.3,6.3,6.1c0,3.6-2.7,6.1-6.3,6.1c-3.6,0-6.3-2.3-6.3-6.1C103.5,57.8,106.1,55.1,109.9,55.1
			 M109.9,64.8c2.3,0,3.4-1.6,3.4-3.6c0-2.2-1.5-3.6-3.4-3.6c-2,0-3.4,1.4-3.4,3.6C106.4,63.2,108,64.8,109.9,64.8"/>
		<path d="M122.8,66.5c-0.1,0.4-0.5,0.6-0.9,0.6h-0.8c-0.4,0-0.8-0.2-0.9-0.6l-4.3-10.6c-0.1-0.3,0.1-0.6,0.4-0.6h1.6
			c0.4,0,0.8,0.2,0.9,0.6l2.8,7.2l2.6-7.2c0.1-0.4,0.5-0.6,0.9-0.6h1.4c0.3,0,0.5,0.3,0.4,0.6L122.8,66.5z"/>
		<path d="M129,55.9c0.2-0.4,0.5-0.6,0.9-0.6h1.1c0.4,0,0.8,0.2,0.9,0.6l4.4,10.6c0.1,0.3-0.1,0.6-0.4,0.6h-1.6
			c-0.4,0-0.8-0.2-0.9-0.6l-0.7-1.9H128l-0.7,1.9c-0.1,0.4-0.5,0.6-0.9,0.6H125c-0.3,0-0.5-0.3-0.4-0.6L129,55.9z M129.1,62.1h2.7
			l-1.3-3.3L129.1,62.1z"/>
	</g>
</g>
</svg>
