<svg width="384" height="652" viewBox="0 0 384 652" fill="none" xmlns="http://www.w3.org/2000/svg">
<path d="M382.432 382.325L324.942 560.475C307.105 615.616 255.518 652.634 197.771 651.992L132.325 651.092C43.5237 649.935 -18.8426 562.917 8.4908 478.341L23.8899 430.525C41.7272 375.384 93.3141 338.366 151.061 339.008L353.302 341.579C374.219 341.965 388.977 362.402 382.432 382.325Z" fill="#092156"/>
<path d="M167.893 153.353L200.527 51.9793C210.637 20.6689 239.943 -0.504155 272.833 0.00913081L309.945 0.522416C360.367 1.16402 395.816 50.6961 380.331 98.8166L371.501 126.021C361.391 157.331 332.085 178.504 299.195 177.991L184.274 176.451C172.5 176.323 164.182 164.645 167.893 153.353Z" fill="#DADADA"/>
<path d="M0.55526 285.342L21.1771 221.019C27.5331 201.097 46.107 187.72 66.7994 188.004L90.2462 188.289C122.097 188.716 144.485 220.095 134.668 250.69L129.159 267.981C122.803 287.903 104.23 301.28 83.5371 300.996L11.0074 300.071C3.52141 299.857 -1.77529 292.528 0.55526 285.342Z" fill="#092156"/>
</svg>
