<svg width="257" height="134" viewBox="0 0 257 134" fill="none" xmlns="http://www.w3.org/2000/svg">
<path d="M206.24 103.463L213.905 82.6533C216.267 76.2077 223.171 71.88 230.862 71.9721L239.577 72.0642C251.415 72.2023 259.736 82.354 256.088 92.2525L254.04 97.8463C251.678 104.292 244.774 108.62 237.083 108.527L210.125 108.228C207.343 108.159 205.374 105.788 206.24 103.463Z" fill="#092156"/>
<path d="M214.377 65.2966L197.608 110.658C192.406 124.699 177.358 134.124 160.515 133.961L141.425 133.732C115.523 133.437 97.3317 111.28 105.304 89.7447L109.796 77.5697C114.999 63.5292 130.046 54.1034 146.89 54.2671L205.881 54.9216C211.982 55.0198 216.286 60.2236 214.377 65.2966Z" fill="#FC0D0D"/>
<path d="M134.276 13.3238L113.988 68.2094C107.7 85.1954 89.5085 96.6176 69.1088 96.3885L46.0141 96.1267C14.6472 95.7667 -7.36205 68.9949 2.29506 42.9103L7.75993 28.1825C14.0483 11.1965 32.2396 -0.225714 52.6393 0.00338437L123.982 0.821594C131.356 0.887051 136.559 7.20363 134.276 13.3238Z" fill="#092156"/>
<path d="M127.65 41.9285L137.195 16.073C140.152 8.08731 148.724 2.68712 158.344 2.81803L169.198 2.94895C183.946 3.11259 194.314 15.7457 189.785 28.0189L187.203 34.9573C184.246 42.9431 175.674 48.3432 166.054 48.2123L132.442 47.8196C128.998 47.7869 126.565 44.8086 127.65 41.9285Z" fill="#DADADA"/>
</svg>
