<svg width="990" height="590" viewBox="0 0 990 590" fill="none" xmlns="http://www.w3.org/2000/svg">
<path d="M793.84 455.644L823.343 363.999C832.436 335.613 859.009 316.554 888.612 316.96L922.157 317.365C967.724 317.974 999.753 362.681 985.709 406.273L977.828 430.908C968.735 459.294 942.162 478.353 912.558 477.947L808.793 476.629C798.083 476.325 790.506 465.883 793.84 455.644Z" fill="#092156"/>
<path d="M825.161 287.561L760.615 487.331C740.589 549.164 682.671 590.674 617.837 589.954L544.359 588.945C444.66 587.647 374.639 490.069 405.327 395.229L422.616 341.611C442.642 279.778 500.56 238.268 565.394 238.988L792.456 241.871C815.94 242.303 832.508 265.221 825.161 287.561Z" fill="#FC0D0D"/>
<path d="M516.841 58.6773L438.752 300.389C414.548 375.195 344.528 425.497 266.007 424.488L177.113 423.335C56.3785 421.75 -28.3373 303.848 8.83391 188.974L29.8688 124.114C54.0733 49.3086 124.094 -0.99403 202.614 0.0149045L477.22 3.61824C505.603 3.90651 525.629 31.7243 516.841 58.6773Z" fill="#092156"/>
<path d="M491.34 184.65L528.079 70.7845C539.461 35.6159 572.454 11.8338 609.481 12.4104L651.263 12.9869C708.028 13.7076 747.937 69.3431 730.504 123.393L720.562 153.95C709.181 189.118 676.187 212.9 639.16 212.324L509.781 210.594C496.526 210.45 487.162 197.334 491.34 184.65Z" fill="#DADADA"/>
</svg>
